<svg width="157" height="211" viewBox="0 0 157 211" fill="none" xmlns="http://www.w3.org/2000/svg">
<g filter="url(#filter0_d_589_71)">
<rect x="4" width="149" height="203" rx="20" fill="white"/>
</g>
<rect x="19" y="16" width="119" height="171" rx="15" fill="#FFE13C"/>
<path d="M57.16 109.6C58.1467 110.773 59.28 111.72 60.56 112.44C61.8667 113.16 63.1333 113.52 64.36 113.52C66.1467 113.52 67.6133 113.093 68.76 112.24C69.9067 111.36 70.48 110.24 70.48 108.88C70.48 108.107 70.2133 107.453 69.68 106.92C69.1467 106.387 68.4533 105.96 67.6 105.64C66.7733 105.293 65.6533 104.907 64.24 104.48C62.24 103.867 60.6 103.267 59.32 102.68C58.0667 102.093 56.9867 101.24 56.08 100.12C55.1733 98.9733 54.72 97.5067 54.72 95.72C54.72 94.12 55.1467 92.6933 56 91.44C56.8533 90.1867 58.0267 89.2133 59.52 88.52C61.04 87.8267 62.7733 87.48 64.72 87.48C66.4533 87.48 68.1867 87.9067 69.92 88.76C71.68 89.6133 73.1067 90.7333 74.2 92.12L70.68 94.88C69.9067 93.8933 68.9733 93.1067 67.88 92.52C66.8133 91.9067 65.76 91.6 64.72 91.6C63.1733 91.6 61.92 91.9867 60.96 92.76C60 93.5333 59.52 94.52 59.52 95.72C59.52 96.52 59.8 97.2 60.36 97.76C60.92 98.32 61.6133 98.7733 62.44 99.12C63.2667 99.4667 64.44 99.8933 65.96 100.4C67.96 101.067 69.5733 101.693 70.8 102.28C72.0267 102.84 73.08 103.653 73.96 104.72C74.84 105.787 75.28 107.16 75.28 108.84C75.28 110.547 74.8133 112.067 73.88 113.4C72.9467 114.733 71.6533 115.773 70 116.52C68.3733 117.267 66.5067 117.64 64.4 117.64C62.4267 117.64 60.44 117.16 58.44 116.2C56.4667 115.213 54.84 113.947 53.56 112.4L57.16 109.6ZM93.1197 103.36C94.693 103.36 95.9464 102.827 96.8797 101.76C97.8397 100.693 98.3197 99.2933 98.3197 97.56C98.3197 95.8533 97.8397 94.48 96.8797 93.44C95.9464 92.3733 94.693 91.84 93.1197 91.84H85.2797V103.36H93.1197ZM80.4797 87.68H93.8797C95.6664 87.68 97.253 88.0933 98.6397 88.92C100.053 89.7467 101.146 90.9067 101.92 92.4C102.72 93.8667 103.12 95.5467 103.12 97.44C103.12 99.4667 102.586 101.293 101.52 102.92C100.48 104.547 98.8664 105.827 96.6797 106.76L104.52 117.44H98.5597L91.2397 107.48H85.2797V117.44H80.4797V87.68Z" fill="black"/>
<defs>
<filter id="filter0_d_589_71" x="0" y="0" width="157" height="211" filterUnits="userSpaceOnUse" color-interpolation-filters="sRGB">
<feFlood flood-opacity="0" result="BackgroundImageFix"/>
<feColorMatrix in="SourceAlpha" type="matrix" values="0 0 0 0 0 0 0 0 0 0 0 0 0 0 0 0 0 0 127 0" result="hardAlpha"/>
<feOffset dy="4"/>
<feGaussianBlur stdDeviation="2"/>
<feComposite in2="hardAlpha" operator="out"/>
<feColorMatrix type="matrix" values="0 0 0 0 0 0 0 0 0 0 0 0 0 0 0 0 0 0 0.25 0"/>
<feBlend mode="normal" in2="BackgroundImageFix" result="effect1_dropShadow_589_71"/>
<feBlend mode="normal" in="SourceGraphic" in2="effect1_dropShadow_589_71" result="shape"/>
</filter>
</defs>
</svg>
