<svg width="1920" height="350" viewBox="0 0 1920 350" fill="none" xmlns="http://www.w3.org/2000/svg">
<g clip-path="url(#clip0_264_984)">
<rect width="1920" height="350" fill="#FAFAFA"/>
<g clip-path="url(#clip1_264_984)">
<path d="M256.497 179.887L259.032 170.591L247.624 166.366L246.356 174.817L256.497 179.887Z" fill="#A0616A"/>
<path opacity="0.1" d="M256.497 180.339L259.032 171.043L252.314 168.209L254.401 179.168L256.497 180.339Z" fill="black"/>
<path d="M313.603 229.155C314.966 227.017 313.347 223.548 309.986 221.406C308.516 220.469 306.955 219.942 305.551 219.824L303.603 218.617L277.879 201.196C277.879 201.196 260.449 181.324 256.648 179.774C252.847 178.225 249.692 180.63 249.692 180.63L247.985 184.93L275.318 211.743L298.577 224.049L301.744 225.797C302.444 227.02 303.581 228.212 305.052 229.149C308.412 231.291 312.24 231.293 313.603 229.155L313.603 229.155Z" fill="#A0616A"/>
<path d="M247.296 170.382C247.296 170.382 242.913 172.382 241.883 177.088C240.853 181.794 274.027 212.275 274.027 212.275L285.395 206.034L247.296 170.382V170.382Z" fill="#E6E6E6"/>
<path d="M267.694 160.692C267.694 167.225 262.397 172.522 255.863 172.522C249.329 172.522 244.032 167.225 244.032 160.692C244.032 154.158 249.329 148.861 255.863 148.861C262.397 148.861 267.694 154.158 267.694 160.692V160.692Z" fill="#A0616A"/>
<path d="M283.539 332.448L291.567 352.307L296.214 347.659L297.904 338.786L291.144 330.335L283.539 332.448Z" fill="#A0616A"/>
<path d="M237.97 328.41L234.406 340.164L240.968 345.572L248.176 340.983L247.236 328.456L237.97 328.41Z" fill="#A0616A"/>
<path d="M261.778 214.352L262.835 231.464L236.638 226.817L238.328 216.253L261.778 214.352Z" fill="#A0616A"/>
<path d="M263.046 231.676L236.638 223.014C236.638 223.014 226.92 242.45 237.483 254.703C248.046 266.957 283.116 336.673 283.116 336.673L293.679 331.603L278.468 287.238L261.567 246.253L263.046 231.676V231.676Z" fill="#2F2E41"/>
<path d="M233.06 245.524L241.799 290.187L236.382 330.04L248.994 331.374L259.562 282.298L255.754 249.778L233.06 245.524Z" fill="#2F2E41"/>
<path d="M301.707 337.096H309.025C309.025 337.096 317.564 333.715 319.565 337.096C321.566 340.476 310.636 350.062 310.636 350.062C310.636 350.062 295.369 358.644 293.257 358.222C291.144 357.799 290.299 352.729 290.299 352.729L287.764 346.814L291.567 348.081C291.567 348.081 296.637 345.124 295.369 340.053L301.707 337.096V337.096Z" fill="#2F2E41"/>
<path d="M236.465 340.637L234.75 336.775L231.975 342.63C231.975 342.63 225.694 348.656 234.059 351.876C242.424 355.096 252.505 358.016 252.505 358.016C252.505 358.016 265.461 355.961 264.69 352.142C263.919 348.324 262.522 347.261 262.522 347.261L257.356 347.078L249.035 338.753L243.2 342.269L236.465 340.637V340.637Z" fill="#2F2E41"/>
<path d="M252.272 163.015L256.074 162.593L263.046 155.621C263.046 155.621 269.384 159.001 269.384 156.466C269.384 144.635 262.201 145.058 256.286 144.213C250.37 143.368 251.004 143.157 249.103 146.326C248.233 147.775 245.089 148.649 245.089 148.649C245.089 148.649 239.173 140.621 236.216 150.34C233.258 160.058 237.061 190.057 234.103 192.592C231.145 195.127 246.247 197.659 244.612 187.731C242.976 177.804 240.018 162.593 241.709 159.213C243.399 155.832 243.821 156.677 243.821 156.677C241.727 155.822 240.358 170.885 248.255 171.623L248.469 164.283C248.469 164.283 249.737 160.48 252.272 163.015H252.272Z" fill="#2F2E41"/>
<path d="M257.553 177.593L244.878 172.522L227.977 223.225L262.75 221.959L265.881 206.825C265.881 206.825 268.938 198.949 266.403 194.301C263.868 189.654 257.553 177.593 257.553 177.593V177.593Z" fill="#E6E6E6"/>
<path d="M224.569 262.526C227.095 262.743 229.42 259.701 229.761 255.731C229.91 253.994 229.654 252.366 229.108 251.067L229.275 248.782L232.796 217.914C232.796 217.914 239.35 192.664 238.962 188.578C238.575 184.492 237.962 183.407 237.962 183.407L233.361 183.887L222.262 220.531L222.132 246.845L222.051 250.461C221.291 251.648 220.761 253.208 220.612 254.946C220.271 258.915 222.043 262.309 224.569 262.526V262.526Z" fill="#A0616A"/>
<path d="M245.934 176.536C245.934 176.536 242.131 173.578 237.483 174.846C232.836 176.114 221.193 219.634 221.193 219.634L231.991 226.817L245.934 176.536V176.536Z" fill="#E6E6E6"/>
<path d="M176.691 280.198C176.691 281.869 172.633 248.689 172.633 248.689L143.106 252.268C137.775 252.914 134.109 257.943 135.125 263.215L140.647 291.895C141.122 292.471 141.854 293.015 142.795 293.525V358.493H146.853V295.14C150.119 296.134 154.336 296.906 159.027 297.405V358.493H163.085V297.762C169.947 298.24 177.464 298.16 184.329 297.386V358.493H188.387V296.832C189.616 296.633 190.813 296.41 191.968 296.159V358.493H196.026V295.117C198.233 294.447 200.21 293.654 201.874 292.73C216.913 284.375 176.691 278.527 176.691 280.198H176.691Z" fill="#E6E6E6"/>
<path d="M206.423 340.84L211.423 345.84L218.329 349.412L217.614 355.603L204.518 354.174L202.851 350.841L203.327 347.983L202.375 343.459L206.423 340.84Z" fill="#FFB6B6"/>
<path d="M216.662 353.222L217.071 347.968L231.187 354.65C231.187 354.65 232.28 357.746 228.876 358.222C225.472 358.698 202.851 358.698 202.851 357.508C202.851 356.317 202.232 350.222 202.232 350.222L215.948 354.174L216.662 353.222V353.222Z" fill="#2F2E41"/>
<path d="M188.437 326.95L184.821 333.027L183.057 340.599L176.88 341.429L175.044 328.384L177.865 325.948L180.752 325.707L184.903 323.671L188.437 326.95Z" fill="#FFB6B6"/>
<path d="M178.954 339.92L184.147 339.025L181.142 354.351C181.142 354.351 178.411 356.172 177.112 352.989C175.813 349.807 170.249 327.881 171.403 327.588C172.557 327.295 178.313 325.196 178.313 325.196L177.855 339.462L178.954 339.92V339.92Z" fill="#2F2E41"/>
<path d="M172.752 213.242L172.036 227.803L183.494 228.041V215.515L172.752 213.242Z" fill="#FFB6B6"/>
<path opacity="0.1" d="M172.752 213.242L172.036 227.803L183.494 228.041V215.515L172.752 213.242Z" fill="black"/>
<path d="M153.417 273.395C153.417 273.395 148.166 287.001 151.985 292.491C155.804 297.982 173.707 301.085 173.707 301.085L181.107 308.007L200.681 345.722L212.139 343.097L195.907 304.427C195.907 304.427 186.359 288.911 182.778 286.762C179.197 284.614 172.53 276.548 172.53 276.548L153.417 273.395H153.417Z" fill="#2F2E41"/>
<path d="M185.881 274.589L193.234 279.796C193.234 279.796 219.3 286.763 210.945 302.994C202.59 319.226 190.178 330.923 190.178 330.923L179.197 324.717L196.861 299.891L165.83 281.034L185.881 274.589V274.589Z" fill="#2F2E41"/>
<path d="M252.716 254.795C256.171 255.49 258.613 257.836 258.171 260.035C257.728 262.234 254.568 263.453 251.112 262.757C249.727 262.498 248.425 261.911 247.313 261.045L232.71 257.915L233.963 252.143L248.55 254.904C249.91 254.535 251.339 254.498 252.716 254.795V254.795Z" fill="#FFB6B6"/>
<path d="M182.897 222.67H168.043L157.117 230.07L158.072 259.192C158.072 259.192 160.069 266.505 153.298 273.276C149.24 277.334 150.672 279.721 150.672 279.721L174.781 281.63L189.223 277.453L183.971 264.324L184.926 260.266C184.926 260.266 194.713 253.344 193.042 246.183C191.371 239.022 189.223 224.222 189.223 224.222L182.897 222.67V222.67Z" fill="#6C63FF"/>
<path d="M217.845 247.297L189.031 224.206C189.031 224.206 183.421 225.73 184.147 231.018C184.873 236.306 197.662 249.682 197.662 249.682L219.648 259.657L244.824 260.943L245.861 253.581L217.845 247.297H217.845Z" fill="#6C63FF"/>
<path d="M179.555 220.045C185.092 220.045 189.581 215.556 189.581 210.019C189.581 204.482 185.092 199.993 179.555 199.993C174.018 199.993 169.53 204.482 169.53 210.019C169.53 215.556 174.018 220.045 179.555 220.045Z" fill="#FFB6B6"/>
<path d="M176.81 212.048C176.81 212.048 181.584 207.513 183.494 205.364C185.404 203.216 193.52 208.706 191.849 204.648C190.178 200.59 187.791 199.636 187.791 199.636C187.791 199.636 183.494 191.042 175.139 196.055C175.139 196.055 175.139 190.803 168.456 192.952C161.772 195.1 158.669 214.913 160.578 216.822C162.488 218.732 164.398 220.164 162.965 223.745C161.533 227.325 162.965 243.318 168.217 245.467C173.468 247.615 174.423 249.134 172.991 252.552C171.559 255.97 167.978 263.608 174.662 261.699C181.346 259.789 174.185 262.176 177.049 255.97C179.913 249.763 186.836 246.899 181.346 241.409C175.855 235.919 176.094 224.461 174.901 223.267C173.707 222.074 171.459 212.134 171.459 212.134C171.459 212.134 175.378 209.661 176.81 212.048V212.048Z" fill="#2F2E41"/>
<path d="M293.517 358.105H203.24C197.266 358.105 192.407 353.245 192.407 347.271V218.608C192.407 212.633 197.266 207.774 203.24 207.774H293.517C299.491 207.774 304.35 212.633 304.35 218.608V347.271C304.35 353.245 299.491 358.105 293.517 358.105V358.105Z" fill="white"/>
<path d="M293.517 359.406H203.24C196.549 359.406 191.106 353.962 191.106 347.271V218.608C191.106 211.916 196.549 206.473 203.24 206.473H293.517C300.208 206.473 305.651 211.916 305.651 218.608V347.271C305.651 353.962 300.208 359.406 293.517 359.406V359.406ZM203.24 207.376C197.047 207.376 192.01 212.415 192.01 218.608V347.271C192.01 353.464 197.047 358.502 203.24 358.502H293.517C299.71 358.502 304.748 353.464 304.748 347.271V218.608C304.748 212.415 299.71 207.376 293.517 207.376H203.24V207.376Z" fill="#3F3D56"/>
<path d="M212.821 256.823L283.393 254.69C288.294 254.541 288.765 246.875 283.819 247.024L213.247 249.158C208.346 249.306 207.875 256.973 212.821 256.823V256.823Z" fill="#6C63FF"/>
<path d="M212.821 282.414L283.393 280.281C288.294 280.133 288.765 272.466 283.819 272.615L213.247 274.749C208.346 274.897 207.875 282.564 212.821 282.414V282.414Z" fill="#6C63FF"/>
<path d="M212.821 308.005L283.393 305.872C288.294 305.724 288.765 298.057 283.819 298.206L213.247 300.34C208.346 300.488 207.875 308.155 212.821 308.005V308.005Z" fill="#6C63FF"/>
<path d="M197.573 292.092C200.098 294.55 200.877 297.846 199.312 299.453C197.747 301.06 194.432 300.37 191.906 297.91C190.883 296.941 190.107 295.742 189.643 294.412L179.074 283.859L183.258 279.69L194.014 289.923C195.357 290.351 196.577 291.095 197.573 292.092Z" fill="#FFB6B6"/>
<path d="M172.514 265.518L161.772 230.19C161.772 230.19 156.282 228.28 153.895 233.054C151.508 237.828 154.51 256.089 154.51 256.089L167.024 276.737L187.075 292.014L192.087 286.524L172.514 265.518V265.518Z" fill="#6C63FF"/>
</g>
<path d="M1688.98 184.359L1680.64 168.87L1669.02 178.104L1673.49 189.721L1688.98 184.359Z" fill="#FFB6B6"/>
<path opacity="0.1" d="M1688.98 184.359L1680.64 168.87L1669.02 178.104L1673.49 189.721L1688.98 184.359Z" fill="black"/>
<path d="M1669.05 178.582C1676.71 178.582 1682.92 172.37 1682.92 164.707C1682.92 157.045 1676.71 150.833 1669.05 150.833C1661.39 150.833 1655.18 157.045 1655.18 164.707C1655.18 172.37 1661.39 178.582 1669.05 178.582Z" fill="#FFB6B6"/>
<path d="M1642.54 171.934C1641.44 167.973 1638.5 165.333 1635.98 166.036C1633.46 166.739 1632.31 170.52 1633.42 174.482C1633.84 176.07 1634.63 177.535 1635.73 178.754L1640.63 195.477L1648.42 193.014L1642.77 176.79C1643.09 175.176 1643.01 173.511 1642.54 171.934V171.934Z" fill="#FFB6B6"/>
<path d="M1682.06 182.192L1656.8 201.103L1644.1 181.279L1635.71 181.139C1635.71 181.139 1636.84 214.095 1648.55 216.879C1660.25 219.664 1692.39 204.047 1693.5 194.362C1694.61 184.678 1682.06 182.192 1682.06 182.192V182.192Z" fill="#E6E6E6"/>
<path d="M1638.25 256.976L1631.63 275.623L1636.26 382.6L1648.06 383.443L1656.9 304.267L1658.17 386.392L1671.23 387.234L1680.82 262.801C1680.82 262.801 1683.8 253.957 1674.53 249.745C1665.26 245.533 1638.25 256.976 1638.25 256.976V256.976Z" fill="#2F2E41"/>
<path d="M1636.3 255.895L1682.13 260.314C1682.13 260.314 1680.64 242.144 1693.15 223.081C1705.66 204.018 1688.38 181.083 1688.38 181.083L1671.4 179.891L1652.93 188.231L1649.87 223.149L1636.3 255.895V255.895Z" fill="#E6E6E6"/>
<path d="M1683.32 176.317C1683.32 176.317 1691.66 160.828 1685.7 154.275C1679.74 147.722 1675.87 141.467 1668.72 145.041C1661.57 148.616 1645.79 158.445 1651.74 160.828C1657.7 163.211 1663.06 162.615 1663.06 162.615C1663.06 162.615 1662.12 167.067 1665.27 168.713C1668.42 170.36 1670.51 173.04 1670.51 173.04C1670.51 173.04 1674.08 168.87 1675.87 171.253C1677.66 173.636 1683.32 176.317 1683.32 176.317V176.317Z" fill="#2F2E41"/>
<path d="M1642.51 178.997L1625.23 189.125C1625.23 189.125 1621.51 196.128 1631.57 200.818L1649.96 188.231L1654.95 192.63L1661.57 188.529L1656.81 173.636L1651.45 169.466L1646.68 170.062L1643.11 167.679L1635.96 175.423L1642.51 178.997V178.997Z" fill="#2F2E41"/>
<path d="M1646.97 183.021C1645.87 179.06 1642.93 176.419 1640.41 177.123C1637.89 177.826 1636.74 181.606 1637.85 185.568C1638.27 187.157 1639.06 188.622 1640.16 189.841L1645.05 206.563L1652.85 204.101L1647.2 187.877C1647.51 186.263 1647.44 184.598 1646.97 183.021V183.021Z" fill="#FFB6B6"/>
<path d="M1686.49 193.279L1661.23 212.189L1648.53 192.366L1640.14 192.225C1640.14 192.225 1641.27 225.181 1652.97 227.966C1664.68 230.75 1696.82 215.133 1697.93 205.449C1699.04 195.764 1686.49 193.279 1686.49 193.279V193.279Z" fill="#E6E6E6"/>
</g>
<defs>
<clipPath id="clip0_264_984">
<rect width="1920" height="350" fill="white"/>
</clipPath>
<clipPath id="clip1_264_984">
<rect width="407" height="229.406" fill="white" transform="translate(101 130)"/>
</clipPath>
</defs>
</svg>
