<svg width="1200" height="350" viewBox="0 0 1200 350" fill="none" xmlns="http://www.w3.org/2000/svg">
<g clip-path="url(#clip0_264_984)">
<rect width="1200" height="350" fill="#FAFAFA"/>
<g clip-path="url(#clip1_264_984)">
<path d="M152.082 208.792L154.562 199.7L143.404 195.568L142.165 203.833L152.082 208.792Z" fill="#A0616A"/>
<path opacity="0.1" d="M152.082 209.233L154.562 200.142L147.991 197.37L150.032 208.088L152.082 209.233Z" fill="black"/>
<path d="M207.935 256.978C209.267 254.886 207.684 251.493 204.397 249.399C202.959 248.482 201.433 247.966 200.059 247.852L198.154 246.671L172.995 229.632C172.995 229.632 155.947 210.197 152.23 208.681C148.513 207.166 145.427 209.519 145.427 209.519L143.758 213.724L170.49 239.948L193.239 251.984L196.336 253.693C197.02 254.89 198.133 256.055 199.571 256.972C202.857 259.067 206.602 259.069 207.935 256.978L207.935 256.978Z" fill="#A0616A"/>
<path d="M143.084 199.496C143.084 199.496 138.797 201.451 137.79 206.054C136.782 210.657 169.228 240.468 169.228 240.468L180.346 234.364L143.084 199.496V199.496Z" fill="#E6E6E6"/>
<path d="M163.033 190.017C163.033 196.408 157.853 201.588 151.463 201.588C145.072 201.588 139.892 196.408 139.892 190.017C139.892 183.627 145.072 178.447 151.463 178.447C157.853 178.447 163.033 183.627 163.033 190.017V190.017Z" fill="#A0616A"/>
<path d="M157.248 242.5L158.281 259.236L132.66 254.691L134.313 244.359L157.248 242.5Z" fill="#A0616A"/>
<path d="M158.488 259.443L132.66 250.971C132.66 250.971 123.155 269.981 133.486 281.965C143.817 293.949 178.117 362.135 178.117 362.135L188.448 357.176L173.571 313.785L157.041 273.7L158.488 259.443V259.443Z" fill="#2F2E41"/>
<path d="M129.16 272.988L137.707 316.669L132.409 355.647L144.745 356.952L155.08 308.954L151.355 277.148L129.16 272.988Z" fill="#2F2E41"/>
<path d="M147.95 192.29L151.669 191.877L158.488 185.058C158.488 185.058 164.686 188.364 164.686 185.885C164.686 174.314 157.661 174.727 151.876 173.901C146.09 173.074 146.71 172.868 144.851 175.967C144 177.384 140.925 178.24 140.925 178.24C140.925 178.24 135.139 170.388 132.247 179.893C129.354 189.398 133.073 218.738 130.18 221.218C127.288 223.697 142.058 226.173 140.458 216.463C138.859 206.754 135.966 191.877 137.619 188.571C139.272 185.265 139.685 186.092 139.685 186.092C137.637 185.255 136.298 199.987 144.022 200.709L144.231 193.53C144.231 193.53 145.47 189.811 147.95 192.29H147.95Z" fill="#2F2E41"/>
<path d="M153.116 206.547L140.718 201.588L124.188 251.178L158.198 249.939L161.261 235.138C161.261 235.138 164.251 227.435 161.771 222.889C159.292 218.343 153.116 206.547 153.116 206.547V206.547Z" fill="#E6E6E6"/>
<path d="M120.855 289.616C123.326 289.828 125.599 286.853 125.933 282.97C126.079 281.271 125.829 279.679 125.295 278.409L125.458 276.173L128.902 245.983C128.902 245.983 135.312 221.288 134.933 217.292C134.553 213.295 133.955 212.234 133.955 212.234L129.454 212.703L118.599 248.543L118.472 274.279L118.393 277.816C117.649 278.977 117.132 280.502 116.986 282.202C116.652 286.084 118.385 289.404 120.855 289.616V289.616Z" fill="#A0616A"/>
<path d="M141.751 205.514C141.751 205.514 138.032 202.621 133.486 203.861C128.941 205.101 117.553 247.665 117.553 247.665L128.114 254.69L141.751 205.514V205.514Z" fill="#E6E6E6"/>
<path d="M74.0289 306.9C74.0289 308.534 70.06 276.083 70.06 276.083L41.1811 279.583C35.9678 280.215 32.3823 285.133 33.3752 290.29L38.776 318.339C39.241 318.903 39.9569 319.435 40.8772 319.934V383.475H44.8461V321.514C48.0403 322.486 52.1649 323.24 56.7526 323.729V383.475H60.7215V324.078C67.4333 324.546 74.7849 324.467 81.4997 323.71V383.475H85.4685V323.168C86.67 322.974 87.8404 322.755 88.9705 322.511V383.475H92.9393V321.491C95.0979 320.835 97.0319 320.061 98.6591 319.157C113.367 310.985 74.0289 305.266 74.0289 306.9H74.0289Z" fill="#E6E6E6"/>
<path d="M85.5173 352.626L81.9799 358.569L80.2551 365.974L74.2142 366.787L72.418 354.028L75.1773 351.645L78.0006 351.41L82.0604 349.418L85.5173 352.626Z" fill="#FFB6B6"/>
<path d="M70.1767 241.414L69.4763 255.655L80.6825 255.888V243.637L70.1767 241.414Z" fill="#FFB6B6"/>
<path opacity="0.1" d="M70.1767 241.414L69.4763 255.655L80.6825 255.888V243.637L70.1767 241.414Z" fill="black"/>
<path d="M51.2663 300.246C51.2663 300.246 46.1301 313.553 49.8655 318.923C53.6009 324.293 71.1106 327.328 71.1106 327.328L78.3479 334.098L97.4918 370.985L108.698 368.417L92.8226 330.596C92.8226 330.596 83.4841 315.421 79.9822 313.32C76.4802 311.219 69.9594 303.33 69.9594 303.33L51.2663 300.246H51.2663Z" fill="#2F2E41"/>
<path d="M83.0171 301.414L90.2087 306.507C90.2087 306.507 115.702 313.32 107.531 329.196C99.3595 345.071 87.2194 356.511 87.2194 356.511L76.4801 350.441L93.7564 326.161L63.4062 307.717L83.0171 301.414V301.414Z" fill="#2F2E41"/>
<path d="M148.384 282.054C151.764 282.734 154.152 285.029 153.719 287.18C153.286 289.331 150.196 290.522 146.815 289.842C145.461 289.588 144.187 289.014 143.1 288.168L128.818 285.106L130.043 279.461L144.31 282.161C145.64 281.8 147.037 281.764 148.384 282.054V282.054Z" fill="#FFB6B6"/>
<path d="M80.0988 250.635H65.5708L54.8849 257.873L55.8187 286.355C55.8187 286.355 57.7713 293.508 51.1495 300.13C47.1806 304.098 48.5814 306.433 48.5814 306.433L72.1611 308.301L86.2856 304.215L81.1494 291.375L82.0833 287.406C82.0833 287.406 91.6552 280.635 90.021 273.632C88.3867 266.628 86.2856 252.153 86.2856 252.153L80.0988 250.635V250.635Z" fill="#6C63FF"/>
<path d="M114.279 274.722L86.0975 252.137C86.0975 252.137 80.6112 253.628 81.3209 258.8C82.0307 263.972 94.5393 277.053 94.5393 277.053L116.043 286.81L140.665 288.068L141.679 280.868L114.279 274.722H114.279Z" fill="#6C63FF"/>
<path d="M76.8303 248.067C82.2457 248.067 86.6357 243.677 86.6357 238.262C86.6357 232.847 82.2457 228.457 76.8303 228.457C71.4149 228.457 67.0249 232.847 67.0249 238.262C67.0249 243.677 71.4149 248.067 76.8303 248.067Z" fill="#FFB6B6"/>
<path d="M74.1455 240.246C74.1455 240.246 78.8147 235.811 80.6824 233.709C82.5501 231.608 90.4879 236.978 88.8536 233.009C87.2194 229.04 84.8848 228.106 84.8848 228.106C84.8848 228.106 80.6824 219.702 72.5113 224.604C72.5113 224.604 72.5113 219.468 65.9743 221.569C59.4374 223.671 56.4023 243.048 58.27 244.916C60.1377 246.783 62.0054 248.184 60.6047 251.686C59.2039 255.188 60.6047 270.83 65.7408 272.931C70.877 275.032 71.8109 276.518 70.4101 279.861C69.0093 283.203 65.5074 290.674 72.0443 288.807C78.5813 286.939 71.5774 289.273 74.379 283.203C77.1805 277.133 83.9509 274.332 78.5813 268.962C73.2116 263.593 73.4451 252.386 72.2778 251.219C71.1105 250.052 68.9117 240.33 68.9117 240.33C68.9117 240.33 72.7447 237.912 74.1455 240.246V240.246Z" fill="#2F2E41"/>
<path d="M188.29 383.096H99.9946C94.1522 383.096 89.3994 378.343 89.3994 372.5V246.662C89.3994 240.819 94.1522 236.066 99.9946 236.066H188.29C194.132 236.066 198.885 240.819 198.885 246.662V372.5C198.885 378.343 194.132 383.096 188.29 383.096V383.096Z" fill="white"/>
<path d="M188.289 384.368H99.9946C93.451 384.368 88.1272 379.044 88.1272 372.5V246.662C88.1272 240.118 93.451 234.794 99.9946 234.794H188.289C194.833 234.794 200.157 240.118 200.157 246.662V372.5C200.157 379.044 194.833 384.368 188.289 384.368V384.368ZM99.9946 235.677C93.9381 235.677 89.0109 240.605 89.0109 246.662V372.5C89.0109 378.557 93.9381 383.484 99.9946 383.484H188.289C194.346 383.484 199.273 378.557 199.273 372.5V246.662C199.273 240.605 194.346 235.677 188.289 235.677H99.9946V235.677Z" fill="#3F3D56"/>
<path d="M109.366 284.038L178.387 281.952C183.181 281.807 183.641 274.308 178.804 274.455L109.782 276.541C104.988 276.686 104.528 284.185 109.366 284.038V284.038Z" fill="#6C63FF"/>
<path d="M109.366 309.067L178.387 306.981C183.181 306.836 183.641 299.337 178.804 299.484L109.782 301.57C104.988 301.715 104.528 309.214 109.366 309.067V309.067Z" fill="#6C63FF"/>
<path d="M109.366 334.096L178.387 332.01C183.181 331.865 183.641 324.366 178.804 324.513L109.782 326.599C104.988 326.744 104.528 334.243 109.366 334.096V334.096Z" fill="#6C63FF"/>
<path d="M94.452 318.532C96.922 320.937 97.6834 324.161 96.1529 325.732C94.6223 327.304 91.3798 326.628 88.9092 324.223C87.9091 323.275 87.1505 322.102 86.6968 320.801L76.3599 310.481L80.4515 306.403L90.9716 316.411C92.2845 316.83 93.4779 317.558 94.452 318.532Z" fill="#FFB6B6"/>
<path d="M69.9432 292.542L59.4374 257.99C59.4374 257.99 54.0678 256.122 51.7332 260.791C49.3986 265.46 52.3352 283.32 52.3352 283.32L64.5736 303.515L84.1845 318.456L89.0872 313.087L69.9432 292.542V292.542Z" fill="#6C63FF"/>
</g>
<path d="M1156.7 218.192L1148.39 202.767L1136.82 211.963L1141.27 223.531L1156.7 218.192Z" fill="#FFB6B6"/>
<path opacity="0.1" d="M1156.7 218.192L1148.39 202.767L1136.82 211.963L1141.27 223.531L1156.7 218.192Z" fill="black"/>
<path d="M1136.85 212.438C1144.49 212.438 1150.67 206.252 1150.67 198.622C1150.67 190.991 1144.49 184.805 1136.85 184.805C1129.22 184.805 1123.04 190.991 1123.04 198.622C1123.04 206.252 1129.22 212.438 1136.85 212.438Z" fill="#FFB6B6"/>
<path d="M1110.46 205.818C1109.36 201.874 1106.43 199.244 1103.92 199.945C1101.41 200.645 1100.27 204.41 1101.37 208.355C1101.79 209.938 1102.58 211.396 1103.68 212.61L1108.55 229.263L1116.31 226.811L1110.69 210.654C1111 209.047 1110.92 207.389 1110.46 205.818V205.818Z" fill="#FFB6B6"/>
<path d="M1149.82 216.034L1124.66 234.866L1112.01 215.125L1103.65 214.985C1103.65 214.985 1104.78 247.804 1116.44 250.577C1128.09 253.35 1160.1 237.798 1161.21 228.153C1162.31 218.509 1149.82 216.034 1149.82 216.034V216.034Z" fill="#E6E6E6"/>
<path d="M1106.18 290.508L1099.59 309.077L1104.2 415.611L1115.95 416.45L1124.76 337.603L1126.02 419.387L1139.02 420.226L1148.57 296.309C1148.57 296.309 1151.54 287.501 1142.31 283.307C1133.08 279.112 1106.18 290.508 1106.18 290.508V290.508Z" fill="#2F2E41"/>
<path d="M1104.24 289.431L1149.88 293.831C1149.88 293.831 1148.39 275.737 1160.85 256.753C1173.31 237.769 1156.11 214.929 1156.11 214.929L1139.2 213.742L1120.81 222.048L1117.75 256.82L1104.24 289.431V289.431Z" fill="#E6E6E6"/>
<path d="M1151.06 210.183C1151.06 210.183 1159.37 194.758 1153.44 188.232C1147.5 181.707 1143.65 175.478 1136.53 179.037C1129.41 182.597 1113.69 192.385 1119.62 194.758C1125.55 197.131 1130.89 196.538 1130.89 196.538C1130.89 196.538 1129.96 200.971 1133.09 202.611C1136.23 204.25 1138.31 206.92 1138.31 206.92C1138.31 206.92 1141.87 202.767 1143.65 205.14C1145.43 207.513 1151.06 210.183 1151.06 210.183V210.183Z" fill="#2F2E41"/>
<path d="M1110.42 212.852L1093.22 222.938C1093.22 222.938 1089.52 229.912 1099.53 234.582L1117.84 222.048L1122.81 226.428L1129.41 222.344L1124.66 207.513L1119.32 203.36L1114.58 203.954L1111.02 201.581L1103.9 209.293L1110.42 212.852V212.852Z" fill="#2F2E41"/>
<path d="M1114.87 216.859C1113.77 212.915 1110.84 210.285 1108.33 210.986C1105.82 211.686 1104.68 215.451 1105.78 219.396C1106.2 220.978 1106.99 222.437 1108.09 223.651L1112.96 240.304L1120.72 237.852L1115.1 221.695C1115.41 220.088 1115.33 218.43 1114.87 216.859V216.859Z" fill="#FFB6B6"/>
<path d="M1154.23 227.075L1129.07 245.907L1116.42 226.165L1108.06 226.025C1108.06 226.025 1109.19 258.845 1120.85 261.618C1132.5 264.39 1164.51 248.838 1165.62 239.194C1166.72 229.55 1154.23 227.075 1154.23 227.075V227.075Z" fill="#E6E6E6"/>
</g>
<defs>
<clipPath id="clip0_264_984">
<rect width="1200" height="350" fill="white"/>
</clipPath>
<clipPath id="clip1_264_984">
<rect width="398.063" height="224.368" fill="white" transform="translate(0 160)"/>
</clipPath>
</defs>
</svg>
