<svg width="1200" height="350" viewBox="0 0 1200 350" fill="none" xmlns="http://www.w3.org/2000/svg">
<g clip-path="url(#clip0_264_983)">
<rect width="1200" height="350" fill="#FAFAFA"/>
<path d="M280.657 287.289C311.907 321.834 221.317 371.618 148.118 371.618C74.919 371.618 24.2767 333.044 15.5794 287.289C-5.50846 176.347 195.253 105.833 148.118 202.959C79.4131 344.531 256.046 260.084 280.657 287.289Z" fill="#E6E6E6"/>
<path d="M266.635 295.465C297.886 330.01 207.296 379.795 134.097 379.795C60.8976 379.795 10.2553 341.22 1.55805 295.465C-19.5298 184.523 181.232 114.009 134.097 211.135C65.3917 352.707 242.025 268.26 266.635 295.465Z" fill="#3F3D56"/>
<path d="M43.6986 214.471C21.7702 213.506 4.76795 208.778 4.99131 203.707C5.12523 200.667 11.3312 198.223 22.0178 197C22.056 196.996 22.0948 196.999 22.1319 197.009C22.169 197.02 22.2037 197.037 22.2339 197.061C22.2642 197.085 22.2894 197.115 22.3081 197.148C22.3269 197.182 22.3388 197.219 22.3432 197.257C22.3475 197.295 22.3443 197.334 22.3336 197.371C22.323 197.408 22.3051 197.443 22.281 197.473C22.2569 197.503 22.2272 197.528 22.1934 197.546C22.1596 197.565 22.1225 197.576 22.0842 197.581C12.0174 198.732 5.69143 201.089 5.57497 203.733C5.37298 208.319 22.8432 212.969 43.7243 213.888C64.6054 214.807 82.4169 211.709 82.6189 207.124C82.7359 204.469 76.6022 201.557 66.6116 199.524C66.5739 199.516 66.5381 199.501 66.5062 199.48C66.4743 199.458 66.4469 199.431 66.4257 199.399C66.4044 199.367 66.3897 199.331 66.3823 199.293C66.375 199.256 66.3751 199.217 66.3828 199.179C66.3905 199.142 66.4055 199.106 66.427 199.074C66.4485 199.042 66.4761 199.015 66.5082 198.994C66.5403 198.973 66.5763 198.958 66.614 198.951C66.6517 198.943 66.6906 198.944 66.7282 198.951C77.3323 201.109 83.337 204.098 83.2026 207.15C82.9792 212.22 65.627 215.437 43.6986 214.471Z" fill="#6C63FF"/>
<path d="M24.2231 215.321C26.0576 218.805 28.775 221.745 32.1035 223.849C35.4321 225.953 39.255 227.146 43.1897 227.31C47.1245 227.473 51.0332 226.6 54.5247 224.779C58.0162 222.959 60.9681 220.253 63.085 216.934C50.1113 217.108 37.1378 216.57 24.2231 215.321V215.321Z" fill="#6C63FF"/>
<path d="M65.5109 210.791C66.6149 207.481 66.933 203.96 66.44 200.505C65.9471 197.051 64.6566 193.759 62.6707 190.89C60.6847 188.02 58.0579 185.652 54.9981 183.973C51.9383 182.294 48.5294 181.349 45.0414 181.215C41.5533 181.08 38.0818 181.759 34.9015 183.197C31.7212 184.636 28.9195 186.794 26.7181 189.502C24.5167 192.21 22.9761 195.393 22.2181 198.798C21.4601 202.204 21.5056 205.74 22.3509 209.125C36.605 211.544 51.1127 212.104 65.5109 210.791V210.791Z" fill="#6C63FF"/>
<path d="M49.319 195.719C50.771 195.719 51.948 194.542 51.948 193.091C51.948 191.64 50.771 190.463 49.319 190.463C47.867 190.463 46.6899 191.64 46.6899 193.091C46.6899 194.542 47.867 195.719 49.319 195.719Z" fill="white"/>
<path d="M35.788 205.935C38.208 205.935 40.1697 203.974 40.1697 201.555C40.1697 199.136 38.208 197.176 35.788 197.176C33.368 197.176 31.4062 199.136 31.4062 201.555C31.4062 203.974 33.368 205.935 35.788 205.935Z" fill="white"/>
<path d="M101.921 201.646C103.534 201.646 104.842 200.338 104.842 198.726C104.842 197.113 103.534 195.806 101.921 195.806C100.308 195.806 98.9998 197.113 98.9998 198.726C98.9998 200.338 100.308 201.646 101.921 201.646Z" fill="#6C63FF"/>
<path d="M35.9025 290.995C36.8705 290.995 37.6552 290.211 37.6552 289.243C37.6552 288.276 36.8705 287.491 35.9025 287.491C34.9345 287.491 34.1498 288.276 34.1498 289.243C34.1498 290.211 34.9345 290.995 35.9025 290.995Z" fill="#E6E6E6"/>
<path d="M158.591 351.146C159.559 351.146 160.344 350.361 160.344 349.394C160.344 348.426 159.559 347.642 158.591 347.642C157.623 347.642 156.838 348.426 156.838 349.394C156.838 350.361 157.623 351.146 158.591 351.146Z" fill="#E6E6E6"/>
<path d="M44.3738 257.123C44.8578 257.123 45.2502 256.731 45.2502 256.247C45.2502 255.764 44.8578 255.371 44.3738 255.371C43.8898 255.371 43.4974 255.764 43.4974 256.247C43.4974 256.731 43.8898 257.123 44.3738 257.123Z" fill="#E6E6E6"/>
<path d="M116.818 322.53C117.302 322.53 117.695 322.138 117.695 321.654C117.695 321.17 117.302 320.778 116.818 320.778C116.334 320.778 115.942 321.17 115.942 321.654C115.942 322.138 116.334 322.53 116.818 322.53Z" fill="#E6E6E6"/>
<path d="M248.563 314.062C249.047 314.062 249.439 313.67 249.439 313.186C249.439 312.702 249.047 312.31 248.563 312.31C248.079 312.31 247.686 312.702 247.686 313.186C247.686 313.67 248.079 314.062 248.563 314.062Z" fill="#E6E6E6"/>
<path d="M207.374 340.05C207.858 340.05 208.251 339.657 208.251 339.174C208.251 338.69 207.858 338.298 207.374 338.298C206.89 338.298 206.498 338.69 206.498 339.174C206.498 339.657 206.89 340.05 207.374 340.05Z" fill="#E6E6E6"/>
<path d="M164.433 308.515C164.917 308.515 165.31 308.122 165.31 307.639C165.31 307.155 164.917 306.763 164.433 306.763C163.949 306.763 163.557 307.155 163.557 307.639C163.557 308.122 163.949 308.515 164.433 308.515Z" fill="#E6E6E6"/>
<path d="M108.931 222.085C109.415 222.085 109.808 221.692 109.808 221.209C109.808 220.725 109.415 220.333 108.931 220.333C108.447 220.333 108.055 220.725 108.055 221.209C108.055 221.692 108.447 222.085 108.931 222.085Z" fill="#E6E6E6"/>
<path d="M115.942 178.87C116.426 178.87 116.818 178.478 116.818 177.994C116.818 177.511 116.426 177.118 115.942 177.118C115.458 177.118 115.066 177.511 115.066 177.994C115.066 178.478 115.458 178.87 115.942 178.87Z" fill="#E6E6E6"/>
<path d="M68.6195 342.386C69.1035 342.386 69.4959 341.994 69.4959 341.51C69.4959 341.026 69.1035 340.634 68.6195 340.634C68.1355 340.634 67.7432 341.026 67.7432 341.51C67.7432 341.994 68.1355 342.386 68.6195 342.386Z" fill="#E6E6E6"/>
<path d="M205.621 310.851C206.105 310.851 206.498 310.458 206.498 309.975C206.498 309.491 206.105 309.099 205.621 309.099C205.137 309.099 204.745 309.491 204.745 309.975C204.745 310.458 205.137 310.851 205.621 310.851Z" fill="#E6E6E6"/>
<path d="M43.3424 225.267C44.7944 225.267 45.9715 224.091 45.9715 222.639C45.9715 221.188 44.7944 220.011 43.3424 220.011C41.8904 220.011 40.7134 221.188 40.7134 222.639C40.7134 224.091 41.8904 225.267 43.3424 225.267Z" fill="white"/>
<path d="M102.797 262.964C102.797 270.812 90.6568 289.102 87.1089 294.279C87.0019 294.435 86.8583 294.563 86.6905 294.652C86.5228 294.74 86.336 294.787 86.1463 294.787C85.9567 294.787 85.7699 294.74 85.6021 294.652C85.4344 294.563 85.2907 294.435 85.1837 294.279C81.6359 289.102 69.4957 270.812 69.4957 262.964C69.4957 260.778 69.9264 258.614 70.7632 256.594C71.5999 254.575 72.8264 252.74 74.3726 251.195C75.9187 249.649 77.7543 248.423 79.7744 247.587C81.7946 246.751 83.9597 246.32 86.1463 246.32C88.3329 246.32 90.4981 246.751 92.5182 247.587C94.5384 248.423 96.3739 249.649 97.9201 251.195C99.4662 252.74 100.693 254.575 101.529 256.594C102.366 258.614 102.797 260.778 102.797 262.964V262.964Z" fill="white"/>
<path d="M86.1463 270.263C90.8249 270.263 94.6176 266.472 94.6176 261.795C94.6176 257.119 90.8249 253.328 86.1463 253.328C81.4677 253.328 77.6749 257.119 77.6749 261.795C77.6749 266.472 81.4677 270.263 86.1463 270.263Z" fill="#6C63FF"/>
<path d="M86.0002 303.843C91.4048 303.843 95.7861 302.993 95.7861 301.945C95.7861 300.897 91.4048 300.047 86.0002 300.047C80.5956 300.047 76.2144 300.897 76.2144 301.945C76.2144 302.993 80.5956 303.843 86.0002 303.843Z" fill="white"/>
<path d="M238.615 249.83C238.541 249.974 238.479 250.123 238.428 250.276L224.47 254.153L221.955 251.693L217.744 255.002L221.773 259.79C222.099 260.177 222.541 260.448 223.033 260.562C223.526 260.676 224.042 260.628 224.505 260.424L239.583 253.771C240.095 254.125 240.702 254.316 241.325 254.318C241.947 254.319 242.556 254.131 243.069 253.778C243.582 253.426 243.976 252.925 244.197 252.343C244.419 251.762 244.458 251.126 244.309 250.522C244.161 249.917 243.832 249.372 243.366 248.959C242.9 248.546 242.32 248.285 241.702 248.21C241.083 248.135 240.457 248.25 239.906 248.539C239.354 248.828 238.904 249.279 238.615 249.83H238.615Z" fill="#FFB8B8"/>
<path d="M223.979 254.38L218.739 258.456C218.59 258.572 218.418 258.655 218.234 258.698C218.05 258.742 217.859 258.745 217.674 258.708C217.489 258.671 217.314 258.594 217.161 258.484C217.008 258.373 216.881 258.23 216.788 258.066L213.532 252.306C212.942 251.54 212.68 250.572 212.804 249.614C212.928 248.655 213.426 247.785 214.191 247.194C214.955 246.603 215.923 246.339 216.882 246.46C217.841 246.581 218.713 247.077 219.306 247.84L224.079 252.393C224.216 252.524 224.323 252.682 224.392 252.857C224.462 253.033 224.494 253.221 224.484 253.41C224.475 253.598 224.424 253.783 224.337 253.95C224.25 254.118 224.128 254.264 223.979 254.38V254.38Z" fill="#6C63FF"/>
<path d="M239.954 247.902L245.267 250.291C245.49 250.391 245.663 250.575 245.75 250.803C245.837 251.031 245.829 251.285 245.729 251.507L245.1 252.904C245.174 252.938 245.231 252.999 245.26 253.075C245.289 253.151 245.287 253.236 245.254 253.31L245.002 253.869C244.968 253.943 244.907 254 244.831 254.029C244.755 254.058 244.671 254.056 244.597 254.023L244.345 254.582C244.419 254.615 244.477 254.677 244.505 254.753C244.534 254.828 244.532 254.913 244.499 254.987L244.247 255.546C244.214 255.62 244.152 255.678 244.076 255.706C244 255.735 243.916 255.733 243.842 255.7L240.445 263.247C240.345 263.469 240.16 263.642 239.932 263.729C239.704 263.815 239.451 263.808 239.229 263.708L233.916 261.318C233.693 261.218 233.519 261.034 233.433 260.806C233.346 260.578 233.354 260.325 233.454 260.103L238.738 248.363C238.838 248.141 239.022 247.967 239.251 247.881C239.479 247.794 239.732 247.802 239.954 247.902V247.902Z" fill="#3F3D56"/>
<path d="M234.88 260.575L239.142 262.494C239.356 262.589 239.598 262.597 239.817 262.514C240.036 262.431 240.213 262.265 240.31 262.053L242.279 257.676L242.963 256.159L244.744 252.199C244.839 251.986 244.846 251.744 244.764 251.525C244.681 251.307 244.515 251.13 244.303 251.034L242.963 250.43L240.037 249.115C239.824 249.02 239.581 249.013 239.363 249.097C239.144 249.18 238.968 249.346 238.872 249.56L237.149 253.388L235.187 257.746L234.438 259.411C234.343 259.624 234.336 259.866 234.418 260.084C234.501 260.302 234.667 260.479 234.88 260.575V260.575Z" fill="#F2F2F2"/>
<path d="M225.974 314.806L229.555 314.805L231.259 300.998L225.973 300.998L225.974 314.806Z" fill="#FFB8B8"/>
<path d="M225.061 313.637L232.114 313.636H232.114C232.704 313.636 233.289 313.753 233.834 313.978C234.379 314.204 234.875 314.535 235.292 314.952C235.709 315.369 236.041 315.865 236.266 316.41C236.492 316.955 236.609 317.539 236.608 318.129V318.275L225.061 318.276L225.061 313.637Z" fill="#2F2E41"/>
<path d="M235.322 313.929L238.903 313.929L240.607 300.121L235.321 300.122L235.322 313.929Z" fill="#FFB8B8"/>
<path d="M234.409 312.761L241.461 312.76H241.462C242.052 312.76 242.636 312.876 243.182 313.102C243.727 313.328 244.222 313.659 244.64 314.076C245.057 314.493 245.388 314.989 245.614 315.534C245.84 316.079 245.956 316.663 245.956 317.253V317.399L234.409 317.399L234.409 312.761Z" fill="#2F2E41"/>
<path d="M209.91 282.404C210.673 284.665 212.12 286.633 214.052 288.036C215.983 289.438 218.302 290.206 220.689 290.233L220.87 290.236C222.719 290.288 224.89 289.693 227.019 288.837C231.226 287.146 235.266 284.44 236.338 283.695L234.521 301.153L233.785 308.231C233.766 308.414 233.786 308.599 233.843 308.774C233.901 308.949 233.994 309.11 234.117 309.247C234.24 309.384 234.391 309.493 234.559 309.568C234.727 309.643 234.909 309.682 235.093 309.682H239.63C239.921 309.683 240.204 309.586 240.434 309.409C240.664 309.231 240.829 308.983 240.903 308.701L248.393 280.188C248.618 279.335 248.636 278.44 248.446 277.578C248.256 276.717 247.864 275.912 247.301 275.232C246.738 274.552 246.022 274.016 245.21 273.668C244.399 273.32 243.517 273.17 242.636 273.23L227.078 274.296L228.164 269.951L214.277 269.028L214.236 269.058C213.903 269.3 213.579 269.554 213.269 269.82C212.495 270.474 211.809 271.226 211.227 272.056C210.187 273.546 209.524 275.266 209.295 277.068C209.065 278.871 209.276 280.702 209.91 282.404Z" fill="#2F2E41"/>
<path d="M209.91 282.405C210.673 284.665 212.12 286.633 214.052 288.036C215.983 289.438 218.302 290.206 220.689 290.233C222.972 289.078 225.174 287.772 227.282 286.323L227.019 288.837L224.729 310.859C224.71 311.042 224.73 311.227 224.788 311.402C224.845 311.577 224.938 311.738 225.062 311.875C225.185 312.012 225.335 312.121 225.504 312.196C225.672 312.271 225.854 312.31 226.038 312.31H230.574C230.865 312.311 231.148 312.214 231.378 312.037C231.609 311.859 231.774 311.611 231.848 311.329L234.521 301.153L239.338 282.816C239.562 281.963 239.58 281.068 239.39 280.206C239.201 279.345 238.808 278.54 238.245 277.86C237.683 277.18 236.966 276.644 236.155 276.296C235.343 275.948 234.461 275.798 233.58 275.858L218.022 276.924L219.109 272.579L211.227 272.056C210.187 273.546 209.524 275.266 209.295 277.068C209.065 278.871 209.276 280.702 209.91 282.405V282.405Z" fill="#2F2E41"/>
<path d="M213.25 270.827L213.145 270.814L210.722 258.906C210.701 258.802 208.72 248.53 214.793 243.16L214.899 242.425C214.926 242.237 214.994 242.057 215.097 241.898C215.2 241.738 215.337 241.603 215.498 241.501C215.658 241.4 215.839 241.334 216.028 241.309C216.216 241.285 216.408 241.301 216.589 241.357L222.31 243.131C222.634 243.231 222.907 243.452 223.071 243.748C223.236 244.044 223.279 244.392 223.192 244.72L222.636 246.834C223.407 247.74 232.485 258.664 229.323 267.08L227.907 272.613L213.25 270.827Z" fill="#6C63FF"/>
<path d="M237.004 261.532C236.868 261.618 236.738 261.715 236.616 261.821L222.625 258.067L221.71 254.67L216.401 255.38L217.435 261.551C217.519 262.049 217.762 262.507 218.128 262.856C218.494 263.205 218.964 263.425 219.466 263.485L235.834 265.417C236.094 265.983 236.52 266.456 237.055 266.773C237.591 267.091 238.21 267.238 238.832 267.195C239.453 267.152 240.046 266.921 240.533 266.533C241.02 266.145 241.376 265.617 241.556 265.021C241.736 264.425 241.729 263.789 241.538 263.197C241.347 262.604 240.98 262.084 240.486 261.705C239.992 261.326 239.394 261.107 238.772 261.076C238.15 261.045 237.534 261.204 237.005 261.532H237.004Z" fill="#FFB8B8"/>
<path d="M222.086 258.013L215.501 258.86C215.314 258.885 215.123 258.868 214.943 258.812C214.762 258.756 214.596 258.662 214.456 258.536C214.315 258.41 214.203 258.255 214.128 258.082C214.052 257.909 214.015 257.721 214.019 257.532L214.144 250.917C214.026 249.959 214.293 248.992 214.887 248.23C215.481 247.467 216.353 246.972 217.312 246.851C218.271 246.73 219.238 246.995 220.003 247.586C220.767 248.178 221.265 249.048 221.388 250.006L223.183 256.353C223.234 256.534 223.246 256.725 223.216 256.911C223.187 257.098 223.119 257.276 223.014 257.434C222.91 257.591 222.773 257.725 222.613 257.824C222.453 257.924 222.273 257.989 222.086 258.013V258.013Z" fill="#6C63FF"/>
<path d="M220.232 239.741C224.195 239.741 227.407 236.53 227.407 232.569C227.407 228.609 224.195 225.398 220.232 225.398C216.27 225.398 213.058 228.609 213.058 232.569C213.058 236.53 216.27 239.741 220.232 239.741Z" fill="#FFB8B8"/>
<path d="M219.855 233.168L218.956 231.533C217.255 238.462 220.26 244.197 220.26 244.197L208.595 238.766L208.706 236.839L207.552 238.148L205.894 237.235L205.675 235.985L204.423 236.295L208.992 228.006C213.427 220.118 219.875 223.129 219.875 223.129C230.133 222.642 228.88 232.758 228.88 232.758L219.855 233.168Z" fill="#2F2E41"/>
<path d="M138.182 286.612C139.837 285.552 137.825 279.465 133.689 273.016C129.553 266.567 124.86 262.199 123.206 263.259C121.551 264.319 123.563 270.406 127.699 276.855C131.835 283.303 136.528 287.672 138.182 286.612Z" fill="#3F3D56"/>
<path d="M160.502 272.846C166.162 272.846 170.751 268.259 170.751 262.601C170.751 256.943 166.162 252.357 160.502 252.357C154.842 252.357 150.253 256.943 150.253 262.601C150.253 268.259 154.842 272.846 160.502 272.846Z" fill="#E6E6E6"/>
<path d="M185.62 275.766L174.91 265.06C175.731 263.784 176.287 262.356 176.546 260.861C176.805 259.365 176.76 257.833 176.416 256.356C176.071 254.878 175.434 253.484 174.541 252.257C173.647 251.03 172.517 249.995 171.216 249.212C168.767 247.75 165.857 247.26 163.064 247.84C160.27 248.42 157.797 250.027 156.133 252.344C154.601 254.49 153.866 257.102 154.053 259.731C154.24 262.361 155.337 264.843 157.156 266.751C158.975 268.659 161.403 269.874 164.021 270.187C166.639 270.5 169.285 269.891 171.503 268.466L182.213 279.172C182.665 279.623 183.278 279.876 183.916 279.876C184.555 279.876 185.168 279.622 185.619 279.171C186.071 278.719 186.325 278.107 186.325 277.469C186.325 276.83 186.071 276.218 185.62 275.766V275.766ZM171.103 264.661C169.776 265.987 168.03 266.813 166.162 266.997C164.294 267.181 162.42 266.712 160.86 265.669C159.299 264.627 158.149 263.076 157.604 261.281C157.059 259.486 157.154 257.557 157.872 255.824C158.59 254.091 159.887 252.66 161.543 251.776C163.198 250.892 165.109 250.608 166.949 250.974C168.79 251.34 170.447 252.333 171.637 253.783C172.828 255.233 173.479 257.051 173.479 258.927C173.48 259.992 173.271 261.047 172.863 262.031C172.456 263.015 171.857 263.909 171.103 264.661V264.661Z" fill="#3F3D56"/>
</g>
<defs>
<clipPath id="clip0_264_983">
<rect width="1200" height="350" fill="white"/>
</clipPath>
</defs>
</svg>
