<svg width="1920" height="350" viewBox="0 0 1920 350" fill="none" xmlns="http://www.w3.org/2000/svg">
<g clip-path="url(#clip0_264_983)">
<rect width="1920" height="350" fill="#FAFAFA"/>
<path d="M354.093 273.949C397.975 322.457 270.769 392.363 167.985 392.363C65.2 392.363 -5.91096 338.198 -18.1235 273.949C-47.7347 118.167 234.171 19.1525 167.985 155.535C71.5106 354.327 319.535 235.748 354.093 273.949Z" fill="#E6E6E6"/>
<path d="M334.404 285.429C378.286 333.937 251.081 403.843 148.296 403.843C45.5113 403.843 -25.5997 349.678 -37.8122 285.429C-67.4234 129.647 214.482 30.6327 148.296 167.015C51.8218 365.807 299.847 247.228 334.404 285.429Z" fill="#3F3D56"/>
<path d="M21.361 171.7C-9.43045 170.345 -33.3047 163.706 -32.9911 156.586C-32.803 152.317 -24.0888 148.884 -9.08282 147.168C-9.02911 147.161 -8.97465 147.165 -8.92257 147.18C-8.87049 147.195 -8.82182 147.219 -8.77935 147.253C-8.73689 147.286 -8.70147 147.328 -8.67514 147.375C-8.64882 147.423 -8.6321 147.474 -8.62595 147.528C-8.61981 147.582 -8.62435 147.636 -8.63932 147.688C-8.6543 147.74 -8.67941 147.789 -8.71321 147.831C-8.74701 147.873 -8.78883 147.908 -8.83627 147.934C-8.8837 147.96 -8.93581 147.977 -8.9896 147.982C-23.1252 149.599 -32.008 152.909 -32.1715 156.622C-32.4552 163.061 -7.92381 169.591 21.397 170.881C50.7179 172.172 75.7285 167.822 76.0121 161.383C76.1763 157.655 67.5636 153.566 53.535 150.711C53.482 150.7 53.4317 150.679 53.3869 150.649C53.3421 150.619 53.3037 150.581 53.2739 150.536C53.244 150.491 53.2233 150.44 53.213 150.387C53.2027 150.335 53.2029 150.28 53.2137 150.227C53.2244 150.174 53.2455 150.124 53.2758 150.079C53.306 150.035 53.3447 149.996 53.3898 149.967C53.4348 149.937 53.4853 149.916 53.5383 149.906C53.5913 149.896 53.6458 149.897 53.6987 149.907C68.5888 152.938 77.0204 157.133 76.8317 161.419C76.518 168.539 52.1524 173.055 21.361 171.7Z" fill="#6C63FF"/>
<path d="M-5.98657 172.893C-3.41069 177.784 0.405071 181.914 5.07892 184.868C9.75278 187.822 15.1208 189.498 20.646 189.727C26.1711 189.956 31.6596 188.731 36.5623 186.174C41.465 183.617 45.61 179.818 48.5825 175.157C30.365 175.402 12.1479 174.647 -5.98657 172.893V172.893Z" fill="#6C63FF"/>
<path d="M51.9891 166.532C53.5394 161.884 53.986 156.94 53.2938 152.089C52.6016 147.239 50.7895 142.616 48.0009 138.587C45.2123 134.558 41.5238 131.232 37.2272 128.875C32.9307 126.517 28.1441 125.191 23.2462 125.002C18.3483 124.812 13.4737 125.766 9.00798 127.785C4.54231 129.805 0.608223 132.836 -2.48293 136.638C-5.57408 140.44 -7.73745 144.91 -8.80181 149.692C-9.86616 154.475 -9.8023 159.439 -8.61527 164.193C11.4 167.589 31.7715 168.376 51.9891 166.532V166.532Z" fill="#6C63FF"/>
<path d="M29.2527 145.368C31.2915 145.368 32.9443 143.716 32.9443 141.678C32.9443 139.64 31.2915 137.988 29.2527 137.988C27.2138 137.988 25.561 139.64 25.561 141.678C25.561 143.716 27.2138 145.368 29.2527 145.368Z" fill="white"/>
<path d="M10.2528 159.714C13.6509 159.714 16.4056 156.96 16.4056 153.564C16.4056 150.167 13.6509 147.414 10.2528 147.414C6.85478 147.414 4.1001 150.167 4.1001 153.564C4.1001 156.96 6.85478 159.714 10.2528 159.714Z" fill="white"/>
<path d="M103.115 153.69C105.38 153.69 107.217 151.854 107.217 149.59C107.217 147.326 105.38 145.49 103.115 145.49C100.85 145.49 99.0133 147.326 99.0133 149.59C99.0133 151.854 100.85 153.69 103.115 153.69Z" fill="#6C63FF"/>
<path d="M10.4135 279.153C11.7728 279.153 12.8747 278.052 12.8747 276.693C12.8747 275.335 11.7728 274.233 10.4135 274.233C9.05428 274.233 7.95239 275.335 7.95239 276.693C7.95239 278.052 9.05428 279.153 10.4135 279.153Z" fill="#E6E6E6"/>
<path d="M22.3089 231.591C22.9886 231.591 23.5395 231.041 23.5395 230.361C23.5395 229.682 22.9886 229.131 22.3089 229.131C21.6293 229.131 21.0784 229.682 21.0784 230.361C21.0784 231.041 21.6293 231.591 22.3089 231.591Z" fill="#E6E6E6"/>
<path d="M124.034 323.434C124.714 323.434 125.265 322.884 125.265 322.204C125.265 321.525 124.714 320.974 124.034 320.974C123.355 320.974 122.804 321.525 122.804 322.204C122.804 322.884 123.355 323.434 124.034 323.434Z" fill="#E6E6E6"/>
<path d="M309.027 311.544C309.707 311.544 310.258 310.993 310.258 310.314C310.258 309.634 309.707 309.084 309.027 309.084C308.348 309.084 307.797 309.634 307.797 310.314C307.797 310.993 308.348 311.544 309.027 311.544Z" fill="#E6E6E6"/>
<path d="M251.191 348.035C251.871 348.035 252.422 347.484 252.422 346.805C252.422 346.125 251.871 345.574 251.191 345.574C250.512 345.574 249.961 346.125 249.961 346.805C249.961 347.484 250.512 348.035 251.191 348.035Z" fill="#E6E6E6"/>
<path d="M190.894 303.754C191.574 303.754 192.125 303.203 192.125 302.524C192.125 301.844 191.574 301.294 190.894 301.294C190.215 301.294 189.664 301.844 189.664 302.524C189.664 303.203 190.215 303.754 190.894 303.754Z" fill="#E6E6E6"/>
<path d="M112.959 182.391C113.639 182.391 114.19 181.84 114.19 181.161C114.19 180.481 113.639 179.931 112.959 179.931C112.28 179.931 111.729 180.481 111.729 181.161C111.729 181.84 112.28 182.391 112.959 182.391Z" fill="#E6E6E6"/>
<path d="M122.804 121.709C123.483 121.709 124.034 121.159 124.034 120.479C124.034 119.8 123.483 119.249 122.804 119.249C122.124 119.249 121.573 119.8 121.573 120.479C121.573 121.159 122.124 121.709 122.804 121.709Z" fill="#E6E6E6"/>
<path d="M56.3542 351.315C57.0339 351.315 57.5848 350.764 57.5848 350.085C57.5848 349.405 57.0339 348.855 56.3542 348.855C55.6746 348.855 55.1237 349.405 55.1237 350.085C55.1237 350.764 55.6746 351.315 56.3542 351.315Z" fill="#E6E6E6"/>
<path d="M248.73 307.034C249.41 307.034 249.961 306.483 249.961 305.804C249.961 305.124 249.41 304.573 248.73 304.573C248.05 304.573 247.499 305.124 247.499 305.804C247.499 306.483 248.05 307.034 248.73 307.034Z" fill="#E6E6E6"/>
<path d="M20.8605 186.86C22.8993 186.86 24.5521 185.208 24.5521 183.17C24.5521 181.132 22.8993 179.48 20.8605 179.48C18.8216 179.48 17.1688 181.132 17.1688 183.17C17.1688 185.208 18.8216 186.86 20.8605 186.86Z" fill="white"/>
<path d="M104.345 239.792C104.345 250.813 87.2984 276.494 82.3166 283.764C82.1663 283.984 81.9646 284.164 81.7291 284.288C81.4936 284.412 81.2313 284.477 80.9649 284.477C80.6986 284.477 80.4363 284.412 80.2008 284.288C79.9652 284.164 79.7635 283.984 79.6132 283.764C74.6314 276.494 57.5845 250.813 57.5845 239.792C57.5845 236.723 58.1892 233.684 59.3642 230.848C60.5392 228.013 62.2614 225.437 64.4324 223.266C66.6035 221.096 69.181 219.375 72.0176 218.2C74.8543 217.026 77.8946 216.421 80.9649 216.421C84.0353 216.421 87.0756 217.026 89.9122 218.2C92.7489 219.375 95.3263 221.096 97.4974 223.266C99.6685 225.437 101.391 228.013 102.566 230.848C103.741 233.684 104.345 236.723 104.345 239.792V239.792Z" fill="white"/>
<path d="M80.965 250.042C87.5346 250.042 92.8603 244.719 92.8603 238.152C92.8603 231.585 87.5346 226.261 80.965 226.261C74.3954 226.261 69.0697 231.585 69.0697 238.152C69.0697 244.719 74.3954 250.042 80.965 250.042Z" fill="#6C63FF"/>
<path d="M80.7599 297.194C88.349 297.194 94.5011 296 94.5011 294.529C94.5011 293.057 88.349 291.864 80.7599 291.864C73.1709 291.864 67.0188 293.057 67.0188 294.529C67.0188 296 73.1709 297.194 80.7599 297.194Z" fill="white"/>
<path d="M295.06 221.35C294.956 221.552 294.868 221.762 294.797 221.977L275.197 227.421L271.665 223.966L265.752 228.612L271.41 235.336C271.867 235.879 272.488 236.26 273.18 236.42C273.871 236.58 274.597 236.512 275.246 236.226L296.418 226.884C297.137 227.382 297.99 227.65 298.864 227.652C299.738 227.654 300.593 227.389 301.313 226.894C302.034 226.399 302.586 225.696 302.897 224.88C303.209 224.063 303.264 223.171 303.055 222.322C302.847 221.473 302.385 220.708 301.731 220.128C301.076 219.548 300.261 219.181 299.393 219.075C298.525 218.97 297.646 219.131 296.871 219.538C296.097 219.944 295.465 220.576 295.06 221.35H295.06Z" fill="#FFB8B8"/>
<path d="M274.506 227.74L267.15 233.463C266.94 233.626 266.698 233.742 266.44 233.803C266.182 233.864 265.914 233.869 265.654 233.816C265.394 233.764 265.148 233.657 264.933 233.501C264.718 233.346 264.539 233.146 264.409 232.915L259.837 224.827C259.009 223.751 258.642 222.392 258.815 221.046C258.989 219.701 259.689 218.479 260.763 217.649C261.836 216.819 263.195 216.448 264.542 216.618C265.888 216.788 267.113 217.485 267.946 218.556L274.647 224.949C274.839 225.133 274.989 225.355 275.088 225.601C275.186 225.848 275.23 226.112 275.216 226.377C275.203 226.642 275.132 226.9 275.01 227.136C274.887 227.371 274.716 227.577 274.506 227.74V227.74Z" fill="#6C63FF"/>
<path d="M296.939 218.643L304.4 221.998C304.712 222.138 304.956 222.397 305.078 222.717C305.199 223.037 305.188 223.393 305.048 223.705L304.165 225.667C304.268 225.715 304.349 225.801 304.39 225.907C304.43 226.014 304.427 226.132 304.381 226.237L304.027 227.022C303.98 227.125 303.894 227.206 303.787 227.247C303.68 227.287 303.562 227.284 303.458 227.237L303.105 228.022C303.208 228.069 303.29 228.156 303.33 228.262C303.37 228.369 303.367 228.487 303.321 228.591L302.967 229.376C302.92 229.48 302.834 229.561 302.727 229.602C302.62 229.642 302.502 229.639 302.398 229.592L297.628 240.19C297.488 240.502 297.229 240.746 296.908 240.867C296.588 240.988 296.233 240.978 295.92 240.837L288.46 237.482C288.147 237.342 287.904 237.083 287.782 236.763C287.661 236.443 287.671 236.087 287.812 235.775L295.231 219.29C295.372 218.978 295.631 218.734 295.951 218.613C296.272 218.492 296.627 218.502 296.939 218.643V218.643Z" fill="#3F3D56"/>
<path d="M289.814 236.438L295.799 239.133C296.099 239.267 296.439 239.277 296.747 239.161C297.054 239.045 297.303 238.812 297.439 238.513L300.203 232.367L301.164 230.237L303.665 224.676C303.799 224.377 303.809 224.037 303.692 223.731C303.576 223.424 303.344 223.176 303.045 223.041L301.164 222.193L297.056 220.346C296.756 220.213 296.416 220.203 296.109 220.32C295.802 220.437 295.554 220.671 295.42 220.971L293 226.346L290.245 232.466L289.194 234.803C289.06 235.102 289.05 235.442 289.166 235.749C289.282 236.055 289.515 236.303 289.814 236.438V236.438Z" fill="#F2F2F2"/>
<path d="M277.309 312.587L282.337 312.587L284.73 293.198L277.308 293.199L277.309 312.587Z" fill="#FFB8B8"/>
<path d="M276.026 310.946L285.929 310.946H285.93C286.759 310.946 287.579 311.109 288.345 311.426C289.111 311.743 289.807 312.207 290.393 312.793C290.979 313.379 291.444 314.074 291.761 314.84C292.078 315.605 292.241 316.426 292.241 317.254V317.459L276.026 317.46L276.026 310.946Z" fill="#2F2E41"/>
<path d="M290.434 311.357L295.463 311.357L297.856 291.968L290.434 291.969L290.434 311.357Z" fill="#FFB8B8"/>
<path d="M289.152 309.716L299.055 309.715H299.056C299.884 309.715 300.705 309.878 301.471 310.195C302.237 310.513 302.932 310.977 303.518 311.563C304.104 312.149 304.569 312.844 304.887 313.61C305.204 314.375 305.367 315.195 305.367 316.024V316.229L289.152 316.229L289.152 309.716Z" fill="#2F2E41"/>
<path d="M254.752 267.09C255.823 270.265 257.855 273.028 260.567 274.998C263.279 276.967 266.536 278.045 269.887 278.083L270.142 278.087C272.738 278.161 275.786 277.324 278.776 276.123C284.683 273.749 290.355 269.948 291.861 268.903L289.31 293.417L288.276 303.356C288.25 303.613 288.278 303.873 288.358 304.118C288.439 304.364 288.57 304.59 288.743 304.782C288.916 304.974 289.127 305.127 289.363 305.233C289.599 305.338 289.855 305.393 290.114 305.394H296.484C296.892 305.394 297.289 305.259 297.613 305.009C297.936 304.76 298.168 304.411 298.272 304.016L308.789 263.978C309.105 262.78 309.13 261.524 308.863 260.314C308.596 259.104 308.045 257.974 307.255 257.019C306.465 256.065 305.459 255.311 304.32 254.823C303.18 254.334 301.941 254.123 300.704 254.208L278.858 255.704L280.384 249.603L260.884 248.308L260.826 248.349C260.359 248.689 259.904 249.046 259.469 249.419C258.382 250.338 257.418 251.394 256.601 252.56C255.141 254.652 254.21 257.067 253.888 259.597C253.565 262.128 253.862 264.699 254.752 267.09Z" fill="#2F2E41"/>
<path d="M254.752 267.091C255.823 270.265 257.855 273.028 260.567 274.998C263.279 276.967 266.536 278.045 269.887 278.083C273.092 276.462 276.185 274.627 279.145 272.593L278.776 276.123L275.56 307.046C275.534 307.303 275.562 307.563 275.643 307.809C275.723 308.054 275.854 308.28 276.027 308.472C276.2 308.664 276.412 308.818 276.648 308.923C276.884 309.028 277.139 309.083 277.398 309.084H283.768C284.176 309.084 284.573 308.949 284.897 308.7C285.221 308.45 285.452 308.101 285.556 307.706L289.31 293.417L296.073 267.669C296.389 266.47 296.414 265.214 296.147 264.004C295.881 262.794 295.329 261.665 294.539 260.71C293.749 259.755 292.743 259.002 291.604 258.513C290.465 258.024 289.225 257.813 287.989 257.898L266.142 259.395L267.668 253.294L256.601 252.56C255.141 254.652 254.21 257.067 253.888 259.598C253.565 262.128 253.862 264.699 254.752 267.091V267.091Z" fill="#2F2E41"/>
<path d="M259.441 250.833L259.294 250.816L255.892 234.093C255.863 233.948 253.081 219.524 261.608 211.984L261.757 210.952C261.795 210.688 261.89 210.435 262.035 210.211C262.18 209.987 262.372 209.797 262.598 209.655C262.823 209.512 263.077 209.42 263.342 209.385C263.607 209.35 263.876 209.373 264.131 209.452L272.164 211.943C272.619 212.083 273.002 212.393 273.232 212.809C273.463 213.225 273.524 213.714 273.402 214.174L272.621 217.143C273.704 218.414 286.451 233.754 282.011 245.571L280.022 253.342L259.441 250.833Z" fill="#6C63FF"/>
<path d="M292.797 237.782C292.605 237.903 292.423 238.039 292.252 238.188L272.605 232.917L271.321 228.146L263.866 229.143L265.318 237.809C265.436 238.509 265.777 239.152 266.291 239.641C266.805 240.131 267.465 240.441 268.17 240.524L291.153 243.238C291.518 244.032 292.117 244.696 292.869 245.142C293.621 245.588 294.491 245.795 295.363 245.734C296.235 245.674 297.068 245.35 297.752 244.804C298.435 244.259 298.936 243.519 299.188 242.682C299.441 241.845 299.432 240.951 299.164 240.119C298.895 239.288 298.38 238.557 297.686 238.025C296.992 237.493 296.153 237.185 295.279 237.142C294.406 237.099 293.54 237.322 292.797 237.782H292.797Z" fill="#FFB8B8"/>
<path d="M271.848 232.84L262.602 234.031C262.339 234.065 262.072 234.041 261.819 233.963C261.565 233.884 261.332 233.752 261.135 233.575C260.937 233.398 260.78 233.18 260.674 232.937C260.568 232.694 260.516 232.431 260.521 232.166L260.697 222.877C260.532 221.531 260.907 220.174 261.741 219.103C262.574 218.033 263.799 217.337 265.145 217.167C266.492 216.998 267.851 217.369 268.924 218.2C269.997 219.03 270.697 220.252 270.87 221.598L273.389 230.509C273.461 230.764 273.477 231.032 273.437 231.294C273.396 231.556 273.299 231.806 273.153 232.027C273.007 232.248 272.814 232.436 272.589 232.576C272.364 232.716 272.112 232.806 271.848 232.84V232.84Z" fill="#6C63FF"/>
<path d="M269.246 207.183C274.81 207.183 279.32 202.674 279.32 197.112C279.32 191.551 274.81 187.042 269.246 187.042C263.682 187.042 259.171 191.551 259.171 197.112C259.171 202.674 263.682 207.183 269.246 207.183Z" fill="#FFB8B8"/>
<path d="M268.716 197.953L267.454 195.657C265.065 205.388 269.285 213.441 269.285 213.441L252.906 205.814L253.062 203.108L251.441 204.946L249.112 203.664L248.804 201.909L247.047 202.344L253.463 190.705C259.691 179.629 268.745 183.858 268.745 183.858C283.148 183.173 281.389 197.378 281.389 197.378L268.716 197.953Z" fill="#2F2E41"/>
<path d="M154.033 272.998C156.356 271.51 153.531 262.962 147.724 253.907C141.917 244.852 135.326 238.718 133.003 240.207C130.68 241.695 133.505 250.242 139.312 259.297C145.12 268.352 151.711 274.486 154.033 272.998Z" fill="#3F3D56"/>
<path d="M185.374 253.669C193.322 253.669 199.765 247.228 199.765 239.283C199.765 231.339 193.322 224.898 185.374 224.898C177.425 224.898 170.982 231.339 170.982 239.283C170.982 247.228 177.425 253.669 185.374 253.669Z" fill="#E6E6E6"/>
<path d="M220.644 257.769L205.605 242.736C206.758 240.944 207.539 238.939 207.902 236.839C208.265 234.74 208.203 232.588 207.72 230.513C207.236 228.438 206.341 226.481 205.086 224.758C203.832 223.035 202.245 221.581 200.418 220.483C196.979 218.429 192.893 217.741 188.971 218.556C185.048 219.37 181.575 221.627 179.238 224.88C177.088 227.894 176.056 231.562 176.318 235.254C176.58 238.945 178.121 242.431 180.675 245.11C183.23 247.789 186.638 249.495 190.315 249.935C193.991 250.375 197.706 249.52 200.821 247.518L215.86 262.551C216.495 263.185 217.355 263.541 218.252 263.54C219.149 263.54 220.009 263.184 220.643 262.55C221.277 261.916 221.633 261.056 221.634 260.16C221.634 259.263 221.278 258.403 220.644 257.769V257.769ZM200.259 242.175C198.396 244.038 195.944 245.197 193.321 245.455C190.699 245.714 188.068 245.055 185.876 243.591C183.685 242.128 182.069 239.95 181.304 237.429C180.539 234.909 180.672 232.201 181.681 229.767C182.689 227.333 184.511 225.324 186.835 224.083C189.159 222.841 191.842 222.443 194.427 222.957C197.012 223.471 199.338 224.865 201.01 226.901C202.682 228.937 203.596 231.49 203.596 234.124C203.597 235.62 203.304 237.101 202.731 238.483C202.159 239.864 201.319 241.119 200.259 242.175V242.175Z" fill="#3F3D56"/>
</g>
<defs>
<clipPath id="clip0_264_983">
<rect width="1920" height="350" fill="white"/>
</clipPath>
</defs>
</svg>
