<svg width="1200" height="350" viewBox="0 0 1200 350" fill="none" xmlns="http://www.w3.org/2000/svg">
<rect width="1200" height="350" fill="#FAFAFA"/>
<g clip-path="url(#clip0_432_29)">
<path d="M998.501 203.386C997.27 211.249 993.456 218.88 987.162 223.709C980.968 228.466 973.032 230.156 965.371 231.608C956.183 233.353 946.969 234.947 937.73 236.392C936.421 236.602 935.11 236.804 933.799 237H879.988C879.933 236.927 879.876 236.851 879.821 236.775C879.734 236.647 879.646 236.52 879.561 236.392C879.513 236.319 879.464 236.243 879.416 236.167H913.169C914.127 236.166 915.045 235.784 915.723 235.104C916.4 234.423 916.782 233.501 916.783 232.538V187.266C917.001 186.579 917.203 185.889 917.388 185.19C918.249 181.935 918.809 178.607 919.061 175.249C919.242 172.909 919.297 170.569 919.257 168.225C919.145 161.785 918.308 155.345 917.397 148.95C917.331 148.479 917.261 148.005 917.194 147.534C916.553 143.091 915.97 138.255 918.199 134.362C920.748 129.907 926.407 128.05 931.503 128.506C940.67 129.329 948.392 136.383 952.405 144.708C956.416 153.029 957.314 162.493 957.68 171.733C957.873 176.632 957.852 181.75 957.172 186.664C959.47 181.382 961.771 176.1 964.073 170.818C965.301 168 966.593 165.092 968.867 163.031C973.622 158.719 981.485 159.588 986.563 163.514C991.638 167.444 994.421 173.653 996.272 179.814C998.564 187.433 999.735 195.524 998.501 203.386Z" fill="#F2F2F2"/>
<path d="M978.221 160.681C981.546 166.598 983.071 173.383 983.035 180.154C982.983 186.866 981.505 193.491 978.7 199.583C976.163 205.084 972.628 210.062 968.276 214.262C963.981 218.453 958.885 221.724 953.295 223.878C946.81 226.321 939.795 226.991 932.968 225.819C932.019 225.656 931.078 225.457 930.143 225.224C929.576 225.083 929.335 225.962 929.902 226.103C937.007 227.873 944.457 227.657 951.449 225.48C957.272 223.598 962.645 220.526 967.231 216.458C971.874 212.379 975.714 207.46 978.551 201.957C981.655 195.932 983.465 189.32 983.866 182.548C984.262 175.675 983.116 168.681 980.158 162.447C979.8 161.691 979.415 160.95 979.005 160.221C978.942 160.121 978.843 160.05 978.729 160.022C978.614 159.994 978.493 160.011 978.392 160.071C978.29 160.131 978.216 160.228 978.184 160.341C978.152 160.455 978.165 160.577 978.221 160.681H978.221Z" fill="white"/>
<path d="M930.069 128.385C933.755 135.213 936.628 142.454 938.627 149.958C942.63 164.988 943.233 180.727 940.391 196.021C938.973 203.662 936.659 211.108 933.499 218.203C930.348 225.237 925.811 232.65 918.062 235.113C917.187 235.39 916.291 235.591 915.382 235.715C914.806 235.794 915.051 236.673 915.623 236.594C923.64 235.488 929.21 228.796 932.703 221.974C936.318 214.916 938.891 207.251 940.603 199.512C943.995 184.07 943.873 168.058 940.246 152.671C938.444 145.005 935.751 137.579 932.222 130.546C931.779 129.665 931.322 128.792 930.852 127.925C930.573 127.409 929.79 127.869 930.069 128.385V128.385Z" fill="white"/>
<path d="M892.128 127.059H837.809C836.706 127.061 835.649 127.501 834.87 128.285C834.09 129.068 833.651 130.13 833.65 131.238V158.588H842.01C842.621 158.586 843.223 158.742 843.758 159.039C844.293 159.336 844.744 159.766 845.067 160.287L847.965 164.922L850.735 169.35L851.255 170.183L854.425 175.249L854.461 175.307H896.286V131.238C896.285 130.13 895.846 129.068 895.067 128.285C894.287 127.501 893.23 127.061 892.128 127.059Z" fill="#CCCCCC"/>
<path d="M870.597 135.42H843.682C842.969 135.42 842.284 135.705 841.78 136.212C841.275 136.719 840.992 137.406 840.992 138.123C840.992 138.84 841.275 139.528 841.78 140.035C842.284 140.542 842.969 140.827 843.682 140.827H870.597C871.31 140.827 871.995 140.542 872.499 140.035C873.004 139.528 873.287 138.84 873.287 138.123C873.287 137.406 873.004 136.719 872.499 136.212C871.995 135.705 871.31 135.42 870.597 135.42Z" fill="white"/>
<path d="M885.522 148.695H843.927C843.148 148.695 842.401 149.006 841.851 149.56C841.3 150.113 840.99 150.864 840.99 151.646C840.99 152.429 841.3 153.18 841.851 153.733C842.401 154.287 843.148 154.597 843.927 154.597H885.522C886.301 154.597 887.048 154.287 887.599 153.733C888.15 153.18 888.459 152.429 888.459 151.646C888.459 150.864 888.15 150.113 887.599 149.56C887.048 149.006 886.301 148.695 885.522 148.695Z" fill="white"/>
<path d="M888.178 160.721C887.942 160.214 887.566 159.785 887.096 159.484C886.626 159.183 886.08 159.023 885.522 159.022H843.927C843.864 159.022 843.803 159.025 843.74 159.029C844.282 159.327 844.74 159.76 845.067 160.287L847.965 164.922H885.522C886.016 164.922 886.502 164.797 886.935 164.558C887.368 164.319 887.734 163.974 887.999 163.555C888.264 163.136 888.419 162.657 888.45 162.161C888.482 161.666 888.388 161.171 888.178 160.721Z" fill="white"/>
<path d="M888.429 171.903C888.333 171.196 887.986 170.548 887.452 170.079C886.917 169.61 886.232 169.351 885.522 169.35H850.735L851.255 170.183L854.425 175.249H885.522C886.133 175.25 886.729 175.058 887.225 174.699C887.606 174.426 887.916 174.066 888.13 173.648C888.345 173.231 888.456 172.768 888.456 172.298C888.456 172.166 888.447 172.034 888.429 171.903Z" fill="white"/>
<path d="M921.631 150.613L917.397 148.95L896.286 140.672L871.029 130.767C870.001 130.366 868.857 130.391 867.847 130.836C866.837 131.282 866.045 132.112 865.643 133.143L864.76 135.42L862.658 140.827L859.603 148.695L857.31 154.597L855.592 159.022L853.3 164.922L851.579 169.35L851.531 169.477L851.255 170.182L854.425 175.249L854.461 175.307H913.169C913.708 175.306 914.24 175.427 914.726 175.661C915.213 175.894 915.64 176.234 915.979 176.656L916.227 176.024L919.257 168.225L923.993 156.029C924.393 154.996 924.369 153.845 923.926 152.83C923.484 151.815 922.658 151.018 921.631 150.613Z" fill="#6C63FF"/>
<path d="M898.549 150.534L896.287 149.646L873.476 140.702C872.811 140.443 872.071 140.46 871.418 140.747C870.764 141.035 870.251 141.57 869.989 142.237C869.731 142.906 869.747 143.65 870.034 144.306C870.321 144.963 870.855 145.479 871.519 145.741L879.053 148.695L888.372 152.348L896.287 155.454L896.592 155.573C897.257 155.832 897.996 155.816 898.649 155.528C899.302 155.239 899.814 154.702 900.073 154.035C900.332 153.367 900.318 152.624 900.032 151.968C899.746 151.311 899.213 150.796 898.549 150.534Z" fill="white"/>
<path d="M907.646 168.356L896.287 163.901L888.178 160.721L883.847 159.023L872.566 154.597L868.9 153.16C868.216 152.892 867.457 152.89 866.773 153.156C866.088 153.423 865.527 153.937 865.201 154.597C865.165 154.673 865.129 154.752 865.098 154.834C864.958 155.195 864.89 155.58 864.898 155.968C864.906 156.355 864.989 156.737 865.144 157.092C865.299 157.446 865.522 157.767 865.8 158.035C866.078 158.303 866.406 158.514 866.765 158.655L867.702 159.023L882.74 164.922L896.287 170.234L905.511 173.854C905.85 173.987 906.211 174.055 906.576 174.055C907.261 174.056 907.924 173.816 908.452 173.377C908.98 172.939 909.338 172.328 909.465 171.652C909.593 170.976 909.48 170.276 909.148 169.674C908.816 169.072 908.285 168.606 907.646 168.356H907.646Z" fill="white"/>
<path d="M896.286 174.984L895.558 174.699L888.429 171.903L881.917 169.35L870.624 164.922L865.162 162.779C864.802 162.638 864.419 162.569 864.033 162.577C863.647 162.585 863.267 162.669 862.913 162.824C862.56 162.98 862.241 163.204 861.973 163.484C861.706 163.764 861.497 164.094 861.357 164.455C861.216 164.817 861.149 165.202 861.157 165.59C861.165 165.977 861.249 166.36 861.405 166.715C861.56 167.07 861.784 167.39 862.062 167.658C862.341 167.926 862.67 168.137 863.03 168.277L865.764 169.35L879.404 174.699L880.807 175.249L880.952 175.307H897.106L896.286 174.984Z" fill="white"/>
<path d="M868.694 175.249L867.291 174.699L861.427 172.398C861.017 172.237 860.576 172.17 860.138 172.204C859.699 172.237 859.273 172.369 858.892 172.59C858.511 172.811 858.184 173.115 857.936 173.48C857.688 173.845 857.525 174.262 857.458 174.699C857.429 174.881 857.418 175.065 857.425 175.249C857.425 175.268 857.426 175.288 857.428 175.307H868.843L868.694 175.249Z" fill="white"/>
<path d="M880.807 175.249L879.404 174.699H857.458C857.429 174.881 857.418 175.065 857.425 175.249H854.425L854.461 175.307H880.952L880.807 175.249ZM880.807 175.249H854.425L854.461 175.307H880.952L880.807 175.249ZM880.807 175.249H854.425L854.461 175.307H880.952L880.807 175.249ZM880.952 175.307L880.807 175.249H854.425L854.461 175.307H880.952ZM828.022 236.167C827.064 236.166 826.147 235.783 825.47 235.103C824.793 234.422 824.412 233.5 824.41 232.538V162.22C824.411 161.257 824.792 160.334 825.469 159.654C826.146 158.973 827.064 158.589 828.022 158.588H833.65V157.98H828.022C826.904 157.982 825.832 158.43 825.042 159.224C824.251 160.019 823.807 161.096 823.806 162.22V232.538C823.806 233.351 824.04 234.146 824.478 234.83C824.916 235.513 825.54 236.055 826.276 236.392H879.561C879.513 236.319 879.464 236.243 879.416 236.167H828.022ZM916.227 176.024C915.834 175.605 915.36 175.271 914.834 175.044C914.308 174.816 913.742 174.698 913.169 174.699H854.797L851.531 169.477L851.452 169.35L848.682 164.922L845.578 159.962C845.198 159.356 844.672 158.856 844.048 158.51C843.424 158.163 842.723 157.981 842.01 157.98H828.022C826.904 157.982 825.832 158.43 825.042 159.224C824.251 160.019 823.807 161.096 823.806 162.22V232.538C823.806 233.351 824.04 234.146 824.478 234.83C824.916 235.513 825.54 236.055 826.276 236.392C826.824 236.645 827.419 236.776 828.022 236.775H913.169C913.772 236.776 914.369 236.645 914.917 236.392C915.653 236.055 916.277 235.513 916.716 234.83C917.154 234.146 917.387 233.351 917.388 232.538V178.938C917.389 177.853 916.973 176.809 916.227 176.024ZM916.783 232.538C916.782 233.501 916.4 234.423 915.723 235.104C915.045 235.784 914.127 236.166 913.169 236.167H828.022C827.064 236.166 826.147 235.783 825.47 235.103C824.793 234.422 824.412 233.5 824.41 232.538V162.22C824.411 161.257 824.792 160.334 825.469 159.654C826.146 158.973 827.064 158.589 828.022 158.588H842.01C842.621 158.586 843.223 158.741 843.758 159.039C844.293 159.336 844.744 159.766 845.067 160.287L847.965 164.922L850.735 169.35L851.255 170.182L854.425 175.249L854.461 175.307H913.169C914.127 175.307 915.046 175.69 915.724 176.371C916.401 177.052 916.782 177.975 916.783 178.938V232.538ZM880.807 175.249H854.425L854.461 175.307H880.952L880.807 175.249ZM880.807 175.249H854.425L854.461 175.307H880.952L880.807 175.249ZM880.807 175.249H854.425L854.461 175.307H880.952L880.807 175.249ZM880.807 175.249L879.404 174.699H854.797L851.531 169.477L851.255 170.182L854.425 175.249L854.461 175.307H880.952L880.807 175.249Z" fill="#3F3D56"/>
<path d="M811.462 200.46L809.73 204.1L794.935 199.117L797.492 193.745L811.462 200.46Z" fill="#FFB8B8"/>
<path d="M807.297 206.54L810.798 199.183L815.197 201.297L809.752 212.735L809.416 212.574C808.338 212.056 807.51 211.129 807.113 209.998C806.715 208.866 806.781 207.622 807.297 206.54Z" fill="#2F2E41"/>
<path d="M814.95 232.963L810.937 232.827L810.768 217.131L815.472 217.41L814.95 232.963Z" fill="#FFB8B8"/>
<path d="M807.737 231.565L815.848 231.84L815.684 236.736L803.073 236.308L803.085 235.934C803.125 234.735 803.638 233.601 804.511 232.781C805.383 231.962 806.543 231.524 807.737 231.565Z" fill="#2F2E41"/>
<path d="M821.412 167.274C821.412 167.274 809.131 164.148 803.563 168.755L800.452 177.805L788.008 195.576L806.02 206.436L809.294 198.208L801.435 194.259L810.932 186.032L809.294 229.472L815.517 230.459C815.517 230.459 829.271 176.818 821.412 167.274Z" fill="#2F2E41"/>
<path d="M802.78 170.093L802.929 169.826C804.507 167.007 804.252 162.417 803.759 159.063C803.347 156.253 803.359 151.302 803.442 147.644C803.463 146.409 803.901 145.217 804.685 144.266C805.469 143.315 806.552 142.66 807.756 142.41C811.492 141.628 816.078 141.463 818.48 141.434L818.482 141.598L818.48 141.434C819.132 141.431 819.76 141.685 820.228 142.142C820.695 142.599 820.967 143.223 820.983 143.878C821.056 147.818 821.033 155.003 820.06 158.858C818.616 164.579 820.874 168.467 820.897 168.506L821.033 168.735L802.78 170.093Z" fill="#6C63FF"/>
<path d="M796.463 185.873C796.862 185.68 797.215 185.402 797.497 185.058C797.778 184.714 797.98 184.311 798.09 183.88C798.2 183.448 798.215 182.998 798.133 182.56C798.05 182.123 797.874 181.708 797.615 181.347L804.546 151.313H799.306L793.189 180.755C792.613 181.232 792.232 181.904 792.116 182.645C792.001 183.386 792.16 184.144 792.564 184.775C792.967 185.405 793.587 185.866 794.306 186.068C795.024 186.27 795.792 186.201 796.463 185.873Z" fill="#FFB8B8"/>
<path d="M838.605 156.309L827.038 145.315L823.912 149.713L831.727 156.624L821.478 164.802C821.404 164.797 821.331 164.791 821.255 164.791C820.624 164.79 820.007 164.972 819.476 165.315C818.946 165.658 818.525 166.147 818.264 166.724C818.003 167.301 817.913 167.941 818.004 168.568C818.096 169.195 818.365 169.783 818.78 170.26C819.195 170.737 819.738 171.084 820.345 171.259C820.951 171.434 821.594 171.43 822.198 171.248C822.802 171.065 823.341 170.711 823.75 170.229C824.159 169.747 824.421 169.156 824.505 168.528L824.537 168.56L838.605 156.309Z" fill="#FFB8B8"/>
<path d="M807.02 142.796C807.02 142.796 799.797 141.605 799.142 147.2C798.487 152.794 798.16 152.794 798.16 152.794C798.16 152.794 803.4 151.807 804.71 153.123C806.02 154.44 807.02 142.796 807.02 142.796Z" fill="#6C63FF"/>
<path d="M817.809 141.935C817.809 141.935 823.704 140.947 826.324 143.58C828.944 146.213 830.254 146.871 830.254 146.871C830.254 146.871 824.359 150.162 826.651 153.123C826.651 153.123 820.429 150.162 819.447 151.149C818.464 152.136 817.809 141.935 817.809 141.935Z" fill="#6C63FF"/>
<path d="M812.639 122.828C810.779 121.336 810.291 118.456 811.37 116.325C812.448 114.193 814.888 112.909 817.265 113.005C819.643 113.101 821.884 114.473 823.261 116.423C825.196 119.162 825.602 122.969 828.175 125.113C830.499 127.05 833.828 126.994 836.844 126.84C837.86 126.788 838.909 126.728 839.821 126.274C840.734 125.82 841.479 124.863 841.361 123.847C842.119 125.052 841.679 126.742 840.663 127.736C839.647 128.731 838.199 129.147 836.791 129.313C834.305 129.575 831.795 129.183 829.506 128.174C827.218 127.165 825.23 125.574 823.74 123.559C822.691 122.104 821.881 120.411 820.441 119.346C819.002 118.281 816.601 118.207 815.717 119.768C815.28 120.541 815.323 121.509 814.921 122.301C814.519 123.092 813.214 123.519 812.827 122.72" fill="#2F2E41"/>
<path d="M812.355 138.698C817.366 138.698 821.428 134.616 821.428 129.581C821.428 124.545 817.366 120.463 812.355 120.463C807.344 120.463 803.281 124.545 803.281 129.581C803.281 134.616 807.344 138.698 812.355 138.698Z" fill="#2F2E41"/>
<path d="M812.3 139.412C816.402 139.412 819.728 136.07 819.728 131.948C819.728 127.825 816.402 124.483 812.3 124.483C808.197 124.483 804.871 127.825 804.871 131.948C804.871 136.07 808.197 139.412 812.3 139.412Z" fill="#FFB8B8"/>
<path d="M805.526 126.465C806.536 126.687 806.206 128.389 807.003 129.049C807.723 129.644 808.759 129.032 809.665 128.81C810.809 128.53 812.005 128.94 813.061 129.463C814.117 129.986 815.135 130.634 816.287 130.878C817.438 131.121 818.804 130.847 819.449 129.858C820.067 128.913 819.839 127.638 819.356 126.616C818.756 125.346 817.814 124.271 816.636 123.511C815.458 122.752 814.093 122.339 812.694 122.32C811.295 122.3 809.918 122.675 808.72 123.401C807.522 124.128 806.55 125.176 805.915 126.429" fill="#2F2E41"/>
<path d="M980.551 236.696C980.55 236.777 980.518 236.854 980.462 236.911C980.405 236.968 980.328 237 980.248 237H764.302C764.222 237 764.145 236.968 764.089 236.911C764.032 236.854 764 236.777 764 236.696C764 236.615 764.032 236.538 764.089 236.481C764.145 236.424 764.222 236.392 764.302 236.392H980.248C980.328 236.392 980.405 236.424 980.462 236.481C980.518 236.538 980.55 236.615 980.551 236.696Z" fill="#3F3D56"/>
</g>
<defs>
<clipPath id="clip0_432_29">
<rect width="235" height="124" fill="white" transform="translate(764 113)"/>
</clipPath>
</defs>
</svg>
