<svg width="1200" height="350" viewBox="0 0 1200 350" fill="none" xmlns="http://www.w3.org/2000/svg">
<g clip-path="url(#clip0_264_985)">
<rect width="1200" height="350" fill="#FAFAFA"/>
<g clip-path="url(#clip1_264_985)">
<path d="M1142.64 310.656C1167.63 288.04 1176.51 257.132 1162.47 241.622C1148.43 226.111 1116.79 231.871 1091.8 254.487C1066.81 277.103 1057.94 308.01 1071.97 323.521C1086.01 339.031 1117.65 333.271 1142.64 310.656Z" fill="#F2F2F2"/>
<path d="M1069.93 372.567C1066.56 365.605 1065.37 357.762 1065.95 350.082C1066.59 342.451 1068.84 335.042 1072.56 328.347C1076.17 321.885 1080.74 316.014 1086.13 310.94C1091.79 305.518 1098.17 300.916 1104.89 296.893C1111.98 292.646 1119.43 289.036 1126.97 285.659C1127.91 285.238 1128.85 284.82 1129.79 284.406C1130.41 284.134 1129.87 283.227 1129.26 283.498C1121.57 286.881 1113.95 290.447 1106.67 294.631C1099.7 298.628 1093.04 303.2 1087.09 308.604C1081.49 313.616 1076.66 319.434 1072.76 325.867C1068.77 332.486 1066.19 339.854 1065.16 347.514C1064.18 355.228 1064.94 363.25 1067.87 370.488C1068.22 371.371 1068.61 372.241 1069.02 373.098C1069.32 373.707 1070.22 373.174 1069.93 372.567V372.567Z" fill="#E6E6E6"/>
<path d="M1098.95 299.577C1098.61 293.84 1099.04 288.082 1100.24 282.462C1101.43 276.838 1103.37 271.398 1106.01 266.288C1107.49 263.419 1109.19 260.668 1111.09 258.057C1111.49 257.509 1110.58 256.983 1110.18 257.526C1106.77 262.232 1104 267.377 1101.96 272.823C1099.92 278.269 1098.61 283.963 1098.06 289.755C1097.76 293.02 1097.7 296.303 1097.9 299.577C1097.94 300.249 1098.99 300.254 1098.95 299.577H1098.95Z" fill="#E6E6E6"/>
<path d="M986.374 290.977C1018.9 261.54 1030.46 221.311 1012.19 201.122C993.914 180.933 952.735 188.43 920.208 217.867C887.682 247.304 876.126 287.533 894.397 307.722C912.668 327.911 953.848 320.414 986.374 290.977Z" fill="#F2F2F2"/>
<path d="M891.738 371.561C887.352 362.5 885.799 352.29 886.562 342.294C887.321 332.362 890.389 322.726 895.159 314.004C899.779 305.557 905.885 297.995 912.826 291.347C920.193 284.29 928.499 278.299 937.239 273.064C946.468 267.535 956.166 262.837 965.976 258.441C967.199 257.893 968.423 257.349 969.65 256.81C970.455 256.456 969.758 255.275 968.958 255.628C958.956 260.032 949.038 264.673 939.554 270.119C930.493 275.321 921.824 281.273 914.08 288.306C906.855 294.867 900.416 302.372 895.424 310.775C890.233 319.391 886.866 328.981 885.534 338.951C884.255 348.992 885.243 359.434 889.05 368.855C889.514 370.004 890.016 371.136 890.556 372.252C890.94 373.045 892.121 372.351 891.738 371.561V371.561Z" fill="#E6E6E6"/>
<path d="M929.515 276.556C929.062 269.089 929.624 261.595 931.185 254.279C932.741 246.959 935.268 239.879 938.697 233.228C940.627 229.493 942.84 225.912 945.315 222.514C945.834 221.801 944.646 221.117 944.132 221.823C939.685 227.948 936.086 234.645 933.432 241.733C930.771 248.822 929.064 256.233 928.356 263.772C927.956 268.022 927.885 272.296 928.145 276.556C928.198 277.432 929.568 277.438 929.515 276.556L929.515 276.556Z" fill="#E6E6E6"/>
<path d="M1049.82 178.627C1041.61 178.627 1033.43 172.983 1026.78 162.735C1020.94 153.724 1017.31 142.523 1017.31 133.504C1017.31 129.235 1018.16 125.009 1019.79 121.065C1021.42 117.122 1023.82 113.538 1026.83 110.52C1029.85 107.502 1033.44 105.108 1037.38 103.474C1041.32 101.841 1045.55 101 1049.82 101C1054.09 101 1058.31 101.841 1062.26 103.474C1066.2 105.108 1069.78 107.502 1072.8 110.52C1075.82 113.538 1078.21 117.122 1079.85 121.065C1081.48 125.009 1082.32 129.235 1082.32 133.504C1082.32 142.523 1078.69 153.724 1072.85 162.735C1066.21 172.983 1058.03 178.627 1049.82 178.627ZM1049.82 101.765C1041.4 101.774 1033.34 105.121 1027.39 111.071C1021.44 117.022 1018.09 125.089 1018.08 133.504C1018.08 151.021 1032.3 177.862 1049.82 177.862C1067.34 177.862 1081.56 151.021 1081.56 133.504C1081.55 125.089 1078.2 117.022 1072.25 111.071C1066.3 105.121 1058.23 101.774 1049.82 101.765V101.765Z" fill="#3F3D56"/>
<path d="M1052.88 185.51H1046.75C1046.47 185.51 1046.19 185.446 1045.93 185.322C1045.67 185.198 1045.44 185.018 1045.26 184.795C1045.08 184.571 1044.96 184.311 1044.89 184.032C1044.83 183.753 1044.83 183.463 1044.89 183.184L1046.07 177.862H1053.57L1054.75 183.184C1054.81 183.463 1054.81 183.753 1054.75 184.032C1054.68 184.311 1054.55 184.571 1054.37 184.795C1054.2 185.018 1053.97 185.198 1053.71 185.322C1053.45 185.446 1053.17 185.51 1052.88 185.51H1052.88ZM1046.68 178.627L1045.63 183.349C1045.6 183.517 1045.6 183.691 1045.64 183.858C1045.68 184.026 1045.75 184.182 1045.86 184.316C1045.97 184.45 1046.1 184.558 1046.26 184.633C1046.41 184.707 1046.58 184.745 1046.75 184.745H1052.88C1053.05 184.745 1053.22 184.707 1053.38 184.633C1053.53 184.558 1053.67 184.45 1053.78 184.316C1053.89 184.182 1053.96 184.026 1054 183.858C1054.04 183.691 1054.04 183.517 1054 183.349L1052.95 178.627H1046.68Z" fill="#3F3D56"/>
<path d="M1034.69 110.507C1029.64 113.571 1026.02 118.507 1024.6 124.238C1024.2 125.832 1024 127.465 1023.98 129.107C1023.98 129.255 1024.04 129.396 1024.15 129.5C1024.26 129.603 1024.4 129.661 1024.55 129.661C1024.7 129.661 1024.84 129.603 1024.95 129.5C1025.05 129.396 1025.12 129.255 1025.12 129.107C1025.24 123.531 1027.55 118.225 1031.56 114.343C1032.68 113.253 1033.92 112.298 1035.27 111.497C1035.4 111.418 1035.49 111.293 1035.52 111.148C1035.56 111.004 1035.53 110.851 1035.46 110.722C1035.38 110.594 1035.26 110.5 1035.12 110.459C1034.97 110.419 1034.82 110.436 1034.69 110.507H1034.69Z" fill="#3F3D56"/>
<path d="M1044.51 179.348C1051.44 178.993 1059.32 178.804 1064.72 183.916C1066.98 186.048 1068.4 188.905 1068.31 192.046C1068.22 195.464 1066.48 198.666 1064.33 201.234C1059.69 206.761 1052.89 210.218 1046.37 213.003C1039.44 215.964 1032.21 218.276 1025.56 221.849C1019.71 224.986 1014.26 229.22 1010.73 234.925C1008.99 237.69 1007.83 240.781 1007.34 244.009C1006.88 247.244 1007.05 250.537 1007.82 253.711C1009.38 260.217 1013.21 265.967 1018.31 270.24C1023.47 274.564 1029.73 277.443 1036.21 279.163C1043.91 281.205 1051.92 281.668 1059.85 281.714C1068.04 281.761 1076.24 281.361 1084.42 281.82C1086.41 281.931 1088.4 282.096 1090.38 282.326C1091.11 282.411 1091.1 281.263 1090.38 281.178C1082.2 280.231 1073.96 280.448 1065.75 280.541C1057.7 280.632 1049.58 280.604 1041.63 279.183C1034.78 277.957 1028.06 275.661 1022.25 271.765C1016.68 268.034 1012.14 262.802 1009.84 256.454C1007.6 250.253 1007.62 243.389 1010.63 237.445C1013.63 231.492 1018.88 226.989 1024.58 223.703C1031.16 219.911 1038.4 217.538 1045.39 214.647C1051.99 211.916 1058.75 208.659 1063.82 203.496C1066.17 201.105 1068.18 198.195 1069.04 194.921C1069.46 193.39 1069.56 191.789 1069.34 190.216C1069.11 188.644 1068.57 187.135 1067.74 185.782C1066.07 183.237 1063.7 181.236 1060.91 180.028C1057.55 178.512 1053.81 178.075 1050.15 178.038C1048.27 178.019 1046.39 178.104 1044.51 178.2C1043.77 178.238 1043.77 179.385 1044.51 179.348H1044.51Z" fill="#3F3D56"/>
<path d="M1009.23 365.522L1004.63 366.437L998.911 349.139L1005.7 347.787L1009.23 365.522Z" fill="#FFB8B8"/>
<path d="M1041.96 316.506C1042.33 316.036 1042.6 315.49 1042.74 314.906C1042.88 314.322 1042.89 313.715 1042.77 313.126C1042.65 312.538 1042.41 311.983 1042.05 311.5C1041.69 311.018 1041.23 310.619 1040.7 310.333L1031.34 274.109L1023.19 277.776L1034.96 312.23C1034.54 313.149 1034.47 314.191 1034.76 315.158C1035.06 316.125 1035.7 316.95 1036.56 317.477C1037.42 318.004 1038.45 318.197 1039.45 318.018C1040.44 317.838 1041.34 317.301 1041.96 316.506V316.506Z" fill="#FFB8B8"/>
<path d="M1033.53 280.178L1024.48 282.317C1024.22 282.377 1023.95 282.382 1023.69 282.33C1023.43 282.278 1023.19 282.171 1022.97 282.016C1022.76 281.86 1022.58 281.661 1022.45 281.43C1022.32 281.2 1022.24 280.944 1022.22 280.68L1021.43 271.439C1021.13 270.119 1021.36 268.733 1022.08 267.584C1022.79 266.435 1023.94 265.617 1025.26 265.31C1026.57 265.002 1027.96 265.23 1029.11 265.944C1030.26 266.658 1031.08 267.798 1031.39 269.116L1034.82 277.704C1034.92 277.95 1034.96 278.214 1034.95 278.479C1034.93 278.743 1034.86 279.002 1034.74 279.236C1034.62 279.471 1034.45 279.677 1034.24 279.839C1034.03 280.002 1033.79 280.118 1033.53 280.178V280.178Z" fill="#6C63FF"/>
<path d="M1002.64 362.243C1002.25 362.243 1001.86 362.107 1001.56 361.857C1001.25 361.607 1001.04 361.259 1000.96 360.872L996.401 338.977C996.117 337.598 996.109 336.176 996.377 334.794C996.645 333.412 997.183 332.096 997.961 330.922L1012.33 309.366V293.211L1029.02 289.451L1029.09 289.51C1037.74 296.577 1037.24 305.289 1037.19 305.962L1053.59 359.203C1053.67 359.46 1053.68 359.733 1053.64 359.998C1053.59 360.264 1053.49 360.515 1053.33 360.732C1053.17 360.948 1052.96 361.124 1052.72 361.246C1052.48 361.367 1052.21 361.43 1051.94 361.43H1047.02C1046.67 361.431 1046.34 361.329 1046.05 361.136C1045.77 360.943 1045.55 360.668 1045.42 360.348L1027.75 318.142L1006.95 335.258C1006.79 335.395 1006.65 335.571 1006.57 335.769C1006.49 335.968 1006.45 336.184 1006.47 336.4L1008.39 359.934C1008.43 360.381 1008.29 360.825 1008 361.171C1007.72 361.517 1007.31 361.737 1006.86 361.784L1002.84 362.232C1002.77 362.239 1002.71 362.242 1002.64 362.243V362.243Z" fill="#2F2E41"/>
<path d="M1023.97 259.296C1029.16 259.296 1033.36 255.091 1033.36 249.904C1033.36 244.717 1029.16 240.512 1023.97 240.512C1018.78 240.512 1014.58 244.717 1014.58 249.904C1014.58 255.091 1018.78 259.296 1023.97 259.296Z" fill="#FFB8B8"/>
<path d="M1013.22 295.003C1012.88 295.003 1012.54 294.902 1012.26 294.711C1011.98 294.521 1011.75 294.251 1011.62 293.935C1008.48 286.21 1008.53 276.454 1009.91 270.658C1010.5 268.204 1011.93 266.034 1013.95 264.526C1015.97 263.019 1018.46 262.269 1020.98 262.409H1020.98C1022.48 262.488 1023.95 262.881 1025.29 263.56C1026.63 264.238 1027.81 265.19 1028.76 266.352C1029.71 267.514 1030.41 268.862 1030.81 270.309C1031.21 271.756 1031.3 273.271 1031.09 274.757C1030.35 279.741 1030.05 286.761 1029.96 289.548C1029.94 289.92 1029.81 290.277 1029.57 290.567C1029.34 290.857 1029.02 291.063 1028.66 291.155L1013.64 294.951C1013.5 294.985 1013.36 295.003 1013.22 295.003V295.003Z" fill="#6C63FF"/>
<path d="M1013.39 238.933C1013.2 239.014 1013 239.079 1012.79 239.128L1006.18 256.901L1009.11 260.456L1004.32 265.58L998.52 259.791C998.052 259.323 997.748 258.716 997.654 258.061C997.56 257.405 997.68 256.737 997.998 256.157L1008.36 237.232C1007.95 236.525 1007.77 235.711 1007.84 234.899C1007.91 234.087 1008.22 233.314 1008.74 232.684C1009.26 232.054 1009.95 231.597 1010.74 231.373C1011.52 231.148 1012.35 231.168 1013.13 231.429C1013.9 231.69 1014.57 232.18 1015.06 232.834C1015.55 233.487 1015.82 234.274 1015.85 235.088C1015.88 235.903 1015.66 236.707 1015.22 237.394C1014.78 238.081 1014.15 238.618 1013.39 238.933V238.933Z" fill="#FFB8B8"/>
<path d="M1002.63 265.071L1007.9 257.409C1008.05 257.191 1008.25 257.008 1008.48 256.872C1008.7 256.736 1008.96 256.651 1009.22 256.622C1009.48 256.593 1009.75 256.622 1010 256.705C1010.25 256.789 1010.48 256.925 1010.68 257.105L1017.46 263.428C1018.57 264.202 1019.33 265.385 1019.57 266.718C1019.81 268.051 1019.51 269.425 1018.74 270.538C1017.97 271.652 1016.79 272.414 1015.46 272.657C1014.13 272.901 1012.75 272.606 1011.64 271.838L1003.33 267.77C1003.1 267.653 1002.89 267.487 1002.72 267.282C1002.55 267.077 1002.43 266.838 1002.36 266.582C1002.3 266.326 1002.29 266.059 1002.33 265.798C1002.38 265.537 1002.48 265.289 1002.63 265.071H1002.63Z" fill="#6C63FF"/>
<path d="M1023.43 260.668C1022.75 259.918 1023.15 258.629 1023.77 257.828C1024.4 257.027 1025.25 256.347 1025.49 255.331C1025.91 253.601 1024.34 252.024 1022.78 251.466C1021.21 250.907 1019.46 250.863 1018.08 249.883C1015.99 248.398 1015.52 245.012 1016.72 242.634C1017.92 240.256 1020.43 238.893 1022.92 238.689C1025.41 238.485 1027.88 239.295 1030.16 240.403C1032.36 241.474 1034.49 242.87 1036.04 244.882C1037.59 246.894 1038.5 249.598 1038.05 252.175C1037.51 255.322 1035.04 257.751 1032.3 258.937C1029.56 260.123 1026.55 260.28 1023.6 260.422L1023.43 260.668Z" fill="#2F2E41"/>
<path d="M1033.88 242.737C1036.77 239.885 1040.62 238.232 1044.67 238.11C1048.72 237.988 1052.67 239.407 1055.72 242.081C1060.8 246.542 1062.74 253.889 1068.07 258.045C1072.88 261.787 1080.09 262.066 1085.17 258.706C1082.85 261.415 1080.49 264.16 1077.52 266.135C1074.55 268.11 1070.84 269.251 1067.38 268.404C1063.31 267.409 1060.35 263.947 1058.06 260.448C1055.76 256.949 1053.73 253.116 1050.4 250.582C1047.88 248.673 1044.79 247.654 1041.63 247.683C1039.69 247.707 1037.71 248.123 1035.84 247.624C1033.97 247.124 1032.25 245.214 1032.87 243.379L1033.88 242.737Z" fill="#2F2E41"/>
</g>
</g>
<defs>
<clipPath id="clip0_264_985">
<rect width="1200" height="350" fill="white"/>
</clipPath>
<clipPath id="clip1_264_985">
<rect width="311.127" height="272.367" fill="white" transform="translate(858 101)"/>
</clipPath>
</defs>
</svg>
