<svg width="1920" height="350" viewBox="0 0 1920 350" fill="none" xmlns="http://www.w3.org/2000/svg">
<g clip-path="url(#clip0_264_985)">
<rect width="1920" height="350" fill="#FAFAFA"/>
<g clip-path="url(#clip1_264_985)">
<path d="M1570.64 316.656C1595.63 294.04 1604.51 263.132 1590.47 247.622C1576.43 232.111 1544.79 237.871 1519.8 260.487C1494.81 283.103 1485.94 314.01 1499.97 329.521C1514.01 345.031 1545.65 339.271 1570.64 316.656Z" fill="#F2F2F2"/>
<path d="M1497.93 378.567C1494.56 371.605 1493.37 363.762 1493.95 356.082C1494.59 348.451 1496.84 341.042 1500.56 334.347C1504.17 327.885 1508.74 322.014 1514.13 316.94C1519.79 311.518 1526.17 306.916 1532.89 302.893C1539.98 298.646 1547.43 295.036 1554.97 291.659C1555.91 291.238 1556.85 290.82 1557.79 290.406C1558.41 290.134 1557.87 289.227 1557.26 289.498C1549.57 292.881 1541.95 296.447 1534.67 300.631C1527.7 304.628 1521.04 309.2 1515.09 314.604C1509.49 319.616 1504.66 325.434 1500.76 331.867C1496.77 338.486 1494.19 345.854 1493.16 353.514C1492.18 361.228 1492.94 369.25 1495.87 376.488C1496.22 377.371 1496.61 378.241 1497.02 379.098C1497.32 379.707 1498.22 379.174 1497.93 378.567V378.567Z" fill="#E6E6E6"/>
<path d="M1526.95 305.577C1526.61 299.84 1527.04 294.082 1528.24 288.462C1529.43 282.838 1531.37 277.398 1534.01 272.288C1535.49 269.419 1537.19 266.668 1539.09 264.057C1539.49 263.509 1538.58 262.983 1538.18 263.526C1534.77 268.232 1532 273.377 1529.96 278.823C1527.92 284.269 1526.61 289.963 1526.06 295.755C1525.76 299.02 1525.7 302.303 1525.9 305.577C1525.94 306.249 1526.99 306.254 1526.95 305.577H1526.95Z" fill="#E6E6E6"/>
<path d="M1414.37 296.977C1446.9 267.54 1458.46 227.311 1440.19 207.122C1421.91 186.933 1380.73 194.43 1348.21 223.867C1315.68 253.304 1304.13 293.533 1322.4 313.722C1340.67 333.911 1381.85 326.414 1414.37 296.977Z" fill="#F2F2F2"/>
<path d="M1319.74 377.561C1315.35 368.5 1313.8 358.29 1314.56 348.294C1315.32 338.362 1318.39 328.726 1323.16 320.004C1327.78 311.557 1333.89 303.995 1340.83 297.347C1348.19 290.29 1356.5 284.299 1365.24 279.064C1374.47 273.535 1384.17 268.837 1393.98 264.441C1395.2 263.893 1396.42 263.349 1397.65 262.81C1398.45 262.456 1397.76 261.275 1396.96 261.628C1386.96 266.032 1377.04 270.673 1367.55 276.119C1358.49 281.321 1349.82 287.273 1342.08 294.306C1334.85 300.867 1328.42 308.372 1323.42 316.775C1318.23 325.391 1314.87 334.981 1313.53 344.951C1312.25 354.992 1313.24 365.434 1317.05 374.855C1317.51 376.004 1318.02 377.136 1318.56 378.252C1318.94 379.045 1320.12 378.351 1319.74 377.561V377.561Z" fill="#E6E6E6"/>
<path d="M1357.51 282.556C1357.06 275.089 1357.62 267.595 1359.19 260.279C1360.74 252.959 1363.27 245.879 1366.7 239.228C1368.63 235.493 1370.84 231.912 1373.31 228.514C1373.83 227.801 1372.65 227.117 1372.13 227.823C1367.69 233.948 1364.09 240.645 1361.43 247.733C1358.77 254.822 1357.06 262.233 1356.36 269.772C1355.96 274.022 1355.89 278.296 1356.15 282.556C1356.2 283.432 1357.57 283.438 1357.51 282.556L1357.51 282.556Z" fill="#E6E6E6"/>
<path d="M1477.82 184.627C1469.61 184.627 1461.43 178.983 1454.78 168.735C1448.94 159.724 1445.31 148.523 1445.31 139.504C1445.31 135.235 1446.16 131.009 1447.79 127.065C1449.42 123.122 1451.82 119.538 1454.83 116.52C1457.85 113.502 1461.44 111.108 1465.38 109.474C1469.32 107.841 1473.55 107 1477.82 107C1482.09 107 1486.31 107.841 1490.26 109.474C1494.2 111.108 1497.78 113.502 1500.8 116.52C1503.82 119.538 1506.21 123.122 1507.85 127.065C1509.48 131.009 1510.32 135.235 1510.32 139.504C1510.32 148.523 1506.69 159.724 1500.85 168.735C1494.21 178.983 1486.03 184.627 1477.82 184.627ZM1477.82 107.765C1469.4 107.774 1461.34 111.121 1455.39 117.071C1449.44 123.022 1446.09 131.089 1446.08 139.504C1446.08 157.021 1460.3 183.862 1477.82 183.862C1495.34 183.862 1509.56 157.021 1509.56 139.504C1509.55 131.089 1506.2 123.022 1500.25 117.071C1494.3 111.121 1486.23 107.774 1477.82 107.765V107.765Z" fill="#3F3D56"/>
<path d="M1480.88 191.51H1474.75C1474.47 191.51 1474.19 191.446 1473.93 191.322C1473.67 191.198 1473.44 191.018 1473.26 190.795C1473.08 190.571 1472.96 190.311 1472.89 190.032C1472.83 189.753 1472.83 189.463 1472.89 189.184L1474.07 183.862H1481.57L1482.75 189.184C1482.81 189.463 1482.81 189.753 1482.75 190.032C1482.68 190.311 1482.55 190.571 1482.37 190.795C1482.2 191.018 1481.97 191.198 1481.71 191.322C1481.45 191.446 1481.17 191.51 1480.88 191.51H1480.88ZM1474.68 184.627L1473.63 189.349C1473.6 189.517 1473.6 189.691 1473.64 189.858C1473.68 190.026 1473.75 190.182 1473.86 190.316C1473.97 190.45 1474.1 190.558 1474.26 190.633C1474.41 190.707 1474.58 190.745 1474.75 190.745H1480.88C1481.05 190.745 1481.22 190.707 1481.38 190.633C1481.53 190.558 1481.67 190.45 1481.78 190.316C1481.89 190.182 1481.96 190.026 1482 189.858C1482.04 189.691 1482.04 189.517 1482 189.349L1480.95 184.627H1474.68Z" fill="#3F3D56"/>
<path d="M1462.69 116.507C1457.64 119.571 1454.02 124.507 1452.6 130.238C1452.2 131.832 1452 133.465 1451.98 135.107C1451.98 135.255 1452.04 135.396 1452.15 135.5C1452.26 135.603 1452.4 135.661 1452.55 135.661C1452.7 135.661 1452.84 135.603 1452.95 135.5C1453.05 135.396 1453.12 135.255 1453.12 135.107C1453.24 129.531 1455.55 124.225 1459.56 120.343C1460.68 119.253 1461.92 118.298 1463.27 117.497C1463.4 117.418 1463.49 117.293 1463.52 117.148C1463.56 117.004 1463.53 116.851 1463.46 116.722C1463.38 116.594 1463.26 116.5 1463.12 116.459C1462.97 116.419 1462.82 116.436 1462.69 116.507H1462.69Z" fill="#3F3D56"/>
<path d="M1472.51 185.348C1479.44 184.993 1487.32 184.804 1492.72 189.916C1494.98 192.048 1496.4 194.905 1496.31 198.046C1496.22 201.464 1494.48 204.666 1492.33 207.234C1487.69 212.761 1480.89 216.218 1474.37 219.003C1467.44 221.964 1460.21 224.276 1453.56 227.849C1447.71 230.986 1442.26 235.22 1438.73 240.925C1436.99 243.69 1435.83 246.781 1435.34 250.009C1434.88 253.244 1435.05 256.537 1435.82 259.711C1437.38 266.217 1441.21 271.967 1446.31 276.24C1451.47 280.564 1457.73 283.443 1464.21 285.163C1471.91 287.205 1479.92 287.668 1487.85 287.714C1496.04 287.761 1504.24 287.361 1512.42 287.82C1514.41 287.931 1516.4 288.096 1518.38 288.326C1519.11 288.411 1519.1 287.263 1518.38 287.178C1510.2 286.231 1501.96 286.448 1493.75 286.541C1485.7 286.632 1477.58 286.604 1469.63 285.183C1462.78 283.957 1456.06 281.661 1450.25 277.765C1444.68 274.034 1440.14 268.802 1437.84 262.454C1435.6 256.253 1435.62 249.389 1438.63 243.445C1441.63 237.492 1446.88 232.989 1452.58 229.703C1459.16 225.911 1466.4 223.538 1473.39 220.647C1479.99 217.916 1486.75 214.659 1491.82 209.496C1494.17 207.105 1496.18 204.195 1497.04 200.921C1497.46 199.39 1497.56 197.789 1497.34 196.216C1497.11 194.644 1496.57 193.135 1495.74 191.782C1494.07 189.237 1491.7 187.236 1488.91 186.028C1485.55 184.512 1481.81 184.075 1478.15 184.038C1476.27 184.019 1474.39 184.104 1472.51 184.2C1471.77 184.238 1471.77 185.385 1472.51 185.348H1472.51Z" fill="#3F3D56"/>
<path d="M1469.96 322.506C1470.33 322.036 1470.6 321.49 1470.74 320.906C1470.88 320.322 1470.89 319.715 1470.77 319.126C1470.65 318.538 1470.41 317.983 1470.05 317.5C1469.69 317.018 1469.23 316.619 1468.7 316.333L1459.34 280.109L1451.19 283.776L1462.96 318.23C1462.54 319.149 1462.47 320.191 1462.76 321.158C1463.06 322.125 1463.7 322.95 1464.56 323.477C1465.42 324.004 1466.45 324.197 1467.45 324.018C1468.44 323.838 1469.34 323.301 1469.96 322.506V322.506Z" fill="#FFB8B8"/>
<path d="M1461.53 286.178L1452.48 288.317C1452.22 288.377 1451.95 288.382 1451.69 288.33C1451.43 288.278 1451.19 288.171 1450.97 288.016C1450.76 287.86 1450.58 287.661 1450.45 287.43C1450.32 287.2 1450.24 286.944 1450.22 286.68L1449.43 277.439C1449.13 276.119 1449.36 274.733 1450.08 273.584C1450.79 272.435 1451.94 271.617 1453.26 271.31C1454.57 271.002 1455.96 271.23 1457.11 271.944C1458.26 272.658 1459.08 273.798 1459.39 275.116L1462.82 283.704C1462.92 283.95 1462.96 284.214 1462.95 284.479C1462.93 284.743 1462.86 285.002 1462.74 285.236C1462.62 285.471 1462.45 285.677 1462.24 285.839C1462.03 286.002 1461.79 286.118 1461.53 286.178V286.178Z" fill="#6C63FF"/>
<path d="M1430.64 368.243C1430.25 368.243 1429.86 368.107 1429.56 367.857C1429.25 367.607 1429.04 367.259 1428.96 366.872L1424.4 344.977C1424.12 343.598 1424.11 342.176 1424.38 340.794C1424.64 339.412 1425.18 338.096 1425.96 336.922L1440.33 315.366V299.211L1457.02 295.451L1457.09 295.51C1465.74 302.577 1465.24 311.289 1465.19 311.962L1481.59 365.203C1481.67 365.46 1481.68 365.733 1481.64 365.998C1481.59 366.264 1481.49 366.515 1481.33 366.732C1481.17 366.948 1480.96 367.124 1480.72 367.246C1480.48 367.367 1480.21 367.43 1479.94 367.43H1475.02C1474.67 367.431 1474.34 367.329 1474.05 367.136C1473.77 366.943 1473.55 366.668 1473.42 366.348L1455.75 324.142L1434.95 341.258C1434.79 341.395 1434.65 341.571 1434.57 341.769C1434.49 341.968 1434.45 342.184 1434.47 342.4L1436.39 365.934C1436.43 366.381 1436.29 366.825 1436 367.171C1435.72 367.517 1435.31 367.737 1434.86 367.784L1430.84 368.232C1430.77 368.239 1430.71 368.242 1430.64 368.243V368.243Z" fill="#2F2E41"/>
<path d="M1451.97 265.296C1457.16 265.296 1461.36 261.091 1461.36 255.904C1461.36 250.717 1457.16 246.512 1451.97 246.512C1446.78 246.512 1442.58 250.717 1442.58 255.904C1442.58 261.091 1446.78 265.296 1451.97 265.296Z" fill="#FFB8B8"/>
<path d="M1441.22 301.003C1440.88 301.003 1440.54 300.902 1440.26 300.711C1439.98 300.521 1439.75 300.251 1439.62 299.935C1436.48 292.21 1436.53 282.454 1437.91 276.658C1438.5 274.204 1439.93 272.034 1441.95 270.526C1443.97 269.019 1446.46 268.269 1448.98 268.409H1448.98C1450.48 268.488 1451.95 268.881 1453.29 269.56C1454.63 270.238 1455.81 271.19 1456.76 272.352C1457.71 273.514 1458.41 274.862 1458.81 276.309C1459.21 277.756 1459.3 279.271 1459.09 280.757C1458.35 285.741 1458.05 292.761 1457.96 295.548C1457.94 295.92 1457.81 296.277 1457.57 296.567C1457.34 296.857 1457.02 297.063 1456.66 297.155L1441.64 300.951C1441.5 300.985 1441.36 301.003 1441.22 301.003V301.003Z" fill="#6C63FF"/>
<path d="M1441.39 244.933C1441.2 245.014 1441 245.079 1440.79 245.128L1434.18 262.901L1437.11 266.456L1432.32 271.58L1426.52 265.791C1426.05 265.323 1425.75 264.716 1425.65 264.061C1425.56 263.405 1425.68 262.737 1426 262.157L1436.36 243.232C1435.95 242.525 1435.77 241.711 1435.84 240.899C1435.91 240.087 1436.22 239.314 1436.74 238.684C1437.26 238.054 1437.95 237.597 1438.74 237.373C1439.52 237.148 1440.35 237.168 1441.13 237.429C1441.9 237.69 1442.57 238.18 1443.06 238.834C1443.55 239.487 1443.82 240.274 1443.85 241.088C1443.88 241.903 1443.66 242.707 1443.22 243.394C1442.78 244.081 1442.15 244.618 1441.39 244.933V244.933Z" fill="#FFB8B8"/>
<path d="M1430.63 271.071L1435.9 263.409C1436.05 263.191 1436.25 263.008 1436.48 262.872C1436.7 262.736 1436.96 262.651 1437.22 262.622C1437.48 262.593 1437.75 262.622 1438 262.705C1438.25 262.789 1438.48 262.925 1438.68 263.105L1445.46 269.428C1446.57 270.202 1447.33 271.385 1447.57 272.718C1447.81 274.051 1447.51 275.425 1446.74 276.538C1445.97 277.652 1444.79 278.414 1443.46 278.657C1442.13 278.901 1440.75 278.606 1439.64 277.838L1431.33 273.77C1431.1 273.653 1430.89 273.487 1430.72 273.282C1430.55 273.077 1430.43 272.838 1430.36 272.582C1430.3 272.326 1430.29 272.059 1430.33 271.798C1430.38 271.537 1430.48 271.289 1430.63 271.071H1430.63Z" fill="#6C63FF"/>
<path d="M1451.43 266.668C1450.75 265.918 1451.15 264.629 1451.77 263.828C1452.4 263.027 1453.25 262.347 1453.49 261.331C1453.91 259.601 1452.34 258.024 1450.78 257.466C1449.21 256.907 1447.46 256.863 1446.08 255.883C1443.99 254.398 1443.52 251.012 1444.72 248.634C1445.92 246.256 1448.43 244.893 1450.92 244.689C1453.41 244.485 1455.88 245.295 1458.16 246.403C1460.36 247.474 1462.49 248.87 1464.04 250.882C1465.59 252.894 1466.5 255.598 1466.05 258.175C1465.51 261.322 1463.04 263.751 1460.3 264.937C1457.56 266.123 1454.55 266.28 1451.6 266.422L1451.43 266.668Z" fill="#2F2E41"/>
<path d="M1461.88 248.737C1464.77 245.885 1468.62 244.232 1472.67 244.11C1476.72 243.988 1480.67 245.407 1483.72 248.081C1488.8 252.542 1490.74 259.889 1496.07 264.045C1500.88 267.787 1508.09 268.066 1513.17 264.706C1510.85 267.415 1508.49 270.16 1505.52 272.135C1502.55 274.11 1498.84 275.251 1495.38 274.404C1491.31 273.409 1488.35 269.947 1486.06 266.448C1483.76 262.949 1481.73 259.116 1478.4 256.582C1475.88 254.673 1472.79 253.654 1469.63 253.683C1467.69 253.707 1465.71 254.123 1463.84 253.624C1461.97 253.124 1460.25 251.214 1460.87 249.379L1461.88 248.737Z" fill="#2F2E41"/>
</g>
</g>
<defs>
<clipPath id="clip0_264_985">
<rect width="1920" height="350" fill="white"/>
</clipPath>
<clipPath id="clip1_264_985">
<rect width="311.127" height="272.367" fill="white" transform="translate(1286 107)"/>
</clipPath>
</defs>
</svg>
