<svg width="1200" height="350" viewBox="0 0 1200 350" fill="none" xmlns="http://www.w3.org/2000/svg">
<rect width="1200" height="350" fill="#FAFAFA"/>
<path d="M67.8712 145.159C67.5212 145.159 67.1743 145.094 66.8482 144.968C66.321 144.767 65.8678 144.413 65.5489 143.951C65.23 143.489 65.0606 142.943 65.063 142.384V113.419C65.0619 112.439 64.668 111.499 63.9677 110.805C63.2675 110.112 62.3181 109.722 61.3278 109.721H55.3366C52.8612 109.718 50.488 108.744 48.7377 107.011C46.9873 105.278 46.0028 102.928 46 100.478V42.2432C46.0028 39.7926 46.9873 37.4431 48.7377 35.7103C50.488 33.9775 52.8612 33.0027 55.3366 33H266.663C269.139 33.0027 271.512 33.9775 273.262 35.7103C275.013 37.4431 275.997 39.7926 276 42.2432V100.478C275.997 102.928 275.013 105.278 273.262 107.011C271.512 108.743 269.139 109.718 266.663 109.721H103.549C103.031 109.722 102.519 109.828 102.045 110.035C101.571 110.241 101.146 110.543 100.796 110.92L69.9283 144.257C69.6676 144.541 69.35 144.768 68.9958 144.923C68.6416 145.078 68.2586 145.159 67.8712 145.159V145.159ZM55.3366 34.2317C53.1911 34.2341 51.1341 35.0789 49.617 36.5808C48.0999 38.0828 47.2465 40.1191 47.2441 42.2432V100.478C47.2465 102.602 48.0999 104.638 49.617 106.14C51.1341 107.642 53.1911 108.487 55.3366 108.489H61.3278C62.6479 108.491 63.9136 109.011 64.8471 109.935C65.7805 110.859 66.3056 112.112 66.3071 113.419V142.383C66.3071 142.694 66.4018 142.997 66.5789 143.254C66.756 143.51 67.0071 143.707 67.2994 143.82C67.5917 143.932 67.9116 143.955 68.217 143.884C68.5225 143.814 68.7993 143.654 69.0112 143.425L99.8786 110.088C100.346 109.585 100.913 109.183 101.545 108.908C102.176 108.633 102.859 108.49 103.549 108.489H266.663C268.809 108.487 270.866 107.642 272.383 106.14C273.9 104.638 274.753 102.602 274.756 100.478V42.2432C274.753 40.1191 273.9 38.0828 272.383 36.5808C270.866 35.0789 268.809 34.2341 266.663 34.2317H55.3366Z" fill="#CCCCCC"/>
<path d="M68.9018 59.2283C73.4139 59.2283 77.0716 55.6071 77.0716 51.1402C77.0716 46.6732 73.4139 43.052 68.9018 43.052C64.3897 43.052 60.7319 46.6732 60.7319 51.1402C60.7319 55.6071 64.3897 59.2283 68.9018 59.2283Z" fill="#CCCCCC"/>
<path d="M257.132 95.8947H64.8678C64.2952 95.8954 63.728 95.7843 63.1988 95.5678C62.6695 95.3513 62.1886 95.0337 61.7834 94.6331C61.3783 94.2325 61.0568 93.7567 60.8375 93.233C60.6182 92.7093 60.5054 92.1479 60.5054 91.581C60.5054 91.0141 60.6182 90.4528 60.8375 89.9291C61.0568 89.4054 61.3783 88.9296 61.7834 88.529C62.1886 88.1283 62.6695 87.8107 63.1988 87.5942C63.728 87.3777 64.2952 87.2667 64.8678 87.2673H257.132C257.704 87.2667 258.271 87.3777 258.801 87.5942C259.33 87.8107 259.811 88.1283 260.216 88.529C260.621 88.9296 260.943 89.4054 261.162 89.9291C261.381 90.4528 261.494 91.0141 261.494 91.581C261.494 92.1479 261.381 92.7093 261.162 93.233C260.943 93.7567 260.621 94.2325 260.216 94.6331C259.811 95.0337 259.33 95.3513 258.801 95.5678C258.271 95.7843 257.704 95.8954 257.132 95.8947V95.8947Z" fill="#CCCCCC"/>
<path d="M194.496 77.5615H64.8678C64.2952 77.5621 63.728 77.451 63.1988 77.2346C62.6695 77.0181 62.1886 76.7005 61.7834 76.2998C61.3783 75.8992 61.0568 75.4234 60.8375 74.8997C60.6182 74.376 60.5054 73.8147 60.5054 73.2478C60.5054 72.6808 60.6182 72.1195 60.8375 71.5958C61.0568 71.0721 61.3783 70.5963 61.7834 70.1957C62.1886 69.7951 62.6695 69.4774 63.1988 69.261C63.728 69.0445 64.2952 68.9334 64.8678 68.9341H194.496C195.069 68.9334 195.636 69.0445 196.165 69.261C196.694 69.4774 197.175 69.7951 197.581 70.1957C197.986 70.5963 198.307 71.0721 198.526 71.5958C198.746 72.1195 198.859 72.6808 198.859 73.2478C198.859 73.8147 198.746 74.376 198.526 74.8997C198.307 75.4234 197.986 75.8992 197.581 76.2998C197.175 76.7005 196.694 77.0181 196.165 77.2346C195.636 77.451 195.069 77.5621 194.496 77.5615V77.5615Z" fill="#CCCCCC"/>
<path d="M1132.13 325.77C1131.74 325.769 1131.36 325.687 1131 325.528C1130.65 325.369 1130.33 325.137 1130.07 324.847L1099.2 290.734C1098.85 290.348 1098.43 290.039 1097.95 289.828C1097.48 289.617 1096.97 289.507 1096.45 289.507H933.337C930.861 289.504 928.488 288.507 926.738 286.733C924.987 284.96 924.003 282.556 924 280.048V220.458C924.003 217.951 924.987 215.547 926.738 213.773C928.488 212 930.861 211.003 933.337 211H1144.66C1147.14 211.003 1149.51 212 1151.26 213.773C1153.01 215.547 1154 217.951 1154 220.458V280.048C1154 282.556 1153.01 284.96 1151.26 286.733C1149.51 288.507 1147.14 289.504 1144.66 289.507H1138.67C1137.68 289.508 1136.73 289.907 1136.03 290.616C1135.33 291.326 1134.94 292.288 1134.94 293.291V322.93C1134.94 323.502 1134.77 324.061 1134.45 324.533C1134.13 325.006 1133.68 325.368 1133.15 325.574C1132.83 325.703 1132.48 325.769 1132.13 325.77V325.77ZM933.337 212.26C931.191 212.263 929.134 213.127 927.617 214.664C926.1 216.201 925.247 218.285 925.244 220.458V280.048C925.247 282.222 926.1 284.306 927.617 285.843C929.134 287.379 931.191 288.244 933.337 288.246H1096.45C1097.14 288.247 1097.82 288.393 1098.46 288.674C1099.09 288.956 1099.65 289.367 1100.12 289.882L1130.99 323.995C1131.2 324.229 1131.48 324.393 1131.78 324.465C1132.09 324.537 1132.41 324.514 1132.7 324.399C1132.99 324.284 1133.24 324.082 1133.42 323.82C1133.6 323.558 1133.69 323.247 1133.69 322.93V293.291C1133.69 291.953 1134.22 290.671 1135.15 289.726C1136.09 288.78 1137.35 288.248 1138.67 288.246H1144.66C1146.81 288.244 1148.87 287.379 1150.38 285.843C1151.9 284.306 1152.75 282.222 1152.76 280.048V220.458C1152.75 218.285 1151.9 216.201 1150.38 214.664C1148.87 213.127 1146.81 212.263 1144.66 212.26L933.337 212.26Z" fill="#3F3D56"/>
<path d="M946.901 237.287C951.413 237.287 955.071 233.581 955.071 229.011C955.071 224.44 951.413 220.734 946.901 220.734C942.389 220.734 938.731 224.44 938.731 229.011C938.731 233.581 942.389 237.287 946.901 237.287Z" fill="#3F3D56"/>
<path d="M1135.13 274.806H942.868C941.712 274.806 940.604 274.341 939.787 273.514C938.97 272.686 938.511 271.563 938.511 270.392C938.511 269.222 938.97 268.099 939.787 267.271C940.604 266.443 941.712 265.978 942.868 265.978H1135.13C1136.29 265.978 1137.4 266.443 1138.21 267.271C1139.03 268.099 1139.49 269.222 1139.49 270.392C1139.49 271.563 1139.03 272.686 1138.21 273.514C1137.4 274.341 1136.29 274.806 1135.13 274.806V274.806Z" fill="#6C63FF"/>
<path d="M1072.5 256.047H942.868C942.295 256.047 941.728 255.934 941.199 255.712C940.67 255.491 940.189 255.166 939.783 254.756C939.378 254.346 939.057 253.859 938.838 253.323C938.618 252.787 938.505 252.213 938.505 251.633C938.505 251.052 938.618 250.478 938.838 249.942C939.057 249.406 939.378 248.919 939.783 248.509C940.189 248.1 940.67 247.775 941.199 247.553C941.728 247.331 942.295 247.218 942.868 247.219H1072.5C1073.07 247.218 1073.64 247.331 1074.17 247.553C1074.69 247.775 1075.18 248.1 1075.58 248.509C1075.99 248.919 1076.31 249.406 1076.53 249.942C1076.75 250.478 1076.86 251.052 1076.86 251.633C1076.86 252.213 1076.75 252.787 1076.53 253.323C1076.31 253.859 1075.99 254.346 1075.58 254.756C1075.18 255.166 1074.69 255.491 1074.17 255.712C1073.64 255.934 1073.07 256.047 1072.5 256.047Z" fill="#6C63FF"/>
</svg>
