<svg width="1920" height="350" viewBox="0 0 1920 350" fill="none" xmlns="http://www.w3.org/2000/svg">
<rect width="1920" height="350" fill="#FAFAFA"/>
<path d="M208.871 192.159C208.521 192.159 208.174 192.094 207.848 191.968C207.321 191.767 206.868 191.413 206.549 190.951C206.23 190.489 206.061 189.943 206.063 189.384V160.419C206.062 159.439 205.668 158.499 204.968 157.805C204.267 157.112 203.318 156.722 202.328 156.721H196.337C193.861 156.718 191.488 155.744 189.738 154.011C187.987 152.278 187.003 149.928 187 147.478V89.2432C187.003 86.7926 187.987 84.4431 189.738 82.7103C191.488 80.9775 193.861 80.0027 196.337 80H407.663C410.139 80.0027 412.512 80.9775 414.262 82.7103C416.013 84.4431 416.997 86.7926 417 89.2432V147.478C416.997 149.928 416.013 152.278 414.262 154.011C412.512 155.743 410.139 156.718 407.663 156.721H244.549C244.031 156.722 243.519 156.828 243.045 157.035C242.571 157.241 242.146 157.543 241.796 157.92L210.928 191.257C210.668 191.541 210.35 191.768 209.996 191.923C209.642 192.078 209.259 192.159 208.871 192.159V192.159ZM196.337 81.2317C194.191 81.2341 192.134 82.0789 190.617 83.5808C189.1 85.0828 188.247 87.1191 188.244 89.2432V147.478C188.247 149.602 189.1 151.638 190.617 153.14C192.134 154.642 194.191 155.487 196.337 155.489H202.328C203.648 155.491 204.914 156.011 205.847 156.935C206.781 157.859 207.306 159.112 207.307 160.419V189.383C207.307 189.694 207.402 189.997 207.579 190.254C207.756 190.51 208.007 190.707 208.299 190.82C208.592 190.932 208.912 190.955 209.217 190.884C209.522 190.814 209.799 190.654 210.011 190.425L240.879 157.088C241.346 156.585 241.913 156.183 242.545 155.908C243.176 155.633 243.859 155.49 244.549 155.489H407.663C409.809 155.487 411.866 154.642 413.383 153.14C414.9 151.638 415.753 149.602 415.756 147.478V89.2432C415.753 87.1191 414.9 85.0828 413.383 83.5808C411.866 82.0789 409.809 81.2341 407.663 81.2317H196.337Z" fill="#CCCCCC"/>
<path d="M209.902 106.228C214.414 106.228 218.072 102.607 218.072 98.1402C218.072 93.6732 214.414 90.052 209.902 90.052C205.39 90.052 201.732 93.6732 201.732 98.1402C201.732 102.607 205.39 106.228 209.902 106.228Z" fill="#CCCCCC"/>
<path d="M398.132 142.895H205.868C205.295 142.895 204.728 142.784 204.199 142.568C203.67 142.351 203.189 142.034 202.783 141.633C202.378 141.232 202.057 140.757 201.838 140.233C201.618 139.709 201.505 139.148 201.505 138.581C201.505 138.014 201.618 137.453 201.838 136.929C202.057 136.405 202.378 135.93 202.783 135.529C203.189 135.128 203.67 134.811 204.199 134.594C204.728 134.378 205.295 134.267 205.868 134.267H398.132C398.704 134.267 399.271 134.378 399.801 134.594C400.33 134.811 400.811 135.128 401.216 135.529C401.621 135.93 401.943 136.405 402.162 136.929C402.381 137.453 402.494 138.014 402.494 138.581C402.494 139.148 402.381 139.709 402.162 140.233C401.943 140.757 401.621 141.232 401.216 141.633C400.811 142.034 400.33 142.351 399.801 142.568C399.271 142.784 398.704 142.895 398.132 142.895V142.895Z" fill="#CCCCCC"/>
<path d="M335.496 124.561H205.868C205.295 124.562 204.728 124.451 204.199 124.235C203.67 124.018 203.189 123.7 202.783 123.3C202.378 122.899 202.057 122.423 201.838 121.9C201.618 121.376 201.505 120.815 201.505 120.248C201.505 119.681 201.618 119.119 201.838 118.596C202.057 118.072 202.378 117.596 202.783 117.196C203.189 116.795 203.67 116.477 204.199 116.261C204.728 116.044 205.295 115.933 205.868 115.934H335.496C336.069 115.933 336.636 116.044 337.165 116.261C337.694 116.477 338.175 116.795 338.581 117.196C338.986 117.596 339.307 118.072 339.526 118.596C339.746 119.119 339.859 119.681 339.859 120.248C339.859 120.815 339.746 121.376 339.526 121.9C339.307 122.423 338.986 122.899 338.581 123.3C338.175 123.7 337.694 124.018 337.165 124.235C336.636 124.451 336.069 124.562 335.496 124.561V124.561Z" fill="#CCCCCC"/>
<path d="M1739.13 306.77C1738.74 306.769 1738.36 306.687 1738 306.528C1737.65 306.369 1737.33 306.137 1737.07 305.847L1706.2 271.734C1705.85 271.348 1705.43 271.039 1704.95 270.828C1704.48 270.617 1703.97 270.507 1703.45 270.507H1540.34C1537.86 270.504 1535.49 269.507 1533.74 267.733C1531.99 265.96 1531 263.556 1531 261.048V201.458C1531 198.951 1531.99 196.547 1533.74 194.773C1535.49 193 1537.86 192.003 1540.34 192H1751.66C1754.14 192.003 1756.51 193 1758.26 194.773C1760.01 196.547 1761 198.951 1761 201.458V261.048C1761 263.556 1760.01 265.96 1758.26 267.733C1756.51 269.507 1754.14 270.504 1751.66 270.507H1745.67C1744.68 270.508 1743.73 270.907 1743.03 271.616C1742.33 272.326 1741.94 273.288 1741.94 274.291V303.93C1741.94 304.502 1741.77 305.061 1741.45 305.533C1741.13 306.006 1740.68 306.368 1740.15 306.574C1739.83 306.703 1739.48 306.769 1739.13 306.77V306.77ZM1540.34 193.26C1538.19 193.263 1536.13 194.127 1534.62 195.664C1533.1 197.201 1532.25 199.285 1532.24 201.458V261.048C1532.25 263.222 1533.1 265.306 1534.62 266.843C1536.13 268.379 1538.19 269.244 1540.34 269.246H1703.45C1704.14 269.247 1704.82 269.393 1705.46 269.674C1706.09 269.956 1706.65 270.367 1707.12 270.882L1737.99 304.995C1738.2 305.229 1738.48 305.393 1738.78 305.465C1739.09 305.537 1739.41 305.514 1739.7 305.399C1739.99 305.284 1740.24 305.082 1740.42 304.82C1740.6 304.558 1740.69 304.247 1740.69 303.93V274.291C1740.69 272.953 1741.22 271.671 1742.15 270.726C1743.09 269.78 1744.35 269.248 1745.67 269.246H1751.66C1753.81 269.244 1755.87 268.379 1757.38 266.843C1758.9 265.306 1759.75 263.222 1759.76 261.048V201.458C1759.75 199.285 1758.9 197.201 1757.38 195.664C1755.87 194.127 1753.81 193.263 1751.66 193.26L1540.34 193.26Z" fill="#3F3D56"/>
<path d="M1553.9 218.287C1558.41 218.287 1562.07 214.581 1562.07 210.011C1562.07 205.44 1558.41 201.734 1553.9 201.734C1549.39 201.734 1545.73 205.44 1545.73 210.011C1545.73 214.581 1549.39 218.287 1553.9 218.287Z" fill="#3F3D56"/>
<path d="M1742.13 255.806H1549.87C1548.71 255.806 1547.6 255.341 1546.79 254.514C1545.97 253.686 1545.51 252.563 1545.51 251.392C1545.51 250.222 1545.97 249.099 1546.79 248.271C1547.6 247.443 1548.71 246.978 1549.87 246.978H1742.13C1743.29 246.978 1744.4 247.443 1745.21 248.271C1746.03 249.099 1746.49 250.222 1746.49 251.392C1746.49 252.563 1746.03 253.686 1745.21 254.514C1744.4 255.341 1743.29 255.806 1742.13 255.806V255.806Z" fill="#6C63FF"/>
<path d="M1679.5 237.047H1549.87C1549.29 237.047 1548.73 236.934 1548.2 236.712C1547.67 236.491 1547.19 236.166 1546.78 235.756C1546.38 235.346 1546.06 234.859 1545.84 234.323C1545.62 233.787 1545.5 233.213 1545.5 232.633C1545.5 232.052 1545.62 231.478 1545.84 230.942C1546.06 230.406 1546.38 229.919 1546.78 229.509C1547.19 229.1 1547.67 228.775 1548.2 228.553C1548.73 228.331 1549.29 228.218 1549.87 228.219H1679.5C1680.07 228.218 1680.64 228.331 1681.16 228.553C1681.69 228.775 1682.17 229.1 1682.58 229.509C1682.99 229.919 1683.31 230.406 1683.53 230.942C1683.75 231.478 1683.86 232.052 1683.86 232.633C1683.86 233.213 1683.75 233.787 1683.53 234.323C1683.31 234.859 1682.99 235.346 1682.58 235.756C1682.17 236.166 1681.69 236.491 1681.16 236.712C1680.64 236.934 1680.07 237.047 1679.5 237.047Z" fill="#6C63FF"/>
</svg>
