<svg width="48" height="48" viewBox="0 0 48 48" fill="none" xmlns="http://www.w3.org/2000/svg">
<rect x="0.5" y="0.5" width="47" height="47" rx="23.5" stroke="black"/>
<path d="M14.5 23.5L24 27.5V14L14.5 23.5Z" fill="#DBDBDB"/>
<path d="M33.5 23.5L24 27.5V14L33.5 23.5Z" fill="#C2C2C2"/>
<path d="M12 33L6.5 20L24 27.5L12 33Z" fill="#EEEEEE"/>
<path d="M36 33L41.5 20L24 27.5L36 33Z" fill="#D4D4D4"/>
<path d="M12.5 33L24 27.5L35 33H12.5Z" fill="#C2C2C2"/>
<path d="M18.5 19.5L14.5 23.5L6 19.5H18.5Z" fill="#C2C2C2"/>
<path d="M29 19.5L33 23.5L41.5 19.5H29Z" fill="#C2C2C2"/>
<path d="M6 19.6793L11.9487 33M6 19.6793L14.6154 23.5511M6 19.6793H18M11.9487 33H35.641M11.9487 33L23.8763 27.7129M35.641 33L42 19.6793M35.641 33L23.8763 27.7129M42 19.6793L23.8763 27.7129M42 19.6793H35.637H29.274M14.6154 23.5511L23.8462 14M14.6154 23.5511L23.8763 27.7129M23.8462 14L23.8763 27.7129M23.8462 14L29.274 19.6793M32.9744 23.5511L29.274 19.6793" stroke="black" stroke-linecap="round" stroke-linejoin="round"/>
</svg>
