<svg width="32" height="32" viewBox="0 0 32 32" fill="none" xmlns="http://www.w3.org/2000/svg">
<rect width="32" height="32" rx="16" fill="#DEDEDE"/>
<path d="M10.1694 15.7778L15.9472 18.2105V10L10.1694 15.7778Z" fill="#DBDBDB"/>
<path d="M21.7249 15.7778L15.9471 18.2105V10L21.7249 15.7778Z" fill="#C2C2C2"/>
<path d="M8.64898 21.5555L5.30396 13.649L15.9472 18.2105L8.64898 21.5555Z" fill="#EEEEEE"/>
<path d="M23.2458 21.5555L26.5908 13.649L15.9475 18.2105L23.2458 21.5555Z" fill="#D4D4D4"/>
<path d="M8.95312 21.5555L15.9473 18.2105L22.6373 21.5555H8.95312Z" fill="#C2C2C2"/>
<path d="M12.6023 13.345L10.1696 15.7778L5 13.345H12.6023Z" fill="#C2C2C2"/>
<path d="M18.9885 13.345L21.4212 15.7778L26.5908 13.345H18.9885Z" fill="#C2C2C2"/>
<path d="M5 13.4541L8.61793 21.5556M5 13.4541L10.2398 15.8089M5 13.4541H12.2982M8.61793 21.5556H23.0273M8.61793 21.5556L15.8721 18.34M23.0273 21.5556L26.8947 13.4541M23.0273 21.5556L15.8721 18.34M26.8947 13.4541L15.8721 18.34M26.8947 13.4541H23.0249H19.155M10.2398 15.8089L15.8538 10M10.2398 15.8089L15.8721 18.34M15.8538 10L15.8721 18.34M15.8538 10L19.155 13.4541M21.4055 15.8089L19.155 13.4541" stroke="black" stroke-linecap="round" stroke-linejoin="round"/>
</svg>
