<svg width="48" height="48" viewBox="0 0 48 48" fill="none" xmlns="http://www.w3.org/2000/svg">
<rect x="0.5" y="0.5" width="47" height="47" rx="23.5" stroke="black"/>
<path d="M32.5 13.5H17C19.4 18.3 18 26.1667 17 29.5H32.5C35.7 24.3 33.8333 16.6667 32.5 13.5Z" fill="black"/>
<path d="M13.4 31H9.55H9L11.2 37.1277C11.64 39.3559 14.3167 39.913 15.6 39.913H31.55C34.63 40.3586 36.5 38.9845 37.05 38.2418L42 31H36.5C35.62 33.2283 33.5667 33 32.65 33H19C14 33 13.4 32.2998 13.4 31Z" fill="#7C5D48"/>
<path d="M21.3276 6.64814C22.6854 5.90046 24.5905 5.86034 25.2586 6.22064V9.72064C23.5529 8.2948 22.0027 8.91721 21.329 9.18773L21.3276 9.18827C20.2285 9.62958 19.2802 9.15224 19 8.91805V6.26982C19.931 6.87513 20.8104 6.87327 21.3276 6.64814Z" fill="#F4303E"/>
<path d="M22.0797 7.6332C23.5072 6.86491 24.8603 7.80934 25.5605 7.98925L25.4078 9.32342C23.6298 8.66438 22.5157 8.87617 21.797 8.94432C20.6233 9.05562 19.6288 8.81368 19.3369 8.70551L19.3929 7.66248C20.493 8.24254 20.9025 8.26673 22.0797 7.6332Z" fill="#CB2934"/>
<path d="M25.5 6.00002L25.7373 5.55993C25.8991 5.64719 26 5.81619 26 6.00002H25.5ZM21.569 6.42751L21.8101 6.8655L21.7898 6.8767L21.7685 6.88597L21.569 6.42751ZM19.2414 6.0492H18.7414V5.12774L19.5139 5.63L19.2414 6.0492ZM19.2414 8.69742L18.9207 9.08104L18.7414 8.93114V8.69742H19.2414ZM21.569 8.96765L21.7553 9.43164L21.569 8.96765ZM25.5 9.50001H26V10.5696L25.1793 9.88364L25.5 9.50001ZM25.2627 6.4401C25.1742 6.39237 25.0001 6.33785 24.7353 6.30611C24.4792 6.2754 24.1696 6.2697 23.833 6.29667C23.1552 6.35099 22.4122 6.53394 21.8101 6.8655L21.3278 5.98953C22.0834 5.57341 22.972 5.36246 23.7532 5.29987C24.1461 5.26839 24.523 5.27349 24.8544 5.31322C25.1772 5.35193 25.4918 5.42751 25.7373 5.55993L25.2627 6.4401ZM21.7685 6.88597C21.0745 7.18803 20.0185 7.15081 18.9688 6.46839L19.5139 5.63C20.3263 6.1582 21.0289 6.11726 21.3694 5.96906L21.7685 6.88597ZM19.7414 6.0492V8.69742H18.7414V6.0492H19.7414ZM19.562 8.31379C19.7432 8.46518 20.5001 8.85802 21.3827 8.50365L21.7553 9.43164C20.4396 9.9599 19.2999 9.39805 18.9207 9.08104L19.562 8.31379ZM21.3827 8.50365C21.7216 8.36757 22.3528 8.11068 23.1384 8.09752C23.9405 8.08408 24.8726 8.32386 25.8207 9.11639L25.1793 9.88364C24.4205 9.24937 23.7236 9.08785 23.1552 9.09738C22.5702 9.10717 22.0894 9.2975 21.7553 9.43164L21.3827 8.50365ZM26 6.00002V9.50001H25V6.00002H26Z" fill="black"/>
<path d="M24.5064 24.6003C24.1252 24.6352 24.045 24.3967 24.0525 24.2731C24.0888 24.0288 23.8407 23.9823 23.7121 23.9895C23.4851 23.9895 23.2809 23.8805 23.2582 23.7278C23.24 23.6056 23.2052 23.2116 23.1901 23.0298C23.1603 22.6713 22.9971 22.1914 22.9178 21.9392C22.8451 21.5902 22.8572 21.2121 22.8724 21.0667C22.945 19.8975 23.9315 19.0381 24.4156 18.7545C25.7047 17.9169 27.1466 18.4492 27.7064 18.82C29.1362 19.8015 29.1589 21.0667 29.1589 21.3502C29.1589 21.5771 29.0379 22.0555 28.9774 22.2663C28.9205 22.4313 28.8715 22.7026 28.8639 22.8335L28.8185 23.6623C28.7731 23.9677 28.4554 23.9677 28.2738 23.9895C28.0923 24.0113 27.9788 23.9459 27.9107 24.2949C27.8562 24.5741 27.5854 24.6148 27.4568 24.6003H24.5064Z" fill="white"/>
<path d="M24.3361 22.9231C23.9004 22.7661 23.7763 22.2906 23.7688 22.0724C23.7688 21.514 24.5253 21.4617 24.9035 21.5053C25.4301 21.5228 25.6071 21.886 25.6071 22.0724C25.5708 22.4738 25.3347 22.7341 25.2213 22.8141C24.8944 23.0584 24.495 22.9886 24.3361 22.9231Z" fill="black"/>
<path d="M26.9687 22.9231C26.5329 22.7661 26.4089 22.2906 26.4013 22.0724C26.4013 21.514 27.1578 21.4617 27.5361 21.5053C28.0626 21.5228 28.2396 21.886 28.2396 22.0724C28.2033 22.4738 27.9673 22.7341 27.8538 22.8141C27.527 23.0584 27.1276 22.9886 26.9687 22.9231Z" fill="black"/>
<path d="M26.2198 23.1948C26.0155 22.8458 25.8567 23.0639 25.7659 23.1948L25.5843 23.4347C25.4481 23.6746 25.5994 23.7764 25.6978 23.8055H26.3106C26.5103 23.7008 26.4392 23.5147 26.3786 23.4347L26.2198 23.1948Z" fill="black"/>
<path d="M23.5158 18.9686C23.7699 18.7069 23.4401 18.4088 23.2434 18.2924C23.4794 17.9783 23.4779 17.6817 23.4477 17.5726C23.2843 17.0491 22.8349 16.9764 22.6306 17.0055C21.9589 17.0753 21.8666 17.6017 21.9044 17.8562C21.4505 17.8038 21.2008 18.0525 21.1328 18.1834C20.8241 18.7069 21.1252 19.0849 21.3143 19.2085C21.7864 19.5226 22.1919 19.2958 22.3356 19.1431C22.6443 19.5445 22.9181 19.5139 23.0165 19.4485C23.077 19.3976 23.2616 19.2304 23.5158 18.9686Z" fill="white"/>
<path d="M28.4909 18.9686C28.2367 18.7069 28.5665 18.4088 28.7632 18.2924C28.5272 17.9783 28.5287 17.6817 28.559 17.5726C28.7224 17.0491 29.1717 16.9764 29.376 17.0055C30.0478 17.0753 30.1401 17.6017 30.1022 17.8562C30.5561 17.8038 30.8058 18.0525 30.8739 18.1834C31.1825 18.7069 30.8814 19.0849 30.6923 19.2085C30.2202 19.5226 29.8148 19.2958 29.671 19.1431C29.3624 19.5445 29.0885 19.5139 28.9902 19.4485C28.9296 19.3976 28.7451 19.2304 28.4909 18.9686Z" fill="white"/>
<path d="M28.5363 24.5863C28.2821 24.848 28.6119 25.1461 28.8086 25.2624C28.5726 25.5765 28.5741 25.8732 28.6044 25.9823C28.7678 26.5058 29.2171 26.5785 29.4214 26.5494C30.0932 26.4796 30.1855 25.9532 30.1476 25.6987C30.6015 25.751 30.8512 25.5024 30.9193 25.3715C31.2279 24.848 30.9268 24.4699 30.7377 24.3463C30.2657 24.0322 29.8602 24.2591 29.7164 24.4118C29.4078 24.0104 29.1339 24.0409 29.0356 24.1064C28.9751 24.1573 28.7905 24.3245 28.5363 24.5863Z" fill="white"/>
<path d="M23.5158 24.5863C23.7699 24.848 23.4401 25.1461 23.2434 25.2624C23.4794 25.5765 23.4779 25.8732 23.4477 25.9823C23.2843 26.5058 22.8349 26.5785 22.6306 26.5494C21.9589 26.4796 21.8666 25.9532 21.9044 25.6987C21.4505 25.751 21.2008 25.5024 21.1328 25.3715C20.8241 24.848 21.1252 24.4699 21.3143 24.3463C21.7864 24.0322 22.1919 24.2591 22.3356 24.4118C22.6443 24.0104 22.9181 24.0409 23.0165 24.1064C23.077 24.1573 23.2616 24.3245 23.5158 24.5863Z" fill="white"/>
<path d="M37 38H11L12.0612 39.6667L14.1837 40L34.8776 39.6667L37 38Z" fill="#473427"/>
<path d="M37 38L38.5 36H24.5H11L11.5 38H14.5H37Z" fill="#614837"/>
<circle cx="19.5" cy="36.5" r="1" fill="#F5E9DD" stroke="black"/>
<circle cx="25.5" cy="36.5" r="1" fill="#F5E9DD" stroke="black"/>
<circle cx="31.5" cy="36.5" r="1" fill="#F5E9DD" stroke="black"/>
<path d="M25.5758 33H17.697C14.3758 33.3567 13.4646 32.3421 13.4242 31.2325H9L11.4242 38.2465C12.3317 39.6172 13.4242 40 15.7879 40H32.7273C35.6538 40 36.1818 39.3045 37.1515 38.2465L42 31.2325H36.1818C35.8667 33.3486 33.7475 32.9208 32.7273 33H25.5758ZM25.5758 33V29.5979M25.5758 29.5979H32.7273C35.9758 26.4119 34.0808 15.1049 32.7273 13.5H25.5H16.7273C19.1273 17.114 17.7273 28.1713 16.7273 29.5979H25.5758ZM25.5758 6.06734V13.5" stroke="black" stroke-linecap="round" stroke-linejoin="round"/>
</svg>
