<svg width="48" height="48" viewBox="0 0 48 48" fill="none" xmlns="http://www.w3.org/2000/svg">
<rect x="0.5" y="0.5" width="47" height="47" rx="23.5" stroke="black"/>
<path d="M21.3865 12.2044C18.5645 11.399 15.8678 13.1106 15.325 14.9495C14.9776 16.2645 13.4881 16.3303 12.7868 16.1988C11.3441 15.8569 10.9945 16.9658 11.0001 17.5631C11.3474 19.2594 13.2822 20.4506 14.2062 20.8342C15.7691 21.3339 15.2359 22.1163 14.7739 22.4451L13.0206 24.171C11.1771 26.3934 11.4398 29.6119 11.8016 30.9433C12.4161 33.81 15.9205 35.5678 17.596 36.0883C23.2333 37.3376 27.5195 37.3037 30.4712 35.8269C32.9309 34.5963 34.5154 33.1226 35.5971 30.4183C36.6788 27.7139 36.3318 23.3532 35.5971 21.8738C34.3147 18.7309 33.1923 19.7602 32.875 20.6534C32.1804 22.4155 29.6021 23.0313 28.3998 23.119C23.9647 23.2505 24.1028 22.1985 24.7262 21.6561C26.2758 19.6967 26.3515 17.7932 26.1956 17.0864C25.8082 13.6937 22.8281 12.4181 21.3865 12.2044Z" fill="white" stroke="black" stroke-linecap="round" stroke-linejoin="round"/>
<circle cx="18.5721" cy="16.3558" r="1.08173" fill="black"/>
<path d="M12 16C12.8 16.4 14 16.1667 14.5 16L14.5 21L11.5 19C10 18 11 15.5 12 16Z" fill="#FFD400"/>
<path d="M21.3865 12.2044C18.5645 11.399 15.8678 13.1106 15.325 14.9495C14.9776 16.2645 13.4881 16.3303 12.7868 16.1988C11.3441 15.8569 10.9945 16.9658 11.0001 17.5631C11.3474 19.2594 13.2822 20.4506 14.2062 20.8342C15.7691 21.3339 15.2359 22.1163 14.7739 22.4451L13.0206 24.171C11.1771 26.3934 11.4398 29.6119 11.8016 30.9433C12.4161 33.81 15.9205 35.5678 17.596 36.0883C23.2333 37.3376 27.5195 37.3037 30.4712 35.8269C32.9309 34.5963 34.5154 33.1226 35.5971 30.4183C36.6788 27.7139 36.3318 23.3532 35.5971 21.8738C34.3147 18.7309 33.1923 19.7602 32.875 20.6534C32.1804 22.4155 29.6021 23.0313 28.3998 23.119C23.9647 23.2505 24.1028 22.1985 24.7262 21.6561C26.2758 19.6967 26.3515 17.7932 26.1956 17.0864C25.8082 13.6937 22.8281 12.4181 21.3865 12.2044Z" stroke="black" stroke-linecap="round" stroke-linejoin="round"/>
</svg>
