<svg width="48" height="48" viewBox="0 0 48 48" fill="none" xmlns="http://www.w3.org/2000/svg">
<rect x="0.5" y="0.5" width="47" height="47" rx="23.5" stroke="black"/>
<path d="M34.5 19C31.3 13 24.5 12.1667 21.5 12.5C25.5 17.3 25.1667 24.5 24.5 27.5C27.3 27.9 32 26 34 25C36 23.4 35.1667 20.3333 34.5 19Z" fill="#C1DBDC"/>
<path d="M22 27.5L14 28.5C17.2 27.3 19.3333 18 20 13.5C22 16.7 22.1667 24.1667 22 27.5Z" fill="#F4303E"/>
<path d="M22 27.5L14 28.5C17.2 27.3 19.3333 18 20 13.5C22 16.7 22.1667 24.1667 22 27.5Z" fill="#FAFAFA"/>
<path d="M38 28L11 30.5C11 33.7 14 34.8333 15.5 35H30C35.6 34.6 37.6667 30.1667 38 28Z" fill="#7C5D48"/>
<path d="M34.9892 33L12 33.7048L14 34.7234L15.5 34.7234L32.5 34.7234L34.9892 33Z" fill="#614837"/>
<path d="M22.1113 27.5896C22.7984 21.4843 21.002 15.2021 20.0179 12.8241C19.0302 22.0705 15.4911 27.1472 13.8449 28.5297C17.495 28.22 20.8767 27.7739 22.1113 27.5896Z" stroke="black" stroke-linecap="round" stroke-linejoin="round"/>
<path d="M35.1551 19.9027C32.2779 13.178 24.8385 11.6274 21.26 12.0698C22.88 14.3069 24.1511 18.7811 24.3121 19.7368C24.9148 23.3137 24.5805 26.4283 24.1511 27.5896C28.9177 27.5896 32.4712 26.1886 33.6521 25.4881C36.2716 24.1609 35.7455 21.2115 35.1551 19.9027Z" stroke="black" stroke-linecap="round" stroke-linejoin="round"/>
<path d="M38 28.032L11 30.5759C11.2577 33.7612 13.8986 34.8525 15.1869 35H30.9682C36.0783 34.0267 37.7853 29.9491 38 28.032Z" stroke="black" stroke-linecap="round" stroke-linejoin="round"/>
</svg>
