<svg width="48" height="48" viewBox="0 0 48 48" fill="none" xmlns="http://www.w3.org/2000/svg">
<rect x="0.5" y="0.5" width="47" height="47" rx="23.5" stroke="black"/>
<path d="M29.5317 12.257C30.3949 13.2416 31.6033 15.7201 29.5317 17.7579H25.0689V20.4948H31.5702C32.8007 21.958 34.5234 25.6108 31.5702 28.5157H25.0689V32.6346H31.5702C32.4977 32.5624 34.4242 31.9355 34.7107 30.0061H40L35.5923 36.4012C34.7107 37.3658 34.2308 38 31.5702 38H16.1708C14.022 38 13.0288 37.651 12.2039 36.4012L10 30.0061H14.022C14.0588 31.0178 14.5 32.6346 17.9063 32.6346H25.0689V28.5157H17.0248C17.9339 27.215 19.2066 23.7899 17.0248 20.4948H25.0689V17.7579H19.5868C20.1102 16.6288 20.843 13.9479 19.5868 12.257H25.0689V9.6285L20.6336 8.2465L25.0689 7V9.6285V12.257H29.5317Z" fill="#F5E9DD"/>
<path d="M31.4516 29L33 26L25.7742 26L18.0323 26L17 29L31.4516 29Z" fill="#E0D0BF"/>
<path d="M29.5238 18L30 16L25.2381 16L20.4762 16L20 18L29.5238 18Z" fill="#E0D0BF"/>
<path d="M14 30H10.5H10L12 35.5C12.4 37.5 14.8333 38 16 38H30.5C33.3 38.4 35 37.1667 35.5 36.5L40 30H35C34.2 32 32.3333 32.5 31.5 32.5H19C15 33.3 14 31.1667 14 30Z" fill="#7C5D48"/>
<path d="M21 8L25 7V9.5L21 8Z" fill="#F4303E"/>
<path d="M36 36H12L12.9796 37.6667L14.9388 38L34.0408 37.6667L36 36Z" fill="#473427"/>
<path d="M35.5 36L37 34.5H25H11.5L12 36H14.9388H35.5Z" fill="#614837"/>
<path d="M25.0689 32.6346H17.9063C14.5 32.6346 14.0588 31.0178 14.022 30.0061H10L12.2039 36.4012C13.0288 37.651 14.022 38 16.1708 38H31.5702C34.2308 38 34.7107 37.3658 35.5923 36.4012L40 30.0061H34.7107C34.4242 31.9355 32.4977 32.5624 31.5702 32.6346H25.0689ZM25.0689 32.6346V28.5157M25.0689 28.5157H31.5702C34.5234 25.6108 32.8007 21.958 31.5702 20.4948H25.0689M25.0689 28.5157H17.0248C17.9339 27.215 19.2066 23.7899 17.0248 20.4948H25.0689M25.0689 20.4948V17.7579M25.0689 17.7579H29.5317C31.6033 15.7201 30.3949 13.2416 29.5317 12.257H25.0689M25.0689 17.7579H19.5868C20.1102 16.6288 20.843 13.9479 19.5868 12.257H25.0689M25.0689 12.257V9.6285M25.0689 9.6285V7L20.6336 8.2465L25.0689 9.6285Z" stroke="black" stroke-linecap="round" stroke-linejoin="round"/>
</svg>
