<svg width="433" height="273" viewBox="0 0 433 273" fill="none" xmlns="http://www.w3.org/2000/svg">
<g clip-path="url(#clip0_261_557)">
<path d="M315.946 66.4845C315.946 92.6765 274.988 169.919 251.504 212.054C249.911 214.912 247.583 217.294 244.76 218.952C241.938 220.61 238.724 221.484 235.45 221.484C232.176 221.484 228.962 220.61 226.14 218.952C223.317 217.294 220.989 214.912 219.396 212.054C195.912 169.919 154.954 92.6765 154.954 66.4845C154.954 29.7661 190.993 1.52588e-05 235.45 1.52588e-05C279.907 1.52588e-05 315.946 29.7661 315.946 66.4845Z" fill="#FE7D5E"/>
<path d="M235.828 109.548C260.039 109.548 279.666 89.9298 279.666 65.729C279.666 41.5283 260.039 21.9097 235.828 21.9097C211.617 21.9097 191.99 41.5283 191.99 65.729C191.99 89.9298 211.617 109.548 235.828 109.548Z" fill="white"/>
<path d="M52.8945 105.377C67.396 105.377 79.1517 93.6267 79.1517 79.1314C79.1517 64.6361 67.396 52.8854 52.8945 52.8854C38.393 52.8854 26.6372 64.6361 26.6372 79.1314C26.6372 93.6267 38.393 105.377 52.8945 105.377Z" fill="#FF6584"/>
<path d="M235.45 273C270.553 273 299.009 270.804 299.009 268.096C299.009 265.387 270.553 263.191 235.45 263.191C200.347 263.191 171.891 265.387 171.891 268.096C171.891 270.804 200.347 273 235.45 273Z" fill="#3AAB87"/>
<path opacity="0.4" d="M47.5482 102.472C48.8846 94.2401 43.2921 86.4842 35.057 85.1484C26.8219 83.8126 19.0627 89.4027 17.7264 97.6343C16.39 105.866 21.9825 113.622 30.2175 114.957C38.4526 116.293 46.2118 110.703 47.5482 102.472Z" fill="#6C63FF"/>
<path d="M386.055 177.944C267.095 133.369 122.006 176.826 38.2376 265.719C37.7615 266.218 37.2853 266.724 36.8242 267.23H35.5469C35.9853 266.724 36.4387 266.218 36.8847 265.719C122.392 170.064 265.554 131.942 386.055 177.944Z" fill="#3F3D56"/>
<path d="M418.564 192.73C408.049 187.124 397.191 182.186 386.056 177.944C397.22 182.116 408.083 187.056 418.564 192.73Z" fill="#3F3D56"/>
<path opacity="0.4" d="M353.457 148.257C362.607 148.257 370.025 140.842 370.025 131.696C370.025 122.55 362.607 115.135 353.457 115.135C344.306 115.135 336.889 122.55 336.889 131.696C336.889 140.842 344.306 148.257 353.457 148.257Z" fill="#6C63FF"/>
<path d="M355.302 259.079C356.582 263.81 360.967 266.74 360.967 266.74C360.967 266.74 363.277 261.999 361.997 257.269C360.716 252.538 356.331 249.608 356.331 249.608C356.331 249.608 354.021 254.348 355.302 259.079Z" fill="#3F3D56"/>
<path d="M357.183 258.062C360.696 261.481 361.125 266.736 361.125 266.736C361.125 266.736 355.858 266.448 352.345 263.03C348.832 259.611 348.403 254.356 348.403 254.356C348.403 254.356 353.67 254.644 357.183 258.062Z" fill="#3AAB87"/>
<path d="M2.53956 193.3V200.598L2.17676 200.991V193.225C2.29769 193.247 2.41865 193.278 2.53956 193.3Z" fill="#3F3D56"/>
<path d="M25.804 265.715C25.6982 265.889 25.5848 266.063 25.4714 266.237H2.17676V193.663L2.53956 193.3L5.63091 196.813V191.676H15.4567V207.98L25.3807 219.244L25.4714 219.35C25.5924 219.728 25.7057 220.106 25.8191 220.483C25.8199 220.489 25.8226 220.494 25.8267 220.498C27.315 225.259 28.5363 230.1 29.4849 234.997C31.6466 246.548 31.3216 257.14 25.804 265.715Z" fill="#CCCCCC"/>
<path d="M10.3561 233.416H4.10205V238.625H10.3561V233.416Z" fill="#3F3D56"/>
<path d="M10.3561 242.793H4.10205V248.002H10.3561V242.793Z" fill="#3F3D56"/>
<path d="M203.007 223.518L199.88 218.308L229.066 193.303C250.642 182.922 276.651 185.917 304.115 193.303V200.596L277.014 229.769L245.743 236.02L203.007 223.518Z" fill="#3F3D56"/>
<path d="M317.033 207.977C322.216 202.214 322.936 196.735 317.033 191.675H307.207V196.816L304.115 193.303L279.098 218.308L274.928 222.476L269.717 243.314L279.098 266.235H327.046V219.35L317.033 207.977Z" fill="#CCCCCC"/>
<path d="M199.88 218.308H279.098V266.236H199.88C190.296 255.871 195.275 236.98 199.88 218.308Z" fill="#F2F2F2"/>
<path d="M268.154 233.416H251.476V248.002H268.154V233.416Z" fill="#3F3D56"/>
<path d="M244.701 232.895H230.108V266.236H244.701V232.895Z" fill="#CCCCCC"/>
<path d="M213.43 238.104V232.895H207.177V238.104H212.909H213.43Z" fill="#3F3D56"/>
<path d="M212.909 242.272H207.177V247.482H213.43V242.272H212.909Z" fill="#3F3D56"/>
<path d="M223.854 232.895H217.6V238.104H223.854V232.895Z" fill="#3F3D56"/>
<path d="M223.854 242.272H217.6V247.481H223.854V242.272Z" fill="#3F3D56"/>
<path d="M301.509 238.626V233.416H295.254V238.626H300.987H301.509Z" fill="#3F3D56"/>
<path d="M300.987 242.793H295.254V248.002H301.509V242.793H300.987Z" fill="#3F3D56"/>
<path d="M311.932 233.416H305.678V238.625H311.932V233.416Z" fill="#3F3D56"/>
<path d="M311.932 242.793H305.678V248.002H311.932V242.793Z" fill="#3F3D56"/>
<path d="M61.9522 135.999L56.7407 131.83L85.9263 105.783H159.933V128.705L111.985 161.004L61.9522 135.999Z" fill="#3F3D56"/>
<path d="M173.426 120.394V106.303H163.6V109.754L159.933 105.783L135.959 131.83L126.578 138.082L112.032 244.308L133.969 266.235H184.949C192.761 226.958 198.955 186.609 184.949 132.872L173.426 120.394Z" fill="#CCCCCC"/>
<path d="M56.7403 131.831H135.959V266.236H56.7403C48.0716 214.02 43.8379 165.598 56.7403 131.831Z" fill="#F2F2F2"/>
<path d="M102.083 233.416H87.4897V266.236H102.083V233.416Z" fill="#CCCCCC"/>
<path d="M71.8543 242.793V237.584H65.6006V242.793H71.3336H71.8543Z" fill="#3F3D56"/>
<path d="M71.3336 246.961H65.6006V252.17H71.8543V246.961H71.3336Z" fill="#3F3D56"/>
<path d="M82.278 237.583H76.0239V242.793H82.278V237.583Z" fill="#3F3D56"/>
<path d="M114.07 246.961H108.337V252.17H114.591V246.961H114.07Z" fill="#3F3D56"/>
<path d="M125.014 237.583H118.76V242.793H125.014V237.583Z" fill="#3F3D56"/>
<path d="M125.014 246.96H118.76V252.17H125.014V246.96Z" fill="#3F3D56"/>
<path d="M158.369 138.603V133.394H152.115V138.603H157.848H158.369Z" fill="#3F3D56"/>
<path d="M157.848 142.771H152.115V147.98H158.369V142.771H157.848Z" fill="#3F3D56"/>
<path d="M168.793 133.393H162.539V138.603H168.793V133.393Z" fill="#3F3D56"/>
<path d="M168.793 142.77H162.539V147.98H168.793V142.77Z" fill="#3F3D56"/>
<path d="M158.369 167.777V162.567H152.115V167.777H157.848H158.369Z" fill="#3F3D56"/>
<path d="M157.848 171.944H152.115V177.153H158.369V171.944H157.848Z" fill="#3F3D56"/>
<path d="M168.793 162.567H162.539V167.776H168.793V162.567Z" fill="#3F3D56"/>
<path d="M168.793 171.944H162.539V177.153H168.793V171.944Z" fill="#3F3D56"/>
<path d="M158.369 196.95V191.74H152.115V196.95H157.848H158.369Z" fill="#3F3D56"/>
<path d="M157.848 201.117H152.115V206.326H158.369V201.117H157.848Z" fill="#3F3D56"/>
<path d="M168.793 191.74H162.539V196.949H168.793V191.74Z" fill="#3F3D56"/>
<path d="M168.793 201.117H162.539V206.326H168.793V201.117Z" fill="#3F3D56"/>
<path d="M158.369 226.123V220.913H152.115V226.123H157.848H158.369Z" fill="#3F3D56"/>
<path d="M157.848 230.29H152.115V235.499H158.369V230.29H157.848Z" fill="#3F3D56"/>
<path d="M168.793 220.913H162.539V226.122H168.793V220.913Z" fill="#3F3D56"/>
<path d="M168.793 230.29H162.539V235.5H168.793V230.29Z" fill="#3F3D56"/>
<path d="M65.6006 138.603H126.057V151.106C106.679 145.76 86.4711 146.143 65.6006 151.106V138.603Z" fill="#3F3D56"/>
<path d="M65.6006 163.608C84.4696 169.165 104.622 169.165 126.057 163.608V176.111H65.6006V163.608Z" fill="#3F3D56"/>
<path d="M65.6006 188.614H126.057V201.117C105.453 194.541 85.2801 194.231 65.6006 201.117V188.614Z" fill="#3F3D56"/>
<path d="M65.6006 213.62C85.3172 221.215 105.487 220.899 126.057 213.62V226.123H65.6006V213.62Z" fill="#3F3D56"/>
<path d="M390.522 191.898H433V212.357L429.206 213.544L416.583 217.482L396.781 212.896L377.001 208.315L366.555 205.896L361.34 203.967C365.678 198.017 373.569 193.337 390.522 191.898Z" fill="#3F3D56"/>
<path d="M433 203.967V266.237H361.34C361.317 266.198 361.302 266.163 361.279 266.125V266.121C361.262 266.078 361.242 266.036 361.219 265.995C360.1 263.745 359.097 261.5 358.21 259.261C350.69 240.314 351.506 221.868 361.34 203.967H433Z" fill="#F2F2F2"/>
<path d="M406.682 233.416H392.089V266.236H406.682V233.416Z" fill="#CCCCCC"/>
<path d="M376.454 242.793V237.584H370.2V242.793H375.933H376.454Z" fill="#3F3D56"/>
<path d="M375.933 246.961H370.2V252.17H376.454V246.961H375.933Z" fill="#3F3D56"/>
<path d="M386.878 237.583H380.624V242.793H386.878V237.583Z" fill="#3F3D56"/>
<path d="M386.878 246.96H380.624V252.17H386.878V246.96Z" fill="#3F3D56"/>
<path d="M419.19 242.793V237.584H412.937V242.793H418.669H419.19Z" fill="#3F3D56"/>
<path d="M418.669 246.961H412.937V252.17H419.19V246.961H418.669Z" fill="#3F3D56"/>
<path d="M429.613 237.583H423.359V242.793H429.613V237.583Z" fill="#3F3D56"/>
<path d="M429.613 246.96H423.359V252.17H429.613V246.96Z" fill="#3F3D56"/>
<path d="M377.002 167.722H385.986C394.847 167.722 403.344 171.241 409.61 177.503C415.875 183.766 419.395 192.26 419.395 201.117H377.002V167.722Z" fill="#3F3D56"/>
<path d="M104.904 77.0616H113.887C122.748 77.0616 131.246 80.5799 137.511 86.8426C143.776 93.1053 147.296 101.599 147.296 110.456H104.904V77.0616Z" fill="#3F3D56"/>
<path d="M248.511 160.923H257.495C266.355 160.923 274.853 164.441 281.119 170.704C287.384 176.966 290.904 185.46 290.904 194.317H248.511V160.923Z" fill="#3F3D56"/>
<path d="M419.395 213.62H377.002V226.122H419.395V213.62Z" fill="#3F3D56"/>
<path d="M433 265.719H2.17676V267.23H433V265.719Z" fill="#3F3D56"/>
<path d="M41.9116 206.03H40.3999V265.715H41.9116V206.03Z" fill="#3F3D56"/>
<path d="M55.8623 213.637C55.9585 234.507 41.2688 251.494 41.2688 251.494C41.2688 251.494 22.4567 234.282 26.3269 213.773C30.2191 193.147 42.3497 176.003 40.9203 175.916C40.9203 175.916 55.766 192.766 55.8623 213.637Z" fill="#3AAB87"/>
<path d="M193.078 206.03H191.566V265.715H193.078V206.03Z" fill="#3F3D56"/>
<path d="M207.029 213.637C208.391 234.463 192.435 251.494 192.435 251.494C192.435 251.494 177.589 234.643 177.493 213.773C177.397 192.902 192.087 175.916 192.087 175.916C190.654 181.636 205.926 196.786 207.029 213.637Z" fill="#3AAB87"/>
<path d="M94.8667 109.011L160.529 105.8L188.073 128.782L183.204 133.177L139.585 132.195L94.8667 109.011Z" fill="#3F3D56"/>
<path d="M29.3489 215.663L25.8116 218.859L25.3808 219.244L24.4813 220.06L2.17679 219.562V193.225C1.4512 193.066 0.725597 192.915 0 192.771L1.80644 192.681L2.17679 192.99L5.63094 195.869L15.4567 204.074L26.4314 213.231L29.3489 215.663Z" fill="#3F3D56"/>
<path d="M238.474 195.894L304.136 192.683L331.681 215.665L326.811 220.06L283.193 219.079L238.474 195.894Z" fill="#3F3D56"/>
</g>
<defs>
<clipPath id="clip0_261_557">
<rect width="433" height="273" fill="white"/>
</clipPath>
</defs>
</svg>
