<svg width="373" height="288" viewBox="0 0 373 288" fill="none" xmlns="http://www.w3.org/2000/svg">
<g clip-path="url(#clip0_256_327)">
<path d="M285.538 262.157C296.507 262.157 305.399 244.057 305.399 221.729C305.399 199.401 296.507 181.3 285.538 181.3C274.57 181.3 265.677 199.401 265.677 221.729C265.677 244.057 274.57 262.157 285.538 262.157Z" fill="#3F3D56"/>
<path d="M283.704 287.904C291.659 240.291 283.784 192.85 283.704 192.377L282.157 192.639C282.237 193.109 290.066 240.301 282.156 287.647L283.704 287.904Z" fill="white"/>
<path d="M268.053 213.035L267.312 214.416L285.272 224L286.012 222.619L268.053 213.035Z" fill="white"/>
<path d="M304.227 217.836L286.269 227.425L287.01 228.806L304.967 219.217L304.227 217.836Z" fill="white"/>
<path d="M333.258 236.818C354.712 236.818 372.104 201.416 372.104 157.745C372.104 114.074 354.712 78.6712 333.258 78.6712C311.804 78.6712 294.413 114.074 294.413 157.745C294.413 201.416 311.804 236.818 333.258 236.818Z" fill="#DADADA"/>
<path d="M328.932 287.053C344.469 194.05 329.088 101.387 328.931 100.462L327.384 100.723C327.541 101.646 342.876 194.06 327.384 286.796L328.932 287.053Z" fill="white"/>
<path d="M298.704 141.401L297.964 142.782L333.092 161.527L333.832 160.146L298.704 141.401Z" fill="white"/>
<path d="M370.164 150.791L335.042 169.546L335.782 170.926L370.905 152.172L370.164 150.791Z" fill="white"/>
<path d="M243.039 287.301H36.4167C35.6567 287.3 34.9282 286.999 34.3908 286.463C33.8535 285.927 33.5512 285.2 33.5503 284.442V154.189C33.5511 153.431 33.8534 152.704 34.3908 152.168C34.9281 151.632 35.6567 151.33 36.4167 151.329H243.039C243.799 151.33 244.528 151.632 245.065 152.168C245.603 152.704 245.905 153.431 245.906 154.189V284.442C245.905 285.2 245.603 285.926 245.065 286.463C244.528 286.999 243.799 287.3 243.039 287.301Z" fill="#DADADA"/>
<path d="M55.4181 167.113C55.0924 167.114 54.7802 167.243 54.5499 167.473C54.3196 167.702 54.1901 168.014 54.1897 168.339V270.292C54.1901 270.617 54.3196 270.928 54.5499 271.158C54.7802 271.388 55.0924 271.517 55.4181 271.518H224.038C224.363 271.517 224.675 271.388 224.906 271.158C225.136 270.928 225.266 270.617 225.266 270.292V168.339C225.266 168.014 225.136 167.702 224.906 167.473C224.675 167.243 224.363 167.114 224.038 167.113H55.4181Z" fill="white"/>
<path d="M225.675 193.373V186.912H201.83V166.705H195.354V186.912H152.901V166.705H146.425V186.912H80.9466V166.705H74.4706V186.912H51.8286V193.373H74.4706V218.497H51.8286V224.958H74.4706V251.877H51.8286V258.337H109.369V271.926H115.844V258.337H146.425V271.926H152.901V258.337H225.675V251.877H152.901V224.958H225.675V218.497H201.83V193.373H225.675ZM146.425 193.373V201.269H80.9466V193.373H146.425ZM80.9466 207.729H146.425V218.497H80.9466V207.729ZM80.9466 251.877V224.958H109.369V251.877H80.9466ZM146.425 251.877H115.844V224.958H146.425V251.877ZM195.354 218.497H152.901V193.373H195.354V218.497Z" fill="#D5D5D5"/>
<path d="M149.663 230.799C154.233 230.799 157.938 227.103 157.938 222.544C157.938 217.985 154.233 214.289 149.663 214.289C145.093 214.289 141.388 217.985 141.388 222.544C141.388 227.103 145.093 230.799 149.663 230.799Z" fill="#FE7D5E"/>
<path d="M372.838 288H0V287.109H373L372.838 288Z" fill="white"/>
<path d="M150.655 173.505C178.846 173.505 201.699 150.705 201.699 122.581C201.699 94.457 178.846 71.6579 150.655 71.6579C122.464 71.6579 99.6108 94.457 99.6108 122.581C99.6108 150.705 122.464 173.505 150.655 173.505Z" fill="#FE7D5E"/>
<path d="M151.154 205.362L135.028 177.88L118.902 150.398L150.822 150.206L182.741 150.015L166.948 177.688L151.154 205.362Z" fill="#FE7D5E"/>
<path d="M151.065 140.531C161.179 140.531 169.378 132.351 169.378 122.261C169.378 112.17 161.179 103.99 151.065 103.99C140.95 103.99 132.751 112.17 132.751 122.261C132.751 132.351 140.95 140.531 151.065 140.531Z" fill="white"/>
<path d="M149.474 0.261662C149.474 0.261662 138.552 -2.80779 135.321 12.079C132.091 26.9658 134.143 25.0901 134.143 25.0901L158.526 22.2509C158.526 22.2509 165.858 4.78908 149.474 0.261662Z" fill="#2F2E41"/>
<path d="M133.59 65.5705C133.59 65.5705 117.112 66.3315 119.965 72.7843C120.167 73.2405 120.355 73.6678 120.529 74.0664C122.568 78.7403 124.916 83.2743 127.557 87.6385L137.685 104.379L141.37 102.337L130.999 75.4414L140.321 74.6823L133.59 65.5705Z" fill="#FFB6B6"/>
<path d="M177.037 72.4047L182.364 83.9819C182.364 83.9819 186.359 87.9675 190.734 103.91C195.11 119.852 196.061 119.283 196.061 119.283L191.736 120.72L173.993 88.5369L165.242 77.5291L167.906 71.6456L177.037 72.4047Z" fill="#FFB6B6"/>
<path d="M170.569 59.1195L178.223 73.3323C178.223 73.3323 195.577 107.352 193.784 107.239C191.767 107.112 186.104 109.456 184.366 111.732C183.526 112.831 171.262 85.9962 166.954 79.9964L157.633 72.7843C157.633 72.7843 131.165 77.2285 131.133 75.7833C131.117 75.0754 139.896 92.0594 138.094 91.3068C136.042 90.4495 131.214 94.6214 129.086 93.7579C128.207 93.4016 122.003 78.3931 119.491 72.2431C119.176 71.4754 119.159 70.6179 119.445 69.8388C119.73 69.0597 120.297 68.415 121.034 68.0311C122.922 67.0517 149.15 61.0769 149.15 61.0769L148.691 58.7399L150.594 54.9441L170.569 59.1195Z" fill="#2F2E41"/>
<path d="M154.873 17.2222C155.529 13.187 152.783 9.38512 148.738 8.73032C144.693 8.07552 140.882 10.8158 140.226 14.8509C139.57 18.8861 142.316 22.688 146.361 23.3428C150.406 23.9976 154.217 21.2573 154.873 17.2222Z" fill="#FFB6B6"/>
<path d="M171.262 60.2598C171.672 61.486 169.019 62.1903 165.32 61.5013C162.121 60.9054 158.618 60.1975 155.856 59.6243C152.898 59.0094 150.784 58.5501 150.784 58.5501C150.784 58.5501 150.023 63.2949 147.55 62.7255C145.419 62.2358 139.052 40.0475 137.33 33.9154C137.205 33.4677 137.229 32.9912 137.399 32.5584C137.57 32.1257 137.878 31.7605 138.276 31.5184L147.021 26.191C147.021 26.191 153.048 24.126 155.245 24.0672C157.442 24.0084 161.247 23.439 161.247 23.439C161.247 23.439 165.623 23.8186 166.384 27.045C167.145 30.2714 170.32 49.4012 170.379 53.9951C170.443 59.0343 170.034 56.5832 171.262 60.2598Z" fill="#CACACA"/>
<path d="M150.324 6.52916C150.324 6.52916 147.247 14.6632 139.709 18.0396L138.479 10.8264L150.324 6.52916Z" fill="#2F2E41"/>
<path d="M154.779 15.1832C155.357 15.1832 155.826 14.291 155.826 13.1904C155.826 12.0898 155.357 11.1976 154.779 11.1976C154.201 11.1976 153.733 12.0898 153.733 13.1904C153.733 14.291 154.201 15.1832 154.779 15.1832Z" fill="#FFB6B6"/>
<path d="M144.437 106.277L129.729 113.023L129.644 112.837C128.946 111.322 128.88 109.593 129.46 108.03C130.039 106.467 131.218 105.197 132.736 104.501L132.737 104.5L141.719 100.38L144.437 106.277Z" fill="#2F2E41"/>
<path d="M189.544 119.754L198.565 115.719L198.566 115.719C200.09 115.037 201.824 114.987 203.386 115.581C204.947 116.174 206.208 117.362 206.892 118.884L206.976 119.07L192.205 125.676L189.544 119.754Z" fill="#2F2E41"/>
<path opacity="0.2" d="M165.12 42.6937L163.397 61.5919L166.459 61.7361L165.12 42.6937Z" fill="black"/>
<path d="M153.114 77.9982C153.479 77.5918 153.75 77.1105 153.909 76.5882C154.067 76.066 154.109 75.5154 154.031 74.9754C153.952 74.4354 153.757 73.919 153.457 73.4626C153.157 73.0063 152.761 72.621 152.296 72.334L145.679 38.9887L138.081 41.8889L146.974 73.7542C146.542 74.5657 146.424 75.5069 146.642 76.3995C146.859 77.2921 147.398 78.0741 148.155 78.5972C148.911 79.1203 149.834 79.3483 150.749 79.2379C151.663 79.1275 152.504 78.6864 153.114 77.9982Z" fill="#FFB6B6"/>
<path d="M147.353 44.6087L139.01 46.0747C138.772 46.1164 138.529 46.1066 138.295 46.0459C138.062 45.9852 137.845 45.8751 137.658 45.723C137.471 45.571 137.32 45.3805 137.213 45.1647C137.107 44.9489 137.048 44.7128 137.042 44.4724L136.812 36.0494C136.604 34.8364 136.888 33.5909 137.6 32.5861C138.312 31.5813 139.394 30.8992 140.609 30.6893C141.825 30.4794 143.074 30.7589 144.083 31.4665C145.092 32.1741 145.778 33.252 145.992 34.4639L148.653 42.432C148.73 42.6602 148.756 42.9021 148.73 43.1411C148.704 43.3802 148.626 43.6109 148.503 43.8174C148.379 44.024 148.213 44.2016 148.014 44.3381C147.816 44.4747 147.59 44.5669 147.353 44.6087H147.353Z" fill="#CACACA"/>
<path d="M159.511 77.4116C159.988 77.1433 160.399 76.7742 160.717 76.3302C161.035 75.8861 161.251 75.378 161.351 74.8415C161.45 74.305 161.431 73.7533 161.294 73.2251C161.156 72.6969 160.905 72.2052 160.556 71.7846L165.007 38.0834L156.878 38.3997L155.059 71.4273C154.39 72.0579 153.975 72.9117 153.894 73.8267C153.814 74.7418 154.072 75.6546 154.621 76.3923C155.17 77.1299 155.971 77.6411 156.872 77.8289C157.773 78.0168 158.712 77.8683 159.511 77.4116Z" fill="#FFB6B6"/>
<path d="M164.786 43.9421L156.412 42.6617C156.174 42.6252 155.946 42.538 155.745 42.4059C155.544 42.2738 155.373 42.1 155.245 41.8962C155.117 41.6924 155.035 41.4635 155.003 41.2251C154.972 40.9867 154.992 40.7443 155.063 40.5145L157.553 32.4626C157.746 31.2474 158.415 30.1584 159.412 29.4345C160.41 28.7105 161.654 28.4106 162.873 28.6006C164.091 28.7905 165.185 29.4549 165.913 30.4479C166.641 31.4409 166.945 32.6815 166.758 33.8977L166.718 42.2965C166.717 42.5369 166.663 42.7743 166.562 42.9925C166.46 43.2106 166.313 43.4043 166.13 43.5605C165.946 43.7167 165.732 43.8316 165.5 43.8974C165.268 43.9633 165.025 43.9785 164.786 43.9421Z" fill="#CACACA"/>
</g>
<defs>
<clipPath id="clip0_256_327">
<rect width="373" height="288" fill="white"/>
</clipPath>
</defs>
</svg>
