<svg width="367" height="258" viewBox="0 0 367 258" fill="none" xmlns="http://www.w3.org/2000/svg">
<g clip-path="url(#clip0_261_820)">
<path d="M290.014 257.531C288.189 257.53 286.373 257.28 284.617 256.786L211.685 237.273L211.899 236.506L284.831 256.019C286.518 256.493 288.262 256.734 290.014 256.735C298.597 256.735 306.209 251.764 308.526 243.505L360.442 58.4428H360.442L360.555 58.04C361.919 53.1364 361.282 47.8924 358.786 43.4568C356.289 39.0212 352.135 35.7556 347.234 34.3754L230.004 1.51649C225.097 0.147501 219.846 0.779948 215.404 3.27513C210.963 5.77031 207.692 9.92452 206.31 14.8266L202.237 29.349L201.47 29.1339L205.543 14.6115C206.982 9.506 210.388 5.17937 215.014 2.58068C219.64 -0.0180084 225.108 -0.676568 230.219 0.749453L347.449 33.6083C352.491 35.0279 356.776 38.3639 359.387 42.9022C361.998 47.4405 362.728 52.8203 361.421 57.8899L361.424 57.8909L361.317 58.2744L309.293 243.72C306.881 252.321 298.953 257.531 290.014 257.531Z" fill="white"/>
<path d="M206.795 33.4844L208.13 33.8588L212.238 35.0099L212.669 33.4724L211.13 33.0422L212.481 28.2267L215.729 25.4066L216.594 34.5757L214.203 33.9026L213.772 35.4401L219.909 37.1608L220.339 35.6233L219.036 35.2608L217.785 23.6222L224.161 18.0817L225.95 18.5836L226.38 17.0461L220.24 15.3254L219.809 16.8629L221.834 17.4285L213.725 23.7975L215.972 15.7874L217.51 16.2176L217.94 14.6801L211.8 12.9594L211.37 14.4969L213.673 15.1422L208.831 32.397L206.528 31.7517L206.468 31.9588L206.221 32.851L206.795 33.4844Z" fill="#6C63FF"/>
<path d="M216.673 48.0227C215.14 48.6865 213.644 49.4324 212.191 50.2572C211.924 50.4086 211.657 50.5639 211.394 50.7193V45.7922C211.396 44.0197 211.145 42.256 210.648 40.5544C210.88 40.411 211.115 40.2556 211.346 40.1003C211.557 39.9609 211.772 39.8175 211.983 39.6741C213.295 42.5911 214.864 45.3851 216.673 48.0227Z" fill="#6C63FF"/>
<path d="M289.706 243.703L287.919 243.202L287.488 244.736L293.627 246.457L294.058 244.923L292.036 244.356L300.142 237.984L297.894 245.998L296.36 245.568L295.929 247.102L302.068 248.823L302.499 247.289L300.196 246.643L305.038 229.385L307.34 230.03L307.771 228.496L301.632 226.776L301.201 228.31L302.736 228.74L301.384 233.557L298.138 236.377L297.276 227.209L299.666 227.879L300.097 226.345L293.958 224.625L293.528 226.159L294.832 226.524L296.084 238.162L289.706 243.703Z" fill="#6C63FF"/>
<path d="M297.192 213.761C300.065 212.53 302.799 210.994 305.345 209.182C306.709 212.072 308.278 214.862 310.039 217.53C307.184 218.799 304.455 220.332 301.886 222.109C300.572 219.193 299.002 216.399 297.192 213.761Z" fill="#6C63FF"/>
<path d="M243.43 130.83C243.43 130.83 241.414 143.916 240.816 144.576C240.217 145.235 245 160.641 245 160.641L260.337 151.702C260.337 151.702 263.321 135.164 264.303 134.612C265.286 134.06 243.43 130.83 243.43 130.83Z" fill="#FFB8B8"/>
<path opacity="0.1" d="M243.43 130.83C243.43 130.83 241.414 143.916 240.816 144.576C240.217 145.235 245 160.641 245 160.641L260.337 151.702C260.337 151.702 263.321 135.164 264.303 134.612C265.286 134.06 243.43 130.83 243.43 130.83Z" fill="black"/>
<path d="M255.296 143.5C263.658 143.5 270.438 136.724 270.438 128.364C270.438 120.005 263.658 113.228 255.296 113.228C246.933 113.228 240.153 120.005 240.153 128.364C240.153 136.724 246.933 143.5 255.296 143.5Z" fill="#FFB8B8"/>
<path d="M248.733 151.759L247.413 150.562L241.482 142.124C241.482 142.124 240.802 141.676 240.156 143.977L239.51 146.278L233.938 148.439L221.608 201.243L254.604 210.492L268.193 157.627L261.811 150.874L261.104 147.616L251.25 151.637L248.733 151.759Z" fill="white"/>
<path d="M211.394 206.654L212.191 206.877L263.578 221.28L280.761 164.461C280.761 164.461 276.696 161.25 273.517 160.772C273.517 160.772 268.177 154.726 265.878 154.081C263.574 153.436 261.028 147.76 261.028 147.76C261.028 147.76 258.338 157.347 253.716 163.497C249.094 169.647 241.044 190.972 241.044 190.972L238.773 151.862L241.323 142.028C239.841 142.906 238.491 143.991 237.315 145.25C235.518 147.226 230.931 148.835 230.931 148.835C230.931 148.835 218.849 152.069 216.713 152.3C214.581 152.527 213.597 153.081 213.597 153.081L212.191 162.756L211.394 168.237V206.654Z" fill="#2F2E41"/>
<path d="M218.407 184.627C217.929 187.802 213.011 200.902 213.011 200.902L212.191 201.727L211.394 202.527V154.009C211.616 153.769 211.888 153.58 212.191 153.455C212.641 153.269 213.114 153.143 213.597 153.081L215.135 153.511C215.135 153.511 218.885 181.449 218.407 184.627Z" fill="#2F2E41"/>
<path d="M253.411 201.47C253.411 201.47 260.952 187.864 266.661 191.119C272.369 194.374 263.218 203.391 263.218 203.391L253.411 201.47Z" fill="#FFB8B8"/>
<path d="M230.067 196.168C230.067 196.168 215.595 191.698 215.272 192.848C214.949 193.999 210.987 200.748 212.138 201.07C213.289 201.393 222.221 203.483 222.113 203.867C222.006 204.25 226.395 206.308 226.395 206.308L230.067 196.168Z" fill="#FFB8B8"/>
<path d="M258.281 153.146L249.07 153.508L247.152 152.97L239.472 147.874L236.928 155.482L246.614 154.888L248.532 155.426L256.496 160.967L258.281 153.146Z" fill="#6C63FF"/>
<path d="M233.529 210.378L232.115 213.389L211.792 207.813L211.394 206.654V200.269L212.191 200.58L213.011 200.902L233.529 210.378Z" fill="#2F2E41"/>
<path d="M234.287 197.351C234.287 197.351 229.514 195.186 229.407 195.569C229.299 195.953 222.895 206.981 224.429 207.412C225.964 207.842 231.396 210.605 231.396 210.605L234.287 197.351Z" fill="white"/>
<path d="M278.075 163.706L280.761 164.459C280.761 164.459 282.296 164.889 282.418 167.406C282.539 169.922 284.622 181.675 283.64 182.227C282.657 182.779 282.381 182.288 282.933 183.27C283.486 184.252 283.977 183.976 283.378 184.635C282.779 185.295 281.405 206.421 276.951 213.446C272.497 220.471 271.145 223.815 269.61 223.385L229.83 212.235C229.83 212.235 231.602 196.598 233.244 196.645C234.886 196.691 261.791 202.578 261.791 202.578C261.791 202.578 272.212 162.477 278.075 163.706Z" fill="#2F2E41"/>
<path d="M246.374 111.775L243.89 109.994C243.89 109.994 251.296 105.833 259.203 108.592L257.574 105.695C257.574 105.695 263.671 105.235 267.22 111.924C269.085 115.44 271.229 119.559 272.106 123.768L275.068 124.599L273.138 126.724L276.773 130.409L272.455 128.72C272.277 130.972 271.513 133.139 270.239 135.004L268.457 137.488C268.457 137.488 266.69 128.315 266.972 127.31L266.267 129.824C266.267 129.824 264.135 126.786 264.558 125.278L262.556 126.614L262.577 123.638L252.496 123.795L254.64 121.955L248.644 121.088L251.683 118.957C251.683 118.957 244.228 120.392 243.2 123.087C242.173 125.782 237.917 128.385 237.917 128.385L237.113 125.448C237.113 125.448 238.023 113.501 246.374 111.775Z" fill="#2F2E41"/>
<path d="M241.168 117.22L241.287 116.704C242.438 111.693 233.581 102.375 233.491 102.281L233.334 102.117L233.395 101.898C233.571 101.274 234.273 100.719 240.432 102.053C242.83 102.573 245.222 103.206 246.223 103.478C246.111 100.617 242.563 96.826 242.525 96.7859L242.078 96.3132L242.703 96.1301C246.793 94.9316 251.581 98.9067 253.111 100.314L255.669 91.1971L260.73 98.6695C263.837 94.0203 268.331 94.2086 268.527 94.2194L269.158 94.2539L268.855 94.8082C266.726 98.7019 266.343 101.259 266.32 102.52C271.985 95.7932 277.09 96.3791 277.312 96.4085L278.086 96.5106L277.549 97.0771C270.133 104.91 269.26 115.242 269.252 115.346L269.226 115.694L241.168 117.22ZM234.374 102.058C235.94 103.755 242.712 111.411 242.151 116.369L268.494 114.936C268.711 113.093 270.047 104.322 276.346 97.2113C274.63 97.3646 270.58 98.3426 266.314 103.792L265.825 104.416L265.616 103.652C265.583 103.531 264.87 100.73 267.829 95.039C266.473 95.1673 263.315 95.877 261.083 99.6013L260.762 100.137L255.972 93.0661L253.514 101.829L253.031 101.341C252.978 101.286 247.839 96.143 243.566 96.7562C244.663 98.0328 247.287 101.395 247 104.038L246.949 104.506L246.496 104.379C241.464 102.968 235.716 101.765 234.374 102.058Z" fill="#6C63FF"/>
<path d="M279.298 94.3101C279.026 94.2338 278.782 94.0786 278.598 93.864C278.414 93.6494 278.298 93.3851 278.265 93.1045C278.231 92.8239 278.281 92.5397 278.409 92.2877C278.537 92.0358 278.737 91.8274 278.983 91.689C279.23 91.5505 279.512 91.4882 279.794 91.51C280.076 91.5317 280.345 91.6365 280.567 91.8112C280.789 91.9858 280.955 92.2223 281.042 92.4909C281.13 92.7595 281.136 93.0481 281.06 93.3202C280.957 93.6848 280.714 93.9938 280.384 94.1794C280.053 94.365 279.663 94.412 279.298 94.3101ZM279.854 92.3259C279.734 92.2921 279.606 92.2948 279.487 92.3336C279.368 92.3724 279.264 92.4456 279.187 92.5439C279.109 92.6422 279.063 92.7612 279.053 92.8858C279.044 93.0105 279.071 93.1351 279.132 93.2441C279.194 93.3531 279.286 93.4415 279.397 93.4981C279.509 93.5547 279.635 93.5769 279.759 93.5621C279.883 93.5472 280 93.4958 280.095 93.4145C280.19 93.3332 280.259 93.2255 280.293 93.1051C280.338 92.9437 280.317 92.771 280.235 92.6249C280.153 92.4788 280.016 92.3713 279.854 92.3259Z" fill="#6C63FF"/>
<path d="M269.373 91.528C269.1 91.4517 268.857 91.2964 268.673 91.0818C268.489 90.8672 268.373 90.603 268.339 90.3224C268.306 90.0418 268.356 89.7576 268.484 89.5056C268.612 89.2537 268.812 89.0453 269.058 88.9068C269.305 88.7684 269.587 88.7061 269.868 88.7279C270.15 88.7496 270.419 88.8544 270.642 89.029C270.864 89.2036 271.029 89.4402 271.117 89.7088C271.205 89.9774 271.211 90.266 271.135 90.5381C271.032 90.9027 270.789 91.2117 270.458 91.3973C270.128 91.5829 269.737 91.6299 269.373 91.528ZM269.929 89.5437C269.809 89.51 269.681 89.5127 269.562 89.5515C269.443 89.5903 269.339 89.6635 269.261 89.7618C269.184 89.8601 269.138 89.979 269.128 90.1037C269.118 90.2283 269.146 90.353 269.207 90.462C269.268 90.571 269.361 90.6594 269.472 90.716C269.584 90.7725 269.71 90.7948 269.834 90.7799C269.958 90.7651 270.075 90.7137 270.17 90.6324C270.265 90.551 270.334 90.4434 270.367 90.323C270.412 90.1616 270.392 89.9889 270.309 89.8428C270.227 89.6967 270.091 89.5892 269.929 89.5437Z" fill="#6C63FF"/>
<path d="M254.284 89.9744C254.012 89.8981 253.768 89.7429 253.585 89.5283C253.401 89.3137 253.285 89.0494 253.251 88.7688C253.217 88.4883 253.268 88.204 253.396 87.9521C253.524 87.7001 253.723 87.4917 253.97 87.3533C254.216 87.2149 254.498 87.1526 254.78 87.1743C255.062 87.1961 255.331 87.3009 255.553 87.4755C255.775 87.6501 255.941 87.8867 256.029 88.1553C256.116 88.4239 256.123 88.7125 256.046 88.9845C255.944 89.3492 255.7 89.6582 255.37 89.8437C255.04 90.0293 254.649 90.0763 254.284 89.9744ZM254.841 87.9902C254.72 87.9564 254.593 87.9591 254.474 87.9979C254.355 88.0368 254.25 88.1099 254.173 88.2082C254.096 88.3065 254.049 88.4255 254.04 88.5501C254.03 88.6748 254.057 88.7995 254.119 88.9085C254.18 89.0175 254.272 89.1058 254.384 89.1624C254.495 89.219 254.621 89.2413 254.745 89.2264C254.869 89.2115 254.986 89.1602 255.081 89.0788C255.176 88.9975 255.245 88.8898 255.279 88.7695C255.324 88.608 255.303 88.4354 255.221 88.2893C255.139 88.1432 255.002 88.0356 254.841 87.9902Z" fill="#6C63FF"/>
<path d="M230.198 101.416C229.926 101.339 229.682 101.184 229.498 100.969C229.314 100.755 229.198 100.491 229.164 100.21C229.131 99.9295 229.181 99.6452 229.309 99.3933C229.437 99.1413 229.637 98.9329 229.883 98.7945C230.13 98.6561 230.412 98.5938 230.694 98.6155C230.975 98.6373 231.245 98.7421 231.467 98.9167C231.689 99.0913 231.855 99.3279 231.942 99.5965C232.03 99.8651 232.036 100.154 231.96 100.426C231.857 100.79 231.614 101.099 231.284 101.285C230.953 101.471 230.563 101.518 230.198 101.416ZM230.754 99.4314C230.634 99.3976 230.506 99.4003 230.387 99.4391C230.268 99.478 230.164 99.5511 230.086 99.6494C230.009 99.7477 229.963 99.8667 229.953 99.9913C229.944 100.116 229.971 100.241 230.032 100.35C230.094 100.459 230.186 100.547 230.297 100.604C230.409 100.66 230.535 100.682 230.659 100.668C230.783 100.653 230.9 100.601 230.995 100.52C231.09 100.439 231.159 100.331 231.192 100.211C231.238 100.049 231.217 99.8766 231.135 99.7305C231.052 99.5844 230.916 99.4768 230.754 99.4314Z" fill="#6C63FF"/>
<path d="M239.512 94.9299C239.239 94.8536 238.996 94.6983 238.812 94.4837C238.628 94.2691 238.512 94.0049 238.478 93.7243C238.445 93.4437 238.495 93.1595 238.623 92.9075C238.751 92.6556 238.951 92.4472 239.197 92.3087C239.444 92.1703 239.726 92.108 240.008 92.1298C240.289 92.1515 240.559 92.2563 240.781 92.4309C241.003 92.6055 241.169 92.8421 241.256 93.1107C241.344 93.3793 241.35 93.6679 241.274 93.94C241.171 94.3046 240.928 94.6136 240.598 94.7991C240.267 94.9847 239.877 95.0317 239.512 94.9299ZM240.068 92.9456C239.948 92.9119 239.82 92.9146 239.701 92.9534C239.582 92.9922 239.478 93.0654 239.4 93.1637C239.323 93.2619 239.277 93.3809 239.267 93.5056C239.257 93.6302 239.285 93.7549 239.346 93.8639C239.408 93.9729 239.5 94.0613 239.611 94.1179C239.723 94.1745 239.849 94.1967 239.973 94.1818C240.097 94.167 240.214 94.1156 240.309 94.0343C240.404 93.9529 240.473 93.8453 240.506 93.7249C240.552 93.5635 240.531 93.3908 240.449 93.2447C240.366 93.0986 240.23 92.9911 240.068 92.9456Z" fill="#6C63FF"/>
<path d="M287.014 229.09L286.63 228.983L211.517 207.929L211.731 207.162L286.462 228.108L333.694 59.7442L228.373 30.2238L212.31 87.4869L211.542 87.2718L227.822 29.2416L228.205 29.3491L334.676 59.1925L334.569 59.5757L287.014 229.09Z" fill="white"/>
<path d="M16.5903 244.504C21.5428 253.685 32.0537 257.626 32.0537 257.626C32.0537 257.626 34.5351 246.682 29.5826 237.501C24.6301 228.321 14.1192 224.38 14.1192 224.38C14.1192 224.38 11.6378 235.323 16.5903 244.504Z" fill="#2F2E41"/>
<path d="M19.9943 241.484C28.9356 246.861 32.3792 257.541 32.3792 257.541C32.3792 257.541 21.3261 259.503 12.3848 254.126C3.44356 248.749 0 238.069 0 238.069C0 238.069 11.0531 236.106 19.9943 241.484Z" fill="#6C63FF"/>
<path d="M211.346 40.1003C210.66 37.8426 209.57 35.7279 208.13 33.8588C207.617 33.1908 207.062 32.5562 206.468 31.9588C204.648 30.1272 202.483 28.6738 200.098 27.6826C197.714 26.6913 195.156 26.1818 192.573 26.1833H70.8218C65.6206 26.1886 60.6339 28.2562 56.9561 31.9324C53.2784 35.6087 51.2099 40.5932 51.2046 45.7922V238.391C51.2099 243.59 53.2784 248.575 56.9561 252.251C60.6339 255.927 65.6206 257.995 70.8218 258H192.573C197.774 257.995 202.761 255.927 206.439 252.251C210.117 248.575 212.185 243.59 212.19 238.391V45.7922C212.193 43.8635 211.908 41.9453 211.346 40.1003ZM211.393 238.391C211.387 243.379 209.403 248.16 205.875 251.687C202.346 255.213 197.563 257.197 192.573 257.203H70.8218C65.8322 257.197 61.0487 255.213 57.5205 251.687C53.9923 248.16 52.0076 243.379 52.0015 238.391V45.7922C52.0076 40.8047 53.9923 36.0232 57.5205 32.4966C61.0487 28.9699 65.8322 26.986 70.8218 26.98H192.573C195.128 26.9788 197.656 27.4989 200.003 28.5085C202.35 29.518 204.466 30.9957 206.221 32.8511C206.416 33.0582 206.608 33.2693 206.795 33.4844C209.761 36.8992 211.394 41.2698 211.393 45.7922V238.391Z" fill="white"/>
<path d="M70.6274 57.1358C70.6053 57.0839 70.5779 57.0367 70.5536 56.9868C71.4523 55.2289 71.9059 53.2775 71.8744 51.3037C71.8744 45.1292 68.0143 40.8169 62.4875 40.8169C56.9608 40.8169 53.1006 45.1292 53.1006 51.3037C53.1006 57.4781 56.9608 61.7905 62.4875 61.7905C63.7921 61.8168 65.0863 61.5547 66.2777 61.0229C67.4692 60.4911 68.5283 59.7028 69.3795 58.7142C71.1491 61.5765 74.5701 61.9542 74.7277 61.9699L74.9142 60.1395C74.7855 60.1257 71.7486 59.7705 70.6274 57.1358ZM62.4875 59.9507C58.0442 59.9507 54.9412 56.3949 54.9412 51.3037C54.9412 46.2124 58.0442 42.6567 62.4875 42.6567C66.9308 42.6567 70.0339 46.2124 70.0339 51.3037C70.0518 52.7552 69.7654 54.1943 69.1931 55.5284C66.4459 53.86 61.3348 54.857 60.6415 55.003L61.0201 56.8035C62.8975 56.4105 66.6325 56.0953 68.2583 57.1149C67.5908 58.0117 66.7192 58.7367 65.7157 59.2298C64.7122 59.7229 63.6056 59.9701 62.4875 59.9507Z" fill="#6C63FF"/>
<path d="M63.1588 66.1665C62.5598 65.5686 61.7478 65.2329 60.9012 65.2332C60.0547 65.2335 59.2429 65.5698 58.6443 66.1681C58.0457 66.7665 57.7093 67.5779 57.709 68.4241C57.7087 69.2703 58.0445 70.082 58.6427 70.6807L63.1588 75.1949L67.6749 70.6807C68.2718 70.0817 68.6066 69.2704 68.6057 68.4249C68.6049 67.5795 68.2685 66.7689 67.6704 66.1711C67.0723 65.5732 66.2614 65.237 65.4155 65.2361C64.5697 65.2353 63.7581 65.5699 63.1588 66.1665Z" fill="#6C63FF"/>
<path d="M192.768 228.281C192.79 228.333 192.817 228.38 192.842 228.43C191.943 230.188 191.489 232.14 191.521 234.113C191.521 240.288 195.381 244.6 200.908 244.6C206.434 244.6 210.295 240.288 210.295 234.113C210.295 227.939 206.434 223.627 200.908 223.627C199.603 223.6 198.309 223.862 197.117 224.394C195.926 224.926 194.867 225.714 194.016 226.703C192.246 223.841 188.825 223.463 188.668 223.447L188.481 225.278C188.61 225.291 191.647 225.647 192.768 228.281ZM200.908 225.466C205.351 225.466 208.454 229.022 208.454 234.113C208.454 239.205 205.351 242.76 200.908 242.76C196.464 242.76 193.361 239.205 193.361 234.113C193.343 232.662 193.63 231.223 194.202 229.889C196.949 231.557 202.06 230.56 202.754 230.414L202.375 228.614C200.498 229.006 196.763 229.322 195.137 228.302C195.804 227.405 196.676 226.68 197.68 226.187C198.683 225.694 199.79 225.447 200.908 225.466V225.466Z" fill="#6C63FF"/>
<path d="M200.236 219.25C200.835 219.848 201.647 220.183 202.493 220.182C203.339 220.181 204.15 219.845 204.749 219.247C205.347 218.649 205.683 217.838 205.684 216.992C205.685 216.147 205.349 215.335 204.752 214.736L200.236 210.222L195.72 214.736C195.123 215.335 194.787 216.147 194.788 216.992C194.789 217.838 195.125 218.649 195.723 219.247C196.322 219.845 197.133 220.181 197.979 220.182C198.825 220.183 199.637 219.848 200.236 219.25Z" fill="#6C63FF"/>
<path d="M141.519 135.604C136.094 126.441 125.361 126.014 125.361 126.014C125.361 126.014 114.902 124.677 108.193 138.632C101.94 151.639 93.3092 164.197 106.804 167.242L109.241 159.659L110.751 167.807C112.672 167.945 114.599 167.978 116.524 167.905C130.976 167.439 144.739 168.042 144.296 162.858C143.707 155.967 146.738 144.42 141.519 135.604Z" fill="#2F2E41"/>
<path d="M121.505 166.822C121.532 167.853 121.524 168.941 121.011 169.836C119.995 171.611 117.513 171.877 116.021 173.276C114.451 174.747 114.274 177.135 114.199 179.284C114.121 181.531 114.054 183.852 114.875 185.946C115.377 187.099 116.013 188.19 116.768 189.197C117.679 190.51 118.599 191.817 119.527 193.118C120.022 193.851 120.575 194.544 121.179 195.19C122.841 196.882 125.121 197.819 127.397 198.488C128.868 198.919 130.456 199.256 131.915 198.787C132.881 198.41 133.771 197.863 134.542 197.172C135.628 196.31 136.73 195.431 137.516 194.29C138.742 192.514 139.081 190.289 139.335 188.146C140.086 181.809 140.378 175.426 140.209 169.047C140.24 168.352 140.115 167.658 139.844 167.018C139.089 165.542 137.065 165.228 135.998 163.959C135.086 162.874 135.049 161.326 135.057 159.909L135.077 156.302C135.108 155.998 135.047 155.691 134.901 155.423C134.769 155.278 134.609 155.161 134.432 155.078C134.254 154.996 134.062 154.949 133.866 154.94C131.623 154.568 129.349 154.416 127.077 154.486C125.235 154.542 121.7 154.388 120.107 155.414C118.661 156.345 120.471 158.916 120.806 160.361C121.256 162.485 121.491 164.65 121.505 166.822Z" fill="#A0616A"/>
<path d="M125.734 160.627C133.79 160.627 140.32 154.1 140.32 146.048C140.32 137.996 133.79 131.468 125.734 131.468C117.679 131.468 111.148 137.996 111.148 146.048C111.148 154.1 117.679 160.627 125.734 160.627Z" fill="#A0616A"/>
<path d="M119.728 182.16C118.801 180.782 118.037 179.3 117.454 177.744C116.932 176.169 116.795 174.408 117.414 172.868C115.838 171.953 113.698 172.694 112.55 174.108C111.402 175.523 111.051 177.419 110.95 179.238C110.849 181.057 110.956 182.902 110.56 184.68C109.684 188.614 106.433 191.848 106.191 195.87C105.954 199.828 108.669 203.275 110.004 207.008C110.814 209.335 111.152 211.8 111 214.258C110.956 215.052 110.906 215.957 111.467 216.521C111.758 216.775 112.103 216.961 112.476 217.064C118.921 219.331 125.883 219.527 132.713 219.7L143.993 219.985C144.676 220.067 145.367 219.951 145.985 219.652C146.997 219.032 147.133 217.641 147.15 216.455C147.298 206.236 146.863 196.018 146.429 185.807C146.271 182.106 146.111 178.383 145.326 174.763C145.126 173.841 144.798 172.816 143.947 172.409C143.226 172.065 142.371 172.288 141.622 172.564C138.125 173.864 135.103 176.189 132.951 179.236C130.637 182.529 129.498 186.479 127.233 189.797C125.589 192.204 124.638 190.106 123.543 188.333C122.272 186.275 121 184.218 119.728 182.16Z" fill="white"/>
<path d="M117.982 173.12C117.695 173.323 117.412 173.538 117.141 173.765C116.126 174.602 115.216 175.56 114.432 176.617C113.133 178.387 112.099 180.336 111.363 182.404C110.04 186.029 109.467 189.876 108.917 193.692C108.677 195.098 108.547 196.52 108.53 197.946C108.614 203.188 111.714 208.043 111.718 213.289C111.718 213.488 111.714 213.683 111.702 213.883C111.665 214.741 111.564 215.596 111.399 216.44C111.172 217.671 110.845 218.885 110.523 220.096C109.71 223.131 108.833 226.278 107.247 228.943C107.088 229.214 106.916 229.48 106.741 229.739H95.5835C95.6712 229.472 95.7628 229.21 95.8505 228.943C97.7512 223.315 99.6507 217.688 101.549 212.062C102.131 210.342 102.712 208.613 103.123 206.844C103.592 204.661 103.913 202.448 104.083 200.221C104.521 195.604 104.81 190.978 104.948 186.343C105 184.678 105.035 182.978 105.573 181.4C106.078 180.115 106.745 178.9 107.558 177.784C108.709 176.051 109.861 174.318 111.013 172.586C111.654 171.622 112.328 170.63 113.316 170.029C114.141 169.523 115.121 169.34 115.99 168.913C116.536 168.603 117.061 168.256 117.56 167.874C118.859 166.954 120.385 165.986 121.505 166.926C121.686 167.076 121.842 167.255 121.967 167.456C122.031 167.554 122.088 167.656 122.138 167.762C123.214 170.088 119.429 172.096 117.982 173.12Z" fill="#2F2E41"/>
<path d="M154.738 229.739H103.063C103.342 229.484 103.617 229.218 103.884 228.943C103.924 228.903 103.96 228.863 103.999 228.823C105.976 226.772 106.426 224.251 107.418 221.582C108.164 219.57 108.909 217.56 109.654 215.551C109.772 215.161 109.965 214.796 110.224 214.48C110.44 214.257 110.71 214.095 111.009 214.01C111.234 213.941 111.467 213.898 111.702 213.883C112.038 213.861 112.374 213.861 112.71 213.883C121.983 214.361 131.249 214.943 140.508 215.631C141.704 215.723 142.899 215.814 144.094 215.906C145.071 216.631 146.035 217.4 146.956 218.212C149.948 220.841 152.542 223.936 154.029 227.592C154.208 228.035 154.371 228.485 154.507 228.943C154.594 229.206 154.67 229.472 154.738 229.739Z" fill="#2F2E41"/>
<path d="M139.12 134.721L128.516 129.168L113.873 131.44L110.844 144.815L118.385 144.525L120.492 139.611V144.444L123.972 144.31L125.992 136.487L127.254 144.815L139.625 144.562L139.12 134.721Z" fill="#2F2E41"/>
<path d="M154.738 229.739H143.07C142.986 229.476 142.907 229.21 142.831 228.943C142.007 225.98 141.402 222.961 141.022 219.909C140.898 219.037 140.791 218.16 140.691 217.288C140.627 216.734 140.568 216.185 140.508 215.631C139.838 209.481 139.324 203.272 137.444 197.385C137.217 196.672 136.969 195.963 136.73 195.254C136.289 194.033 135.942 192.78 135.694 191.506C135.184 188.59 135.567 185.571 135.041 182.659C134.746 181.034 134.16 179.604 133.806 178.114C133.58 177.215 133.491 176.287 133.543 175.362C134.401 174.552 135.482 174.017 136.647 173.825C137.049 173.757 137.503 173.705 137.746 173.382C137.89 173.137 137.954 172.853 137.93 172.57C137.958 170.691 137.85 168.813 137.607 166.95C137.527 166.296 137.428 165.643 137.308 164.994C137.304 164.962 137.296 164.934 137.292 164.902C138.265 164.48 139.36 164.476 140.416 164.48C141.568 164.484 142.716 164.484 143.863 164.488C145.987 164.496 148.111 164.503 150.235 164.508C152.211 164.512 154.256 164.532 156.053 165.348C157.91 166.197 159.32 167.834 160.253 169.65C161.185 171.467 161.691 173.466 162.149 175.454C162.277 176.004 162.343 176.566 162.349 177.13C162.436 181.615 159.089 186.132 158.754 190.717C158.647 192.203 158.77 193.7 158.635 195.186C158.499 196.676 158.101 198.133 158.029 199.623C158.025 199.699 158.021 199.778 158.021 199.854C157.977 201.794 158.543 203.694 159.197 205.522C160.209 208.362 161.44 211.114 162.711 213.851C163.939 216.499 165.198 219.136 166.329 221.821C166.918 223.067 167.314 224.395 167.505 225.76C167.631 226.857 167.421 227.967 166.903 228.943C166.77 229.184 166.611 229.41 166.429 229.616L166.421 229.624C166.385 229.664 166.349 229.703 166.314 229.739H154.738Z" fill="#2F2E41"/>
<path d="M165.851 225.653C165.802 226.183 165.658 226.7 165.425 227.178C165.405 227.226 165.385 227.27 165.365 227.318C165.134 227.863 164.899 228.401 164.656 228.943C164.536 229.206 164.417 229.472 164.293 229.739H157.694C157.933 229.49 158.154 229.223 158.356 228.943C159.368 227.537 159.954 225.828 160.986 224.31C161.126 224.103 161.288 223.911 161.468 223.737C163.122 222.136 165.955 222.462 165.851 225.653Z" fill="#FFB8B8"/>
<path d="M170.147 229.739C170.231 229.478 170.302 229.212 170.358 228.943C170.406 228.732 170.446 228.524 170.478 228.313C170.689 226.923 170.685 225.501 171.016 224.135C171.482 222.179 172.881 219.865 171.729 218.22C172.625 218.036 173.47 217.658 174.204 217.113C174.889 216.515 175.287 215.48 174.873 214.667C174.463 213.867 173.351 213.337 173.502 212.449C173.578 212.167 173.711 211.904 173.893 211.676C174.497 210.723 174.81 209.615 174.792 208.487C174.774 207.359 174.427 206.26 173.793 205.327C173.431 204.809 172.984 204.355 172.654 203.813C172.292 203.151 172.015 202.446 171.829 201.714C170.678 198.008 168.982 194.493 166.796 191.286C166.311 190.669 165.935 189.974 165.684 189.231C165.537 188.426 165.508 187.603 165.596 186.79C165.676 183.571 164.473 180.428 162.739 177.72C162.612 177.521 162.48 177.326 162.349 177.13C160.675 174.665 158.599 172.502 156.531 170.355C155.678 170.754 154.925 171.012 154.483 171.841C154.266 172.308 154.132 172.81 154.088 173.323C153.523 177.266 153.032 181.233 152.65 185.196C152.459 187.2 152.263 189.219 152.49 191.219C152.718 193.218 153.399 195.222 154.754 196.707C155.603 197.64 156.678 198.333 157.599 199.193C157.746 199.332 157.89 199.476 158.029 199.623C158.693 200.329 159.282 201.102 159.787 201.929C161.995 205.495 163.019 209.668 162.711 213.851C162.656 214.605 162.556 215.355 162.413 216.097C162.238 217.16 161.879 218.184 161.353 219.124C160.934 219.813 160.384 220.415 160.006 221.128C159.627 221.841 159.448 222.729 159.822 223.442C160.384 223.442 160.942 223.541 161.468 223.737C162.709 224.215 163.787 225.037 164.576 226.107C164.867 226.491 165.131 226.896 165.365 227.318C165.661 227.843 165.924 228.386 166.154 228.943C166.25 229.162 166.342 229.389 166.429 229.616C166.449 229.655 166.465 229.697 166.477 229.739H170.147Z" fill="#2F2E41"/>
<path d="M137.568 160.441L129.118 164.125L127.136 164.321L118.128 162.364L118.525 170.376L127.332 166.303L129.314 166.107L138.749 168.376L137.568 160.441Z" fill="#6C63FF"/>
<path d="M154.507 228.943C154.594 229.206 154.67 229.472 154.738 229.739H157.695C157.933 229.49 158.155 229.223 158.356 228.943H154.507ZM76.4087 54.0844V229.739H186.588V54.0844H76.4087ZM185.791 228.943H77.2057V54.8811H185.791V228.943ZM154.507 228.943C154.594 229.206 154.67 229.472 154.738 229.739H157.695C157.933 229.49 158.155 229.223 158.356 228.943H154.507Z" fill="white"/>
<path d="M112.611 130.932L112.679 130.589C112.699 130.487 114.649 120.303 109.625 110.76L109.261 110.069L110.034 110.18C110.255 110.212 115.329 111.025 118.966 119.031C119.286 117.811 119.607 115.245 118.609 110.921L118.467 110.306L119.084 110.443C119.276 110.486 123.654 111.517 125.39 116.832L132.281 111.003V120.472C134.135 119.53 139.818 116.995 143.433 119.253L143.985 119.597L143.427 119.932C143.38 119.96 138.94 122.653 138.059 125.377C139.096 125.386 141.57 125.421 144.019 125.568C150.31 125.946 150.837 126.67 150.837 127.318V127.546L150.641 127.661C150.529 127.727 139.484 134.309 139.239 139.445L139.214 139.973L112.611 130.932ZM137.553 126.171H137.082L137.159 125.707C137.597 123.085 141.032 120.555 142.433 119.622C138.484 117.879 132.147 121.444 132.08 121.482L131.484 121.822V112.721L124.962 118.237L124.798 117.634C123.655 113.446 120.806 111.91 119.535 111.421C120.846 117.699 119.403 120.203 119.339 120.311L118.931 120.99L118.629 120.257C115.993 113.859 112.358 111.824 110.747 111.214C114.891 119.76 113.808 128.566 113.52 130.399L138.498 138.888C139.297 133.963 147.885 128.419 149.851 127.208C148.638 126.563 142.779 126.171 137.553 126.171Z" fill="#6C63FF"/>
<path d="M107.259 106.195C107.259 105.912 107.343 105.636 107.5 105.401C107.657 105.166 107.88 104.983 108.142 104.875C108.403 104.767 108.69 104.738 108.967 104.794C109.245 104.849 109.499 104.985 109.699 105.185C109.899 105.384 110.035 105.639 110.09 105.916C110.146 106.193 110.117 106.481 110.009 106.742C109.901 107.003 109.718 107.226 109.483 107.383C109.248 107.54 108.971 107.624 108.689 107.624C108.31 107.623 107.946 107.472 107.678 107.205C107.41 106.937 107.26 106.574 107.259 106.195ZM108.056 106.195C108.056 106.32 108.093 106.442 108.163 106.546C108.232 106.65 108.331 106.731 108.447 106.779C108.562 106.827 108.689 106.839 108.812 106.815C108.935 106.79 109.047 106.73 109.136 106.642C109.224 106.553 109.284 106.441 109.309 106.318C109.333 106.196 109.321 106.068 109.273 105.953C109.225 105.837 109.144 105.739 109.04 105.669C108.936 105.6 108.814 105.563 108.689 105.563C108.521 105.563 108.36 105.63 108.242 105.748C108.123 105.867 108.056 106.027 108.056 106.195Z" fill="#6C63FF"/>
<path d="M117.568 106.195C117.568 105.912 117.652 105.636 117.809 105.401C117.966 105.166 118.189 104.983 118.45 104.875C118.711 104.767 118.999 104.738 119.276 104.794C119.553 104.849 119.808 104.985 120.008 105.185C120.208 105.384 120.344 105.639 120.399 105.916C120.454 106.193 120.426 106.481 120.318 106.742C120.21 107.003 120.026 107.226 119.791 107.383C119.556 107.54 119.28 107.624 118.997 107.624C118.618 107.623 118.255 107.472 117.987 107.205C117.719 106.937 117.568 106.574 117.568 106.195ZM118.365 106.195C118.365 106.32 118.402 106.442 118.471 106.546C118.541 106.65 118.64 106.731 118.755 106.779C118.871 106.827 118.998 106.839 119.121 106.815C119.243 106.79 119.356 106.73 119.444 106.642C119.533 106.553 119.593 106.441 119.617 106.318C119.642 106.196 119.629 106.068 119.581 105.953C119.534 105.837 119.452 105.739 119.349 105.669C119.245 105.6 119.122 105.563 118.997 105.563C118.83 105.563 118.669 105.63 118.55 105.748C118.432 105.867 118.365 106.027 118.365 106.195Z" fill="#6C63FF"/>
<path d="M132.515 108.771C132.515 108.488 132.599 108.212 132.756 107.977C132.913 107.742 133.136 107.559 133.397 107.451C133.659 107.343 133.946 107.315 134.223 107.37C134.501 107.425 134.755 107.561 134.955 107.761C135.155 107.961 135.291 108.215 135.346 108.492C135.401 108.769 135.373 109.057 135.265 109.318C135.157 109.579 134.974 109.802 134.739 109.959C134.503 110.116 134.227 110.2 133.944 110.2C133.565 110.199 133.202 110.049 132.934 109.781C132.666 109.513 132.516 109.15 132.515 108.771ZM133.312 108.771C133.312 108.896 133.349 109.018 133.419 109.122C133.488 109.226 133.587 109.307 133.702 109.355C133.818 109.403 133.945 109.415 134.068 109.391C134.19 109.367 134.303 109.306 134.392 109.218C134.48 109.13 134.54 109.017 134.565 108.894C134.589 108.772 134.577 108.645 134.529 108.529C134.481 108.414 134.4 108.315 134.296 108.245C134.192 108.176 134.07 108.139 133.944 108.139C133.777 108.139 133.616 108.206 133.498 108.324C133.379 108.443 133.312 108.603 133.312 108.771Z" fill="#6C63FF"/>
<path d="M152.617 126.288C152.617 126.005 152.701 125.729 152.858 125.494C153.015 125.259 153.238 125.076 153.499 124.968C153.76 124.86 154.048 124.832 154.325 124.887C154.602 124.942 154.857 125.078 155.057 125.278C155.257 125.477 155.393 125.732 155.448 126.009C155.503 126.286 155.475 126.574 155.367 126.835C155.258 127.096 155.075 127.319 154.84 127.476C154.605 127.633 154.329 127.717 154.046 127.717C153.667 127.716 153.304 127.566 153.036 127.298C152.768 127.03 152.617 126.667 152.617 126.288ZM153.414 126.288C153.414 126.413 153.451 126.535 153.52 126.639C153.59 126.743 153.688 126.824 153.804 126.872C153.92 126.92 154.047 126.932 154.169 126.908C154.292 126.883 154.405 126.823 154.493 126.735C154.582 126.646 154.642 126.534 154.666 126.411C154.691 126.289 154.678 126.162 154.63 126.046C154.582 125.931 154.501 125.832 154.397 125.762C154.293 125.693 154.171 125.656 154.046 125.656C153.878 125.656 153.718 125.723 153.599 125.841C153.481 125.96 153.414 126.12 153.414 126.288Z" fill="#6C63FF"/>
<path d="M145.401 117.529C145.401 117.247 145.485 116.971 145.642 116.736C145.799 116.501 146.022 116.317 146.283 116.209C146.544 116.101 146.832 116.073 147.109 116.128C147.386 116.183 147.641 116.319 147.841 116.519C148.041 116.719 148.177 116.973 148.232 117.251C148.287 117.528 148.259 117.815 148.151 118.076C148.043 118.337 147.859 118.56 147.624 118.717C147.389 118.874 147.113 118.958 146.83 118.958C146.451 118.958 146.088 118.807 145.82 118.539C145.552 118.271 145.401 117.908 145.401 117.529ZM146.198 117.529C146.198 117.654 146.235 117.777 146.304 117.881C146.374 117.985 146.473 118.066 146.588 118.114C146.704 118.161 146.831 118.174 146.954 118.15C147.076 118.125 147.189 118.065 147.277 117.977C147.366 117.888 147.426 117.775 147.451 117.653C147.475 117.53 147.462 117.403 147.415 117.288C147.367 117.172 147.286 117.073 147.182 117.004C147.078 116.934 146.955 116.897 146.83 116.897C146.663 116.897 146.502 116.964 146.383 117.083C146.265 117.201 146.198 117.362 146.198 117.529Z" fill="#6C63FF"/>
<path d="M367 257.024H4.78174V257.82H367V257.024Z" fill="white"/>
</g>
<defs>
<clipPath id="clip0_261_820">
<rect width="367" height="258" fill="white"/>
</clipPath>
</defs>
</svg>
