<svg width="363" height="259" viewBox="0 0 363 259" fill="none" xmlns="http://www.w3.org/2000/svg">
<path d="M354.093 182.949C397.975 231.457 270.769 301.363 167.985 301.363C65.2 301.363 -5.91096 247.198 -18.1235 182.949C-47.7347 27.1668 234.171 -71.8475 167.985 64.5346C71.5106 263.327 319.535 144.748 354.093 182.949Z" fill="#E6E6E6"/>
<path d="M334.404 194.429C378.286 242.937 251.081 312.843 148.296 312.843C45.5113 312.843 -25.5997 258.678 -37.8122 194.429C-67.4234 38.647 214.482 -60.3673 148.296 76.0148C51.8218 274.807 299.847 156.228 334.404 194.429Z" fill="#3F3D56"/>
<path d="M21.361 80.7003C-9.43045 79.3451 -33.3047 72.7059 -32.9911 65.5855C-32.803 61.3166 -24.0888 57.8838 -9.08282 56.1678C-9.02911 56.1613 -8.97465 56.1654 -8.92257 56.1801C-8.87049 56.1947 -8.82182 56.2195 -8.77935 56.253C-8.73689 56.2865 -8.70147 56.328 -8.67514 56.3753C-8.64882 56.4225 -8.6321 56.4745 -8.62595 56.5282C-8.61981 56.5819 -8.62435 56.6363 -8.63932 56.6883C-8.6543 56.7403 -8.67941 56.7888 -8.71321 56.831C-8.74701 56.8732 -8.78883 56.9083 -8.83627 56.9343C-8.8837 56.9603 -8.93581 56.9767 -8.9896 56.9825C-23.1252 58.5991 -32.008 61.9095 -32.1715 65.6216C-32.4552 72.0606 -7.92381 78.5906 21.397 79.881C50.7179 81.1715 75.7285 76.822 76.0121 70.3829C76.1763 66.6552 67.5636 62.5659 53.535 59.711C53.482 59.7004 53.4317 59.6795 53.3869 59.6494C53.3421 59.6193 53.3037 59.5807 53.2739 59.5358C53.244 59.4908 53.2233 59.4404 53.213 59.3875C53.2027 59.3345 53.2029 59.28 53.2137 59.2272C53.2244 59.1743 53.2455 59.1241 53.2758 59.0794C53.306 59.0347 53.3447 58.9964 53.3898 58.9667C53.4348 58.937 53.4853 58.9165 53.5383 58.9063C53.5913 58.8961 53.6458 58.8965 53.6987 58.9074C68.5888 61.9377 77.0204 66.1335 76.8317 70.419C76.518 77.5394 52.1524 82.0555 21.361 80.7003Z" fill="#6C63FF"/>
<path d="M-5.98657 81.8931C-3.41069 86.7843 0.405071 90.9137 5.07892 93.8679C9.75278 96.8221 15.1208 98.4977 20.646 98.7269C26.1711 98.9561 31.6596 97.731 36.5623 95.1741C41.465 92.6172 45.61 88.8181 48.5825 84.1571C30.365 84.4025 12.1479 83.6467 -5.98657 81.8931V81.8931Z" fill="#6C63FF"/>
<path d="M51.9891 75.5323C53.5394 70.8844 53.986 65.9396 53.2938 61.0892C52.6016 56.2389 50.7895 51.6161 48.0009 47.5869C45.2123 43.5576 41.5238 40.2324 37.2272 37.8745C32.9307 35.5166 28.1441 34.1906 23.2462 34.0015C18.3483 33.8125 13.4737 34.7655 9.00798 36.7852C4.54231 38.8049 0.608223 41.8359 -2.48293 45.6382C-5.57408 49.4405 -7.73745 53.9097 -8.80181 58.6923C-9.86616 63.4748 -9.8023 68.4394 -8.61527 73.193C11.4 76.5893 31.7715 77.3756 51.9891 75.5323V75.5323Z" fill="#6C63FF"/>
<path d="M29.2527 54.368C31.2915 54.368 32.9443 52.7159 32.9443 50.6779C32.9443 48.6399 31.2915 46.9878 29.2527 46.9878C27.2138 46.9878 25.561 48.6399 25.561 50.6779C25.561 52.7159 27.2138 54.368 29.2527 54.368Z" fill="white"/>
<path d="M10.2528 68.7139C13.6509 68.7139 16.4056 65.9604 16.4056 62.5637C16.4056 59.1671 13.6509 56.4136 10.2528 56.4136C6.85478 56.4136 4.1001 59.1671 4.1001 62.5637C4.1001 65.9604 6.85478 68.7139 10.2528 68.7139Z" fill="white"/>
<path d="M103.115 62.69C105.38 62.69 107.217 60.8544 107.217 58.59C107.217 56.3256 105.38 54.49 103.115 54.49C100.85 54.49 99.0133 56.3256 99.0133 58.59C99.0133 60.8544 100.85 62.69 103.115 62.69Z" fill="#6C63FF"/>
<path d="M10.4135 188.153C11.7728 188.153 12.8747 187.052 12.8747 185.693C12.8747 184.335 11.7728 183.233 10.4135 183.233C9.05428 183.233 7.95239 184.335 7.95239 185.693C7.95239 187.052 9.05428 188.153 10.4135 188.153Z" fill="#E6E6E6"/>
<path d="M22.3089 140.591C22.9886 140.591 23.5395 140.041 23.5395 139.361C23.5395 138.682 22.9886 138.131 22.3089 138.131C21.6293 138.131 21.0784 138.682 21.0784 139.361C21.0784 140.041 21.6293 140.591 22.3089 140.591Z" fill="#E6E6E6"/>
<path d="M124.034 232.434C124.714 232.434 125.265 231.884 125.265 231.204C125.265 230.525 124.714 229.974 124.034 229.974C123.355 229.974 122.804 230.525 122.804 231.204C122.804 231.884 123.355 232.434 124.034 232.434Z" fill="#E6E6E6"/>
<path d="M309.027 220.544C309.707 220.544 310.258 219.993 310.258 219.314C310.258 218.634 309.707 218.084 309.027 218.084C308.348 218.084 307.797 218.634 307.797 219.314C307.797 219.993 308.348 220.544 309.027 220.544Z" fill="#E6E6E6"/>
<path d="M251.191 257.035C251.871 257.035 252.422 256.484 252.422 255.805C252.422 255.125 251.871 254.574 251.191 254.574C250.512 254.574 249.961 255.125 249.961 255.805C249.961 256.484 250.512 257.035 251.191 257.035Z" fill="#E6E6E6"/>
<path d="M190.894 212.754C191.574 212.754 192.125 212.203 192.125 211.524C192.125 210.844 191.574 210.294 190.894 210.294C190.215 210.294 189.664 210.844 189.664 211.524C189.664 212.203 190.215 212.754 190.894 212.754Z" fill="#E6E6E6"/>
<path d="M112.959 91.3908C113.639 91.3908 114.19 90.8401 114.19 90.1607C114.19 89.4814 113.639 88.9307 112.959 88.9307C112.28 88.9307 111.729 89.4814 111.729 90.1607C111.729 90.8401 112.28 91.3908 112.959 91.3908Z" fill="#E6E6E6"/>
<path d="M122.804 30.7094C123.483 30.7094 124.034 30.1587 124.034 29.4793C124.034 28.8 123.483 28.2493 122.804 28.2493C122.124 28.2493 121.573 28.8 121.573 29.4793C121.573 30.1587 122.124 30.7094 122.804 30.7094Z" fill="#E6E6E6"/>
<path d="M56.3542 260.315C57.0339 260.315 57.5848 259.764 57.5848 259.085C57.5848 258.405 57.0339 257.855 56.3542 257.855C55.6746 257.855 55.1237 258.405 55.1237 259.085C55.1237 259.764 55.6746 260.315 56.3542 260.315Z" fill="#E6E6E6"/>
<path d="M248.73 216.034C249.41 216.034 249.961 215.483 249.961 214.804C249.961 214.124 249.41 213.573 248.73 213.573C248.05 213.573 247.499 214.124 247.499 214.804C247.499 215.483 248.05 216.034 248.73 216.034Z" fill="#E6E6E6"/>
<path d="M20.8605 95.8599C22.8993 95.8599 24.5521 94.2078 24.5521 92.1698C24.5521 90.1318 22.8993 88.4797 20.8605 88.4797C18.8216 88.4797 17.1688 90.1318 17.1688 92.1698C17.1688 94.2078 18.8216 95.8599 20.8605 95.8599Z" fill="white"/>
<path d="M104.345 148.792C104.345 159.813 87.2984 185.494 82.3166 192.764C82.1663 192.984 81.9646 193.164 81.7291 193.288C81.4936 193.412 81.2313 193.477 80.9649 193.477C80.6986 193.477 80.4363 193.412 80.2008 193.288C79.9652 193.164 79.7635 192.984 79.6132 192.764C74.6314 185.494 57.5845 159.813 57.5845 148.792C57.5845 145.723 58.1892 142.684 59.3642 139.848C60.5392 137.013 62.2614 134.437 64.4324 132.266C66.6035 130.096 69.181 128.375 72.0176 127.2C74.8543 126.026 77.8946 125.421 80.9649 125.421C84.0353 125.421 87.0756 126.026 89.9122 127.2C92.7489 128.375 95.3263 130.096 97.4974 132.266C99.6685 134.437 101.391 137.013 102.566 139.848C103.741 142.684 104.345 145.723 104.345 148.792V148.792Z" fill="white"/>
<path d="M80.965 159.042C87.5346 159.042 92.8603 153.719 92.8603 147.152C92.8603 140.585 87.5346 135.261 80.965 135.261C74.3954 135.261 69.0697 140.585 69.0697 147.152C69.0697 153.719 74.3954 159.042 80.965 159.042Z" fill="#6C63FF"/>
<path d="M80.7599 206.194C88.349 206.194 94.5011 205 94.5011 203.529C94.5011 202.057 88.349 200.864 80.7599 200.864C73.1709 200.864 67.0188 202.057 67.0188 203.529C67.0188 205 73.1709 206.194 80.7599 206.194Z" fill="white"/>
<path d="M295.06 130.35C294.956 130.552 294.868 130.762 294.797 130.977L275.197 136.421L271.665 132.966L265.752 137.612L271.41 144.336C271.867 144.879 272.488 145.26 273.18 145.42C273.871 145.58 274.597 145.512 275.246 145.226L296.418 135.884C297.137 136.382 297.99 136.65 298.864 136.652C299.738 136.654 300.593 136.389 301.313 135.894C302.034 135.399 302.586 134.696 302.897 133.88C303.209 133.063 303.264 132.171 303.055 131.322C302.847 130.473 302.385 129.708 301.731 129.128C301.076 128.548 300.261 128.181 299.393 128.075C298.525 127.97 297.646 128.131 296.871 128.538C296.097 128.944 295.465 129.576 295.06 130.35H295.06Z" fill="#FFB8B8"/>
<path d="M274.506 136.74L267.15 142.463C266.94 142.626 266.698 142.742 266.44 142.803C266.182 142.864 265.914 142.869 265.654 142.816C265.394 142.764 265.148 142.657 264.933 142.501C264.718 142.346 264.539 142.146 264.409 141.915L259.837 133.827C259.009 132.751 258.642 131.392 258.815 130.046C258.989 128.701 259.689 127.479 260.763 126.649C261.836 125.819 263.195 125.448 264.542 125.618C265.888 125.788 267.113 126.485 267.946 127.556L274.647 133.949C274.839 134.133 274.989 134.355 275.088 134.601C275.186 134.848 275.23 135.112 275.216 135.377C275.203 135.642 275.132 135.9 275.01 136.136C274.887 136.371 274.716 136.577 274.506 136.74V136.74Z" fill="#6C63FF"/>
<path d="M296.939 127.643L304.4 130.998C304.712 131.138 304.956 131.397 305.078 131.717C305.199 132.037 305.188 132.393 305.048 132.705L304.165 134.667C304.268 134.715 304.349 134.801 304.39 134.907C304.43 135.014 304.427 135.132 304.381 135.237L304.027 136.022C303.98 136.125 303.894 136.206 303.787 136.247C303.68 136.287 303.562 136.284 303.458 136.237L303.105 137.022C303.208 137.069 303.29 137.156 303.33 137.262C303.37 137.369 303.367 137.487 303.321 137.591L302.967 138.376C302.92 138.48 302.834 138.561 302.727 138.602C302.62 138.642 302.502 138.639 302.398 138.592L297.628 149.19C297.488 149.502 297.229 149.746 296.908 149.867C296.588 149.988 296.233 149.978 295.92 149.837L288.46 146.482C288.147 146.342 287.904 146.083 287.782 145.763C287.661 145.443 287.671 145.087 287.812 144.775L295.231 128.29C295.372 127.978 295.631 127.734 295.951 127.613C296.272 127.492 296.627 127.502 296.939 127.643V127.643Z" fill="#3F3D56"/>
<path d="M289.814 145.438L295.799 148.133C296.099 148.267 296.439 148.277 296.747 148.161C297.054 148.045 297.303 147.812 297.439 147.513L300.203 141.367L301.164 139.237L303.665 133.676C303.799 133.377 303.809 133.037 303.692 132.731C303.576 132.424 303.344 132.176 303.045 132.041L301.164 131.193L297.056 129.346C296.756 129.213 296.416 129.203 296.109 129.32C295.802 129.437 295.554 129.671 295.42 129.971L293 135.346L290.245 141.466L289.194 143.803C289.06 144.102 289.05 144.442 289.166 144.749C289.282 145.055 289.515 145.303 289.814 145.438V145.438Z" fill="#F2F2F2"/>
<path d="M277.309 221.587L282.337 221.587L284.73 202.198L277.308 202.199L277.309 221.587Z" fill="#FFB8B8"/>
<path d="M276.026 219.946L285.929 219.946H285.93C286.759 219.946 287.579 220.109 288.345 220.426C289.111 220.743 289.807 221.207 290.393 221.793C290.979 222.379 291.444 223.074 291.761 223.84C292.078 224.605 292.241 225.426 292.241 226.254V226.459L276.026 226.46L276.026 219.946Z" fill="#2F2E41"/>
<path d="M290.434 220.357L295.463 220.357L297.856 200.968L290.434 200.969L290.434 220.357Z" fill="#FFB8B8"/>
<path d="M289.152 218.716L299.055 218.715H299.056C299.884 218.715 300.705 218.878 301.471 219.195C302.237 219.513 302.932 219.977 303.518 220.563C304.104 221.149 304.569 221.844 304.887 222.61C305.204 223.375 305.367 224.195 305.367 225.024V225.229L289.152 225.229L289.152 218.716Z" fill="#2F2E41"/>
<path d="M254.752 176.09C255.823 179.265 257.855 182.028 260.567 183.998C263.279 185.967 266.536 187.045 269.887 187.083L270.142 187.087C272.738 187.161 275.786 186.324 278.776 185.123C284.683 182.749 290.355 178.948 291.861 177.903L289.31 202.417L288.276 212.356C288.25 212.613 288.278 212.873 288.358 213.118C288.439 213.364 288.57 213.59 288.743 213.782C288.916 213.974 289.127 214.127 289.363 214.233C289.599 214.338 289.855 214.393 290.114 214.394H296.484C296.892 214.394 297.289 214.259 297.613 214.009C297.936 213.76 298.168 213.411 298.272 213.016L308.789 172.978C309.105 171.78 309.13 170.524 308.863 169.314C308.596 168.104 308.045 166.974 307.255 166.019C306.465 165.065 305.459 164.311 304.32 163.823C303.18 163.334 301.941 163.123 300.704 163.208L278.858 164.704L280.384 158.603L260.884 157.308L260.826 157.349C260.359 157.689 259.904 158.046 259.469 158.419C258.382 159.338 257.418 160.394 256.601 161.56C255.141 163.652 254.21 166.067 253.888 168.597C253.565 171.128 253.862 173.699 254.752 176.09Z" fill="#2F2E41"/>
<path d="M254.752 176.091C255.823 179.265 257.855 182.028 260.567 183.998C263.279 185.967 266.536 187.045 269.887 187.083C273.092 185.462 276.185 183.627 279.145 181.593L278.776 185.123L275.56 216.046C275.534 216.303 275.562 216.563 275.643 216.809C275.723 217.054 275.854 217.28 276.027 217.472C276.2 217.664 276.412 217.818 276.648 217.923C276.884 218.028 277.139 218.083 277.398 218.084H283.768C284.176 218.084 284.573 217.949 284.897 217.7C285.221 217.45 285.452 217.101 285.556 216.706L289.31 202.417L296.073 176.669C296.389 175.47 296.414 174.214 296.147 173.004C295.881 171.794 295.329 170.665 294.539 169.71C293.749 168.755 292.743 168.002 291.604 167.513C290.465 167.024 289.225 166.813 287.989 166.898L266.142 168.395L267.668 162.294L256.601 161.56C255.141 163.652 254.21 166.067 253.888 168.598C253.565 171.128 253.862 173.699 254.752 176.091V176.091Z" fill="#2F2E41"/>
<path d="M259.441 159.833L259.294 159.816L255.892 143.093C255.863 142.948 253.081 128.524 261.608 120.984L261.757 119.952C261.795 119.688 261.89 119.435 262.035 119.211C262.18 118.987 262.372 118.797 262.598 118.655C262.823 118.512 263.077 118.42 263.342 118.385C263.607 118.35 263.876 118.373 264.131 118.452L272.164 120.943C272.619 121.083 273.002 121.393 273.232 121.809C273.463 122.225 273.524 122.714 273.402 123.174L272.621 126.143C273.704 127.414 286.451 142.754 282.011 154.571L280.022 162.342L259.441 159.833Z" fill="#6C63FF"/>
<path d="M292.797 146.782C292.605 146.903 292.423 147.039 292.252 147.188L272.605 141.917L271.321 137.146L263.866 138.143L265.318 146.809C265.436 147.509 265.777 148.152 266.291 148.641C266.805 149.131 267.465 149.441 268.17 149.524L291.153 152.238C291.518 153.032 292.117 153.696 292.869 154.142C293.621 154.588 294.491 154.795 295.363 154.734C296.235 154.674 297.068 154.35 297.752 153.804C298.435 153.259 298.936 152.519 299.188 151.682C299.441 150.845 299.432 149.951 299.164 149.119C298.895 148.288 298.38 147.557 297.686 147.025C296.992 146.493 296.153 146.185 295.279 146.142C294.406 146.099 293.54 146.322 292.797 146.782H292.797Z" fill="#FFB8B8"/>
<path d="M271.848 141.84L262.602 143.031C262.339 143.065 262.072 143.041 261.819 142.963C261.565 142.884 261.332 142.752 261.135 142.575C260.937 142.398 260.78 142.18 260.674 141.937C260.568 141.694 260.516 141.431 260.521 141.166L260.697 131.877C260.532 130.531 260.907 129.174 261.741 128.103C262.574 127.033 263.799 126.337 265.145 126.167C266.492 125.998 267.851 126.369 268.924 127.2C269.997 128.03 270.697 129.252 270.87 130.598L273.389 139.509C273.461 139.764 273.477 140.032 273.437 140.294C273.396 140.556 273.299 140.806 273.153 141.027C273.007 141.248 272.814 141.436 272.589 141.576C272.364 141.716 272.112 141.806 271.848 141.84V141.84Z" fill="#6C63FF"/>
<path d="M269.246 116.183C274.81 116.183 279.32 111.674 279.32 106.112C279.32 100.551 274.81 96.0422 269.246 96.0422C263.682 96.0422 259.171 100.551 259.171 106.112C259.171 111.674 263.682 116.183 269.246 116.183Z" fill="#FFB8B8"/>
<path d="M268.716 106.953L267.454 104.657C265.065 114.388 269.285 122.441 269.285 122.441L252.906 114.814L253.062 112.108L251.441 113.946L249.112 112.664L248.804 110.909L247.047 111.344L253.463 99.7047C259.691 88.6291 268.745 92.8576 268.745 92.8576C283.148 92.1732 281.389 106.378 281.389 106.378L268.716 106.953Z" fill="#2F2E41"/>
<path d="M154.033 181.998C156.356 180.51 153.531 171.962 147.724 162.907C141.917 153.852 135.326 147.718 133.003 149.207C130.68 150.695 133.505 159.242 139.312 168.297C145.12 177.352 151.711 183.486 154.033 181.998Z" fill="#3F3D56"/>
<path d="M185.374 162.669C193.322 162.669 199.765 156.228 199.765 148.283C199.765 140.339 193.322 133.898 185.374 133.898C177.425 133.898 170.982 140.339 170.982 148.283C170.982 156.228 177.425 162.669 185.374 162.669Z" fill="#E6E6E6"/>
<path d="M220.644 166.769L205.605 151.736C206.758 149.944 207.539 147.939 207.902 145.839C208.265 143.74 208.203 141.588 207.72 139.513C207.236 137.438 206.341 135.481 205.086 133.758C203.832 132.035 202.245 130.581 200.418 129.483C196.979 127.429 192.893 126.741 188.971 127.556C185.048 128.37 181.575 130.627 179.238 133.88C177.088 136.894 176.056 140.562 176.318 144.254C176.58 147.945 178.121 151.431 180.675 154.11C183.23 156.789 186.638 158.495 190.315 158.935C193.991 159.375 197.706 158.52 200.821 156.518L215.86 171.551C216.495 172.185 217.355 172.541 218.252 172.54C219.149 172.54 220.009 172.184 220.643 171.55C221.277 170.916 221.633 170.056 221.634 169.16C221.634 168.263 221.278 167.403 220.644 166.769V166.769ZM200.259 151.175C198.396 153.038 195.944 154.197 193.321 154.455C190.699 154.714 188.068 154.055 185.876 152.591C183.685 151.128 182.069 148.95 181.304 146.429C180.539 143.909 180.672 141.201 181.681 138.767C182.689 136.333 184.511 134.324 186.835 133.083C189.159 131.841 191.842 131.443 194.427 131.957C197.012 132.471 199.338 133.865 201.01 135.901C202.682 137.937 203.596 140.49 203.596 143.124C203.597 144.62 203.304 146.101 202.731 147.483C202.159 148.864 201.319 150.119 200.259 151.175V151.175Z" fill="#3F3D56"/>
</svg>
