<svg width="100" height="62" viewBox="0 0 123 62" fill="none" xmlns="http://www.w3.org/2000/svg">
<path d="M37.184 46.848C38.1227 46.848 38.8907 47.0187 39.488 47.36C40.128 47.7013 40.6187 48.128 40.96 48.64C41.344 49.152 41.6 49.728 41.728 50.368C41.8987 51.008 41.984 51.6267 41.984 52.224C41.984 52.864 41.8987 53.504 41.728 54.144C41.6 54.784 41.344 55.36 40.96 55.872C40.576 56.384 40.064 56.8107 39.424 57.152C38.8267 57.4933 38.08 57.664 37.184 57.664H13.824C11.904 57.664 10.304 57.4933 9.024 57.152C7.78667 56.8107 6.80533 56.256 6.08 55.488C5.35467 54.6773 4.84267 53.6533 4.544 52.416C4.24533 51.136 4.096 49.5787 4.096 47.744V9.408C4.096 7.27466 4.71467 5.73866 5.952 4.8C7.232 3.81867 8.74667 3.328 10.496 3.328C12.288 3.328 13.7813 3.81867 14.976 4.8C16.1707 5.73866 16.768 7.27466 16.768 9.408V45.12C16.768 45.8453 16.8747 46.3147 17.088 46.528C17.344 46.7413 17.8347 46.848 18.56 46.848H37.184ZM45.696 6.976C45.696 4.928 46.336 3.392 47.616 2.368C48.896 1.30133 50.368 0.767998 52.032 0.767998C52.8427 0.767998 53.632 0.91733 54.4 1.216C55.168 1.472 55.8293 1.856 56.384 2.368C56.9813 2.88 57.4507 3.52 57.792 4.288C58.176 5.056 58.368 5.952 58.368 6.976V23.168H60.48C61.4613 23.168 62.272 23.3387 62.912 23.68C63.552 24.0213 64.064 24.4693 64.448 25.024C64.832 25.536 65.1093 26.1333 65.28 26.816C65.4507 27.456 65.536 28.096 65.536 28.736C65.536 29.376 65.4507 30.0373 65.28 30.72C65.1093 31.36 64.832 31.9573 64.448 32.512C64.064 33.024 63.5307 33.4507 62.848 33.792C62.208 34.1333 61.4187 34.304 60.48 34.304H58.368V60.864H45.696V6.976Z" fill="#4461AA"/>
<path d="M72 41H118" stroke="#4461AA" stroke-width="10" stroke-linecap="round"/>
<path d="M95 56.5V42.5" stroke="#4461AA" stroke-width="10" stroke-linecap="square"/>
<path d="M72 5C73.1058 6.4375 76.562 7.875 79.2665 7.875C81.971 7.875 85.1113 6.67708 86.375 5" stroke="#4461AA" stroke-width="4" stroke-linecap="round"/>
<path d="M86.375 4.99999C87.5913 7.15624 91.5023 8.13635 94.4773 8.13635C97.4523 8.13635 100.797 7.51562 102.187 4.99999" stroke="#4461AA" stroke-width="4" stroke-linecap="round"/>
<path d="M102.187 4.99999C103.404 7.15624 106.478 8.13635 110.159 8.13635C112.228 8.13635 116.61 7.51562 118 4.99999" stroke="#4461AA" stroke-width="4" stroke-linecap="round"/>
<path d="M72 15V26" stroke="#8FDAD6" stroke-width="4" stroke-linecap="round" stroke-linejoin="round"/>
<path d="M72 25.9091C73.1058 27.3466 76.562 28.7841 79.2665 28.7841C81.971 28.7841 85.1113 27.5862 86.375 25.9091" stroke="#8FDAD6" stroke-width="4" stroke-linecap="round"/>
<path d="M86.375 25.9091C87.5913 28.0654 91.5023 29.0455 94.4773 29.0455C97.4523 29.0455 100.797 28.4247 102.187 25.9091" stroke="#8FDAD6" stroke-width="4" stroke-linecap="round"/>
<path d="M102.188 25.9091C103.404 28.0654 106.478 29.0455 110.159 29.0455C112.228 29.0455 116.61 28.4247 118 25.9091" stroke="#8FDAD6" stroke-width="4" stroke-linecap="round"/>
<path d="M118 5V15" stroke="#4461AA" stroke-width="4" stroke-linecap="round" stroke-linejoin="round"/>
<path d="M72 15C73.1058 16.4375 76.562 17.875 79.2665 17.875C81.971 17.875 85.1113 16.6771 86.375 15" stroke="#63BFF3" stroke-width="4" stroke-linecap="round"/>
<path d="M86.375 15C87.5913 17.1562 91.5023 18.1364 94.4773 18.1364C97.4523 18.1364 100.797 17.5156 102.187 15" stroke="#63BFF3" stroke-width="4" stroke-linecap="round"/>
<path d="M102.188 15C103.404 17.1562 106.478 18.1364 110.159 18.1364C112.228 18.1364 116.61 17.5156 118 15" stroke="#63BFF3" stroke-width="4" stroke-linecap="round"/>
</svg>
