<svg width="32" height="30" viewBox="0 0 32 30" fill="none" xmlns="http://www.w3.org/2000/svg">
<circle cx="16" cy="15" r="15" fill="D1D9DE"/>
<path d="M29.8537 7.62398C28.4229 5.27859 26.4822 3.42174 24.031 2.05302C21.5794 0.684223 18.903 0 15.9999 0C13.0971 0 10.4198 0.684432 7.96873 2.05302C5.51729 3.42167 3.57662 5.27859 2.14585 7.62398C0.715309 9.9693 0 12.5304 0 15.3072C0 18.6428 1.01718 21.6423 3.05205 24.3064C5.0867 26.9706 7.71517 28.8142 10.9372 29.8373C11.3123 29.9039 11.5899 29.8571 11.7705 29.698C11.9511 29.5387 12.0412 29.3391 12.0412 29.1002C12.0412 29.0604 12.0377 28.7018 12.0307 28.024C12.0236 27.3462 12.0202 26.7549 12.0202 26.2503L11.541 26.3296C11.2355 26.3832 10.8501 26.4059 10.3848 26.3994C9.91969 26.3932 9.43686 26.3466 8.93695 26.2599C8.43682 26.174 7.97165 25.9746 7.54107 25.6624C7.1107 25.3501 6.80518 24.9414 6.62458 24.4368L6.41626 23.9781C6.2774 23.6727 6.05879 23.3335 5.76013 22.9617C5.46147 22.5895 5.15945 22.3372 4.85393 22.2044L4.70807 22.1045C4.61087 22.0381 4.52068 21.958 4.43728 21.8651C4.35395 21.7722 4.29156 21.6792 4.2499 21.5861C4.20816 21.4929 4.24275 21.4164 4.35402 21.3565C4.4653 21.2965 4.6664 21.2674 4.9582 21.2674L5.37471 21.3269C5.6525 21.3802 5.99611 21.5393 6.40597 21.8052C6.81561 22.0709 7.15236 22.4163 7.41629 22.8414C7.73589 23.3863 8.12095 23.8015 8.57255 24.0873C9.02378 24.373 9.47874 24.5156 9.93698 24.5156C10.3952 24.5156 10.791 24.4824 11.1245 24.4163C11.4576 24.3498 11.7701 24.2499 12.0619 24.1172C12.1869 23.2265 12.5272 22.5423 13.0826 22.064C12.291 21.9844 11.5794 21.8646 10.9472 21.7052C10.3155 21.5456 9.66262 21.2866 8.98912 20.9275C8.31526 20.5689 7.75625 20.1235 7.31194 19.5923C6.86757 19.0607 6.50287 18.3629 6.21837 17.4994C5.93372 16.6355 5.79136 15.639 5.79136 14.5096C5.79136 12.9015 6.34008 11.5331 7.4373 10.4035C6.92332 9.19453 6.97184 7.83921 7.58302 6.3377C7.98581 6.21797 8.58313 6.30782 9.37469 6.60668C10.1664 6.90569 10.7461 7.16183 11.1143 7.37419C11.4825 7.58649 11.7775 7.76639 11.9997 7.9123C13.2916 7.56694 14.6248 7.39423 15.9997 7.39423C17.3746 7.39423 18.7081 7.56694 20.0001 7.9123L20.7917 7.43416C21.333 7.11512 21.9723 6.82275 22.708 6.55698C23.4441 6.29135 24.007 6.21818 24.396 6.33791C25.0208 7.83949 25.0765 9.19474 24.5623 10.4037C25.6595 11.5333 26.2084 12.9021 26.2084 14.5098C26.2084 15.6392 26.0656 16.6389 25.7813 17.5094C25.4968 18.38 25.1289 19.0771 24.6777 19.6022C24.2259 20.1273 23.6634 20.5691 22.9899 20.9277C22.3162 21.2865 21.6632 21.5455 21.0314 21.7051C20.3993 21.8647 19.6877 21.9846 18.8961 22.0644C19.6181 22.6621 19.9791 23.6056 19.9791 24.8944V29.0997C19.9791 29.3386 20.0659 29.538 20.2398 29.6974C20.4133 29.8565 20.6875 29.9034 21.0625 29.8367C24.2851 28.8137 26.9135 26.9701 28.9481 24.3058C30.9825 21.6417 32 18.6423 32 15.3067C31.9993 12.5302 31.2836 9.9693 29.8537 7.62398Z" fill="white"/>
</svg>
