<svg width="24" height="24" viewBox="0 0 24 24" fill="none" xmlns="http://www.w3.org/2000/svg">
<circle cx="12" cy="12" r="12" fill="white"/>
<g clip-path="url(#clip0_232_170)">
<path d="M6.9939 9.41952C7.35718 8.66249 7.87046 8.02265 8.51733 7.49062C9.3939 6.7664 10.3994 6.33046 11.5267 6.19687C12.8509 6.03984 14.0955 6.29062 15.2462 6.97968C15.5322 7.15077 15.7994 7.34531 16.0548 7.55624C16.1181 7.60781 16.1111 7.63827 16.0572 7.68984C15.5345 8.21015 15.0119 8.73046 14.4939 9.25546C14.433 9.3164 14.4001 9.31171 14.3345 9.26249C12.8158 8.09296 10.6009 8.40937 9.4689 9.95624C9.26968 10.2281 9.10796 10.5211 8.99546 10.8398C8.98608 10.868 8.96733 10.8937 8.95327 10.9219C8.65093 10.6922 8.34624 10.4625 8.04624 10.2305C7.69468 9.96093 7.34312 9.6914 6.9939 9.41952Z" fill="#E94335"/>
<path d="M8.95317 13.1204C9.05396 13.343 9.13833 13.575 9.26489 13.7836C9.79692 14.6555 10.5563 15.2157 11.5571 15.4149C12.4594 15.5954 13.3266 15.4735 14.1352 15.0211C14.1633 15.0071 14.1915 14.993 14.2172 14.979C14.2313 14.993 14.243 15.0094 14.2571 15.0211C14.8618 15.4899 15.4688 15.9586 16.0735 16.4274C15.7829 16.7157 15.4524 16.9477 15.1008 17.1493C14.0813 17.7305 12.9774 17.9649 11.8149 17.8758C10.3665 17.7633 9.11724 17.1915 8.08599 16.1602C7.63364 15.7079 7.26099 15.1969 6.99146 14.6133C7.24224 14.4211 7.49302 14.2313 7.7438 14.0391C8.14692 13.7321 8.55005 13.4274 8.95317 13.1204Z" fill="#34A853"/>
<path d="M16.0758 16.4273C15.4712 15.9586 14.8641 15.4898 14.2594 15.0211C14.2454 15.0094 14.2313 14.993 14.2196 14.9789C14.4282 14.8172 14.6415 14.6602 14.8126 14.4539C15.0985 14.1117 15.2883 13.725 15.3868 13.2914C15.3985 13.2375 15.3891 13.2188 15.3352 13.2211C15.3071 13.2234 15.2813 13.2211 15.2532 13.2211C14.2969 13.2211 13.3383 13.2188 12.3821 13.2234C12.2766 13.2234 12.2532 13.1953 12.2555 13.0945C12.2602 12.4148 12.2602 11.7352 12.2555 11.0555C12.2555 10.9687 12.279 10.9453 12.3657 10.9453C14.1188 10.9477 15.8719 10.9477 17.6274 10.9453C17.7024 10.9453 17.7329 10.9641 17.7516 11.0437C17.8946 11.6883 17.8852 12.3352 17.7985 12.9867C17.7282 13.507 17.6016 14.0109 17.4071 14.4984C17.1188 15.218 16.6946 15.8461 16.1368 16.3852C16.1157 16.4016 16.0946 16.4133 16.0758 16.4273Z" fill="#4285F3"/>
<path d="M8.95317 13.1203C8.55004 13.4273 8.14692 13.732 7.74379 14.0391C7.49301 14.2289 7.24223 14.4211 6.99145 14.6133C6.79692 14.2523 6.67036 13.8703 6.56723 13.4766C6.37036 12.7148 6.33989 11.9414 6.4477 11.1656C6.53207 10.5562 6.70786 9.97031 6.99145 9.42188C7.34301 9.69141 7.69223 9.96328 8.04379 10.2328C8.34614 10.4648 8.64848 10.6945 8.95082 10.9242C8.89926 11.175 8.82661 11.4211 8.80317 11.6789C8.76098 12.1477 8.80551 12.6047 8.93911 13.0547C8.94848 13.0734 8.95082 13.0969 8.95317 13.1203Z" fill="#FABB06"/>
</g>
<defs>
<clipPath id="clip0_232_170">
<rect width="12" height="12" fill="white" transform="translate(6 6)"/>
</clipPath>
</defs>
</svg>
