<svg width="30" height="24" viewBox="0 0 30 24" fill="none" xmlns="http://www.w3.org/2000/svg">
<path d="M14.6246 4.04966L15 4.47638L15.3754 4.04966C18.2655 0.764524 21.8138 -0.0691282 24.5929 0.850725C27.3647 1.76818 29.5 4.47104 29.5 8.54814C29.5 10.5327 28.6272 12.4605 27.2583 14.26C25.8908 16.0577 24.0557 17.6905 22.2011 19.0734C20.3491 20.4544 18.4943 21.5739 17.1008 22.3487C16.4046 22.7358 15.825 23.0361 15.4203 23.2392C15.2462 23.3265 15.1046 23.3959 15 23.4464C14.8954 23.3959 14.7538 23.3265 14.5797 23.2392C14.175 23.0361 13.5954 22.7358 12.8992 22.3487C11.5057 21.5739 9.65087 20.4544 7.79889 19.0734C5.94431 17.6905 4.10919 16.0577 2.7417 14.26C1.37282 12.4605 0.5 10.5327 0.5 8.54814C0.5 4.47104 2.63526 1.76818 5.40711 0.850723C8.18622 -0.0691309 11.7345 0.764521 14.6246 4.04966Z" stroke="#FE7D5E"/>
</svg>
