<svg width="32" height="32" viewBox="0 0 32 32" fill="none" xmlns="http://www.w3.org/2000/svg">
<circle cx="16" cy="16" r="16" fill="D1D9DE"/>
<g clip-path="url(#clip0_232_129)">
<path fill-rule="evenodd" clip-rule="evenodd" d="M32 16C32 24.8365 24.8365 32 16 32C7.16347 32 0 24.8365 0 16C0 7.16347 7.16347 0 16 0C24.8365 0 32 7.16347 32 16ZM18.9735 6.04561L7.8736 6.8624C6.9786 6.93987 6.66667 7.52333 6.66667 8.2228V20.3544C6.66667 20.8995 6.86107 21.3653 7.32867 21.988L9.93793 25.3709C10.3665 25.9156 10.756 26.0321 11.5744 25.9931L24.4646 25.2153C25.5548 25.1379 25.8667 24.6321 25.8667 23.7767V10.1283C25.8667 9.68613 25.6916 9.5584 25.1755 9.18187C25.1471 9.1612 25.1177 9.13973 25.0871 9.1174L21.5439 6.62892C20.6872 6.00704 20.3365 5.92879 18.9735 6.04561Z" fill="white"/>
<path fill-rule="evenodd" clip-rule="evenodd" d="M9.97759 9.50641C10.6001 10.0118 10.8337 9.97321 12.0026 9.89528L23.0233 9.23408C23.257 9.23408 23.0626 9.00101 22.9847 8.96235L21.1544 7.64015C20.8037 7.36808 20.3365 7.05655 19.4409 7.13448L8.76966 7.91221C8.38053 7.95075 8.30279 8.14521 8.45779 8.30108L9.97759 9.50641Z" fill="white"/>
<path fill-rule="evenodd" clip-rule="evenodd" d="M10.6392 23.6598V12.0729C10.6392 11.5675 10.795 11.334 11.262 11.2948L23.9188 10.5563C24.3482 10.5173 24.5426 10.7897 24.5426 11.2948V22.804C24.5426 23.3099 24.4644 23.7382 23.7632 23.7768L11.6516 24.477C10.9506 24.5156 10.6392 24.2826 10.6392 23.6598ZM22.2446 13.4341C22.5958 13.3947 22.6734 13.0447 22.5958 12.6944L19.9078 12.8507C19.5183 12.8893 19.2072 13.2003 19.285 13.6286L20.2978 13.7447V19.1108L16.3253 13.0449L13.4432 13.239C12.8976 13.2782 12.7032 13.7833 12.7812 14.1336L13.7546 14.2115V21.8717L13.0536 22.0658C12.781 22.1437 12.703 22.5322 12.781 22.6879L15.4676 22.5322C16.4421 22.5322 16.4421 21.8326 16.4421 21.8326L15.2342 21.5603V15.7667L19.0514 21.7547C19.5183 22.3376 19.6744 22.5322 20.2978 22.5322C20.6871 22.5322 21.1543 22.3766 21.661 22.1045V13.5503L22.2446 13.4341Z" fill="white"/>
</g>
<defs>
<clipPath id="clip0_232_129">
<rect width="32" height="32" fill="white"/>
</clipPath>
</defs>
</svg>
