<svg width="24" height="24" viewBox="0 0 24 24" fill="none" xmlns="http://www.w3.org/2000/svg">
<circle cx="12" cy="12" r="12" fill="white"/>
<g clip-path="url(#clip0_232_207)">
<path d="M16.9796 13.5135L15.0355 12.5149C14.5597 12.2696 13.9443 12.3532 13.5498 12.7159L13.3229 12.9236C13.1028 13.1261 12.7597 13.173 12.4931 13.035C11.8301 12.6937 11.2998 12.1635 10.9582 11.502C10.8183 11.2305 10.863 10.8975 11.0703 10.6725L11.2784 10.446C11.5016 10.2034 11.6242 9.88837 11.6242 9.55951C11.6242 9.35251 11.5739 9.14551 11.4791 8.961L10.4793 7.01851C10.1557 6.39075 9.51631 6 8.81093 6C8.39619 6 8.00319 6.13276 7.67468 6.38363L7.0837 6.83437C6.15558 7.54163 5.77419 8.763 6.13382 9.87337C7.33156 13.5671 10.2344 16.5461 13.8989 17.8425C14.1948 17.9471 14.5042 18 14.8181 18C15.552 18 16.2674 17.7019 16.7816 17.181L17.4585 16.4966C17.808 16.1434 18 15.6761 18 15.1808C18 14.4754 17.6088 13.8367 16.9796 13.5135ZM16.6574 15.7069L15.981 16.3913C15.5467 16.8307 14.8589 16.9894 14.2739 16.7824C10.9376 15.6026 8.29456 12.8899 7.20407 9.52688C6.99144 8.86951 7.21682 8.14688 7.76619 7.728L8.35756 7.27688C8.48844 7.17714 8.64519 7.12425 8.81093 7.12425C9.09293 7.12425 9.34905 7.28063 9.47842 7.533L10.4778 9.47549C10.4913 9.50175 10.4984 9.53024 10.4984 9.55986C10.4984 9.61986 10.4714 9.66149 10.4486 9.68624L10.2408 9.91235C9.71656 10.4824 9.60293 11.328 9.95807 12.0169C10.4066 12.8876 11.1056 13.5851 11.9774 14.0344C12.6543 14.3831 13.5236 14.2657 14.0834 13.752L14.3107 13.5435C14.3474 13.5097 14.4427 13.4745 14.5214 13.5146L16.4654 14.5132C16.7182 14.643 16.875 14.8987 16.875 15.1807C16.8746 15.3784 16.7973 15.5651 16.6574 15.7069Z" fill="#808080"/>
</g>
<defs>
<clipPath id="clip0_232_207">
<rect width="12" height="12" fill="white" transform="translate(6 6)"/>
</clipPath>
</defs>
</svg>
