<svg width="115" height="124" viewBox="0 0 115 124" fill="none" xmlns="http://www.w3.org/2000/svg">
<path d="M113 94.3671L104.405 85.7504L76.3952 113.829L84.5461 122M97.2911 82.7792L71.8011 53.8092C70.1709 51.2837 64.243 46.8565 53.5728 49.3523M73.1348 73.5682C70.0227 74.5091 61.5162 73.4197 52.3872 61.5346C50.9052 59.108 46.3407 54.8789 39.9386 57.3748C37.8638 59.3061 35.3445 64.4761 41.8652 69.7056L55.2029 82.7792C54.215 88.3751 56.4182 100.993 73.1348 106.698M47.0521 49.3523V11.7657C47.4967 8.10114 45.6887 1.03941 34.8999 2.10907H10.8919C7.9279 2.01002 2 3.80269 2 11.7657C2 19.7287 2 48.8571 2 62.4259C2.1976 65.3972 4.51936 71.3398 12.2256 71.3398C19.9319 71.3398 30.5527 71.3398 34.8999 71.3398M14.5968 76.9852C14.8438 78.5699 16.6716 80.8478 22.3031 80.8478H27.1936M44.0881 80.8478H27.1936M27.1936 80.8478C23.9332 81.1845 20.8211 88.9098 29.2684 91.0987H49.5714" stroke="white" stroke-width="3" stroke-linecap="round" stroke-linejoin="round"/>
</svg>
